<?xml version="1.0" standalone="no"?>
<!DOCTYPE svg PUBLIC "-//W3C//DTD SVG 20010904//EN"
 "http://www.w3.org/TR/2001/REC-SVG-20010904/DTD/svg10.dtd">
<svg version="1.0" xmlns="http://www.w3.org/2000/svg"
 width="1440.000000pt" height="1024.000000pt" viewBox="0 0 1440.000000 1024.000000"
 preserveAspectRatio="xMidYMid meet">

<g transform="translate(0.000000,1024.000000) scale(0.100000,-0.100000)"
fill="#000000" stroke="none">
<path d="M6105 9239 c-104 -15 -205 -50 -205 -70 0 -45 7 -47 78 -27 86 25
283 36 338 18 94 -30 146 -90 146 -170 0 -64 -25 -114 -92 -181 -60 -60 -141
-105 -210 -117 -38 -6 -45 -11 -48 -33 -3 -24 0 -25 79 -37 103 -15 192 -56
258 -117 66 -62 85 -112 79 -207 -10 -155 -114 -267 -276 -299 -89 -17 -230
-7 -321 24 l-72 24 -15 -29 c-15 -28 -15 -29 22 -44 133 -56 337 -71 453 -35
118 37 220 123 269 229 23 50 27 70 27 157 0 92 -2 104 -30 154 -16 29 -48 69
-70 88 -36 30 -127 80 -179 97 -17 6 -12 12 30 40 107 72 173 169 181 268 18
193 -170 306 -442 267z"/>
<path d="M7420 9240 c-41 -5 -112 -18 -158 -31 -81 -22 -83 -23 -77 -48 4 -14
9 -29 13 -33 4 -3 41 3 82 14 95 25 266 34 342 19 117 -25 176 -98 185 -230 6
-89 -16 -166 -74 -266 -83 -142 -282 -363 -500 -557 -102 -90 -113 -103 -113
-134 l0 -34 425 0 425 0 0 35 0 35 -359 2 -360 3 124 112 c336 305 524 588
525 788 0 59 -26 149 -56 194 -67 102 -229 152 -424 131z"/>
<path d="M8195 8378 c-2 -7 -5 -39 -7 -71 l-3 -57 52 -15 c135 -39 183 -173
90 -251 -30 -25 -36 -26 -104 -21 -40 3 -73 2 -73 -3 0 -12 39 -20 100 -20 96
0 150 52 150 145 0 81 -44 136 -132 166 -46 15 -53 21 -56 46 -2 16 2 41 7 56
10 25 14 26 93 30 l83 3 -98 2 c-71 1 -99 -1 -102 -10z"/>
<path d="M8520 8368 c-46 -28 -44 -27 -38 -34 4 -3 20 2 37 10 16 9 32 16 36
16 3 0 5 -94 5 -210 0 -133 4 -210 10 -210 6 0 10 82 10 225 0 173 -3 225 -12
225 -7 0 -29 -10 -48 -22z"/>
<path d="M6840 7985 l0 -45 45 0 45 0 0 45 0 45 -45 0 -45 0 0 -45z"/>
<path d="M6302 6284 c-186 -50 -347 -203 -404 -386 -31 -97 -33 -294 -4 -378
33 -99 79 -173 151 -245 117 -117 239 -168 405 -168 174 0 298 50 415 168 72
72 118 147 151 245 30 87 27 281 -5 379 -62 190 -218 337 -406 386 -74 19
-232 19 -303 -1z m308 -74 c293 -85 438 -466 290 -761 -37 -72 -125 -170 -188
-206 -137 -81 -349 -86 -494 -12 -66 34 -163 133 -202 209 -177 337 23 754
379 789 87 9 132 5 215 -19z"/>
<path d="M4779 6273 c5 -11 104 -180 220 -377 l211 -359 0 -208 0 -209 40 0
40 0 0 210 0 211 220 375 219 375 -46 -3 -46 -3 -188 -320 c-103 -176 -191
-324 -194 -330 -3 -6 -7 -6 -11 2 -6 14 -293 504 -343 588 -36 59 -37 60 -84
63 -44 3 -48 2 -38 -15z"/>
<path d="M7402 5873 l3 -418 27 -68 c30 -79 67 -135 117 -179 134 -117 406
-139 584 -45 70 36 116 86 157 168 55 108 60 154 60 577 l0 382 -34 0 -34 0
-5 -392 c-5 -405 -7 -428 -50 -530 -23 -55 -101 -133 -156 -157 -112 -48 -280
-48 -392 0 -64 28 -141 112 -168 182 -33 90 -41 194 -41 553 l0 344 -36 0 -35
0 3 -417z"/>
<path d="M8813 6283 l-33 -4 0 -580 0 -579 40 0 40 0 0 240 0 240 38 0 c22 0
87 -3 145 -6 l106 -7 120 -161 c178 -240 244 -296 374 -311 57 -7 57 -7 57 19
0 20 -6 27 -27 32 -103 25 -174 89 -341 306 l-112 147 64 66 c113 114 154 238
122 363 -27 107 -76 162 -191 214 -45 20 -67 23 -210 24 -88 1 -175 0 -192 -3z
m339 -73 c59 -17 130 -72 156 -121 21 -39 23 -54 20 -134 -5 -96 -16 -129 -71
-199 -17 -21 -49 -51 -70 -67 -40 -29 -41 -29 -184 -29 l-143 0 0 279 0 280
53 4 c73 6 195 -1 239 -13z"/>
<path d="M3809 4460 c-136 -21 -234 -73 -335 -175 -79 -79 -141 -190 -169
-300 -21 -80 -21 -271 0 -350 56 -216 242 -403 465 -469 124 -37 339 -30 490
16 105 33 107 34 75 96 -1 1 -27 -7 -57 -17 -92 -32 -197 -44 -330 -39 -102 4
-135 10 -193 32 -136 52 -262 169 -324 301 -40 85 -53 146 -53 256 1 170 50
301 156 416 105 113 223 163 386 163 95 0 254 -22 342 -46 32 -9 61 -15 63
-12 3 2 8 18 11 35 6 30 4 32 -32 42 -159 45 -386 68 -495 51z"/>
<path d="M4670 3953 c0 -408 6 -463 54 -570 34 -73 76 -125 133 -162 126 -84
345 -101 506 -41 110 41 203 154 243 296 15 50 18 120 22 457 l4 397 -40 0
-40 0 -5 -397 c-4 -421 -6 -444 -56 -540 -79 -156 -288 -219 -507 -152 -74 23
-139 76 -177 148 -51 93 -57 150 -57 564 l0 377 -40 0 -40 0 0 -377z"/>
<path d="M6083 4323 l-33 -4 0 -580 0 -579 40 0 40 0 0 241 0 242 83 -6 c45
-4 110 -7 144 -7 l61 0 130 -173 c180 -240 241 -290 370 -303 62 -7 62 -7 62
19 0 22 -6 28 -42 37 -102 27 -162 82 -331 302 l-113 147 67 70 c84 87 120
159 127 250 9 128 -30 217 -124 282 -80 55 -146 69 -307 67 -78 0 -157 -3
-174 -5z m280 -63 c146 -21 226 -93 243 -217 8 -60 -15 -156 -50 -211 -29 -46
-111 -120 -140 -128 -12 -2 -79 -3 -151 -2 l-130 3 -3 277 -2 277 72 4 c40 1
78 4 83 5 6 1 41 -3 78 -8z"/>
<path d="M7178 4323 l-28 -4 0 -580 0 -579 40 0 40 0 0 241 0 242 83 -6 c45
-4 109 -7 142 -7 l60 0 119 -161 c182 -246 246 -299 379 -315 57 -7 57 -7 57
19 0 21 -6 28 -27 33 -47 11 -122 53 -163 90 -21 19 -96 110 -166 201 l-127
166 40 33 c62 51 130 158 149 234 13 52 14 76 6 126 -19 117 -71 185 -182 238
-64 30 -67 31 -230 32 -91 1 -177 0 -192 -3z m356 -80 c59 -19 123 -74 147
-128 22 -49 25 -143 5 -208 -19 -63 -80 -144 -135 -178 -44 -28 -48 -29 -183
-29 l-138 0 0 280 0 279 68 4 c95 5 179 -2 236 -20z"/>
<path d="M8240 3745 l0 -585 280 0 280 0 0 35 0 35 -240 0 -240 0 0 265 0 265
210 0 210 0 0 35 0 35 -210 0 -210 0 0 215 0 215 230 0 230 0 0 35 0 35 -270
0 -270 0 0 -585z"/>
<path d="M9140 3745 l0 -585 41 0 41 0 -4 505 c-2 357 0 501 8 492 6 -7 35
-41 65 -77 96 -115 730 -843 772 -887 23 -24 47 -43 54 -43 10 0 13 114 13
590 l0 590 -40 0 -40 0 2 -505 c2 -278 0 -504 -3 -503 -4 2 -28 30 -55 64 -27
33 -222 259 -433 502 -243 279 -391 442 -403 442 -17 0 -18 -26 -18 -585z"/>
<path d="M10380 4295 l0 -35 198 -2 197 -3 3 -547 2 -548 35 0 35 0 2 548 3
547 198 3 197 2 0 35 0 35 -435 0 -435 0 0 -35z"/>
<path d="M9582 2365 c-202 -57 -353 -223 -396 -437 -65 -320 100 -617 399
-715 140 -46 393 -33 534 27 l51 22 0 259 0 259 -35 0 -35 0 -2 -237 -3 -238
-55 -19 c-82 -28 -325 -35 -405 -11 -172 49 -322 206 -364 379 -17 68 -15 219
4 289 43 163 164 298 311 347 61 21 80 22 213 17 98 -4 173 -12 230 -26 46
-12 86 -20 88 -17 2 2 5 16 6 32 2 28 0 30 -88 52 -117 31 -370 40 -453 17z"/>
<path d="M4293 2363 l-33 -4 0 -580 0 -579 40 0 40 0 0 241 0 242 68 -6 c37
-4 103 -7 147 -7 l80 -1 110 -151 c179 -247 255 -311 384 -324 l63 -7 -4 28
c-2 23 -10 30 -45 40 -105 31 -155 77 -329 307 l-106 139 49 47 c59 57 109
128 128 183 24 67 19 194 -9 254 -28 61 -90 118 -165 154 -53 25 -65 26 -221
27 -91 1 -180 0 -197 -3z m356 -79 c71 -21 142 -90 160 -157 17 -60 10 -149
-17 -210 -23 -52 -102 -141 -144 -163 -28 -14 -239 -20 -285 -8 l-23 6 0 267
c0 147 3 271 7 274 14 14 249 7 302 -9z"/>
<path d="M5578 2087 c-65 -155 -174 -417 -243 -581 -69 -165 -125 -301 -125
-303 0 -2 19 -3 42 -1 l41 3 83 200 83 200 259 3 258 2 85 -202 85 -203 46 -3
46 -3 -246 585 c-234 559 -247 586 -271 586 -24 0 -33 -17 -143 -283z m253
-122 c61 -149 113 -276 116 -282 4 -10 -45 -13 -226 -13 -127 0 -231 2 -231 5
0 3 42 107 94 232 51 126 102 251 112 280 10 29 19 51 21 50 1 -2 52 -124 114
-272z"/>
<path d="M6180 2335 l0 -35 198 -2 197 -3 0 -548 0 -547 37 0 38 0 2 548 3
547 198 3 197 2 0 35 0 35 -435 0 -435 0 0 -35z"/>
<path d="M7300 1786 l0 -586 40 0 40 0 -2 583 -3 582 -37 3 -38 3 0 -585z"/>
<path d="M7810 1785 l0 -585 40 0 40 0 0 503 1 502 27 -31 c15 -17 214 -245
442 -508 263 -302 420 -476 430 -474 13 3 15 70 18 591 l2 587 -40 0 -40 0 0
-507 -1 -508 -25 30 c-13 17 -210 245 -437 507 -311 360 -418 477 -434 477
l-23 1 0 -585z"/>
</g>
</svg>
