<?xml version="1.0" standalone="no"?>
<!DOCTYPE svg PUBLIC "-//W3C//DTD SVG 20010904//EN"
 "http://www.w3.org/TR/2001/REC-SVG-20010904/DTD/svg10.dtd">
<svg version="1.0" xmlns="http://www.w3.org/2000/svg"
 width="1440.000000pt" height="1024.000000pt" viewBox="0 0 1440.000000 1024.000000"
 preserveAspectRatio="xMidYMid meet">

<g transform="translate(0.000000,1024.000000) scale(0.100000,-0.100000)"
fill="#000000" stroke="none">
<path d="M6105 9239 c-104 -15 -205 -50 -205 -70 0 -45 7 -47 78 -27 86 25
283 36 338 18 94 -30 146 -90 146 -170 0 -64 -25 -114 -92 -181 -60 -60 -141
-105 -210 -117 -38 -6 -45 -11 -48 -33 -3 -24 0 -25 79 -37 103 -15 192 -56
258 -117 66 -62 85 -112 79 -207 -10 -155 -114 -267 -276 -299 -89 -17 -230
-7 -321 24 l-72 24 -15 -29 c-15 -28 -15 -29 22 -44 133 -56 337 -71 453 -35
118 37 220 123 269 229 23 50 27 70 27 157 0 92 -2 104 -30 154 -16 29 -48 69
-70 88 -36 30 -127 80 -179 97 -17 6 -12 12 30 40 107 72 173 169 181 268 18
193 -170 306 -442 267z"/>
<path d="M7420 9240 c-41 -5 -112 -18 -158 -31 -81 -22 -83 -23 -77 -48 4 -14
9 -29 13 -33 4 -3 41 3 82 14 95 25 266 34 342 19 117 -25 176 -98 185 -230 6
-89 -16 -166 -74 -266 -83 -142 -282 -363 -500 -557 -102 -90 -113 -103 -113
-134 l0 -34 425 0 425 0 0 35 0 35 -359 2 -360 3 124 112 c336 305 524 588
525 788 0 59 -26 149 -56 194 -67 102 -229 152 -424 131z"/>
<path d="M8195 8378 c-2 -7 -5 -39 -7 -71 l-3 -57 52 -15 c135 -39 183 -173
90 -251 -30 -25 -36 -26 -104 -21 -40 3 -73 2 -73 -3 0 -12 39 -20 100 -20 96
0 150 52 150 145 0 81 -44 136 -132 166 -46 15 -53 21 -56 46 -2 16 2 41 7 56
10 25 14 26 93 30 l83 3 -98 2 c-71 1 -99 -1 -102 -10z"/>
<path d="M8520 8368 c-46 -28 -44 -27 -38 -34 4 -3 20 2 37 10 16 9 32 16 36
16 3 0 5 -94 5 -210 0 -133 4 -210 10 -210 6 0 10 82 10 225 0 173 -3 225 -12
225 -7 0 -29 -10 -48 -22z"/>
<path d="M6840 7985 l0 -45 45 0 45 0 0 45 0 45 -45 0 -45 0 0 -45z"/>
<path d="M5718 6419 c-239 -32 -434 -204 -509 -449 -19 -61 -24 -98 -24 -200
0 -136 12 -199 55 -296 103 -229 322 -373 568 -374 79 0 199 24 266 54 104 47
212 148 283 266 46 76 75 189 80 310 6 143 -11 230 -68 348 -53 110 -171 233
-269 280 -115 56 -255 78 -382 61z m214 -80 c195 -41 356 -210 404 -425 24
-109 16 -274 -19 -366 -66 -182 -189 -302 -356 -352 -79 -23 -232 -21 -313 4
-238 73 -392 322 -375 605 16 265 169 467 398 529 65 18 189 20 261 5z"/>
<path d="M3984 6395 c3 -9 112 -197 241 -417 l235 -401 0 -228 0 -229 40 0 40
0 0 229 0 229 236 403 c130 221 238 408 241 416 4 10 -6 13 -40 13 l-45 0
-213 -375 c-142 -249 -217 -371 -222 -363 -5 7 -101 175 -215 373 l-207 360
-49 3 c-42 3 -48 1 -42 -13z"/>
<path d="M6833 5953 c4 -486 6 -502 64 -617 34 -68 115 -151 177 -181 142 -69
374 -71 512 -4 73 35 140 103 179 182 61 124 65 162 65 640 l0 427 -40 0 -40
0 0 -422 c0 -449 -5 -505 -50 -600 -71 -151 -243 -229 -442 -200 -178 26 -273
109 -325 285 -13 43 -17 131 -20 495 l-5 442 -39 0 -40 0 4 -447z"/>
<path d="M8117 6318 c-4 -46 -9 -95 -13 -110 -5 -23 -3 -28 12 -28 27 0 95
132 94 183 l0 37 -44 0 -43 0 -6 -82z"/>
<path d="M8333 6348 c13 -29 137 -320 277 -646 239 -558 255 -593 277 -590 21
3 50 65 273 588 138 322 261 611 275 643 l24 57 -43 0 -42 0 -229 -542 c-126
-299 -233 -560 -239 -580 -6 -21 -13 -38 -16 -38 -3 0 -15 28 -28 63 -12 34
-121 294 -241 577 l-217 515 -47 3 -47 3 23 -53z"/>
<path d="M9730 5760 l0 -640 310 0 310 0 0 35 0 35 -267 2 -268 3 0 295 0 295
233 3 232 2 0 30 0 30 -232 2 -233 3 -3 237 -2 238 257 2 258 3 3 33 3 32
-300 0 -301 0 0 -640z"/>
<path d="M8180 3811 l0 -651 40 0 40 0 0 562 0 563 33 -40 c17 -22 238 -277
490 -567 312 -359 464 -528 478 -528 19 0 19 12 17 648 l-3 647 -40 0 -40 0 0
-562 0 -562 -25 32 c-31 40 -230 272 -634 737 -182 210 -325 366 -336 368 -20
3 -20 -5 -20 -647z"/>
<path d="M5148 4443 l-28 -4 0 -634 c0 -349 4 -636 8 -639 21 -13 380 -18 447
-7 130 23 211 74 261 163 27 50 29 60 29 163 0 130 -13 163 -99 248 -48 47
-146 107 -175 107 -20 0 -11 15 24 39 43 29 97 101 127 168 30 67 30 181 0
239 -28 55 -92 108 -161 136 -50 20 -76 22 -231 24 -96 1 -187 0 -202 -3z
m383 -78 c100 -36 149 -98 149 -191 0 -88 -23 -146 -88 -215 -78 -85 -83 -86
-244 -81 l-138 4 0 249 0 249 139 0 c98 0 151 -4 182 -15z m-49 -569 c285 -61
406 -338 217 -500 -73 -62 -139 -74 -381 -68 l-108 2 0 290 0 290 103 0 c56 0
132 -7 169 -14z"/>
<path d="M6257 4443 c-4 -3 -7 -294 -7 -645 l0 -638 310 0 310 0 0 35 0 35
-265 0 -265 0 0 300 0 300 230 0 230 0 0 35 0 35 -230 0 -230 0 0 235 0 235
255 0 255 0 0 40 0 40 -293 0 c-162 0 -297 -3 -300 -7z"/>
<path d="M7220 3805 l0 -645 305 0 305 0 0 35 0 35 -265 0 -265 0 0 300 0 300
230 0 230 0 0 35 0 35 -230 0 -230 0 0 235 0 235 255 0 255 0 0 40 0 40 -295
0 -295 0 0 -645z"/>
<path d="M8933 2493 l-103 -4 0 -643 0 -643 98 -6 c205 -14 421 -8 511 13 303
73 466 308 448 645 -7 130 -26 206 -73 295 -92 175 -267 298 -479 335 -83 14
-150 16 -402 8z m412 -88 c325 -68 513 -386 439 -743 -39 -189 -140 -302 -331
-369 -76 -27 -83 -28 -293 -28 -118 1 -223 4 -232 8 -17 6 -18 42 -18 571 0
529 1 565 18 569 44 12 351 6 417 -8z"/>
<path d="M4623 2483 l-43 -4 0 -640 0 -639 45 0 45 0 0 266 0 267 61 -7 c34
-3 106 -6 159 -6 l98 0 145 -193 c80 -107 167 -213 194 -237 86 -77 207 -115
292 -93 33 9 36 13 125 228 l91 220 289 0 290 0 91 -220 92 -220 46 -3 c26 -2
47 1 46 5 0 4 -121 294 -268 643 -263 625 -267 635 -295 635 -27 0 -32 -9
-223 -465 -107 -256 -223 -532 -258 -615 -34 -82 -68 -151 -75 -153 -6 -2 -45
12 -85 32 -88 43 -126 83 -295 307 l-122 161 49 44 c272 237 207 608 -118 683
-41 10 -284 12 -376 4z m328 -73 c78 -14 158 -58 195 -107 105 -138 43 -378
-125 -485 -42 -26 -52 -28 -152 -28 -58 0 -127 3 -153 6 l-46 7 0 303 0 303
33 4 c67 8 196 7 248 -3z m1195 -123 c12 -28 69 -166 128 -306 58 -139 106
-255 106 -257 0 -2 -115 -4 -255 -4 -140 0 -255 2 -255 4 0 4 80 203 184 456
31 74 56 141 56 148 0 27 16 9 36 -41z"/>
<path d="M6630 2450 l0 -40 215 0 215 0 0 -605 0 -605 45 0 45 0 0 605 0 605
215 0 215 0 0 40 0 40 -475 0 -475 0 0 -40z"/>
<path d="M7867 2483 c-4 -3 -7 -294 -7 -645 l0 -638 310 0 310 0 0 35 0 35
-265 0 -265 0 0 300 0 300 230 0 230 0 0 35 0 35 -230 0 -230 0 0 235 0 235
256 0 255 0 -3 38 -3 37 -291 3 c-160 1 -293 -1 -297 -5z"/>
<path d="M6058 604 c-37 -20 -58 -63 -58 -120 0 -41 5 -51 39 -85 35 -36 43
-39 92 -39 30 0 61 5 69 11 11 7 4 8 -27 4 -92 -14 -153 33 -153 117 0 44 4
54 35 85 35 35 36 35 98 29 43 -5 57 -4 47 4 -22 15 -111 11 -142 -6z"/>
<path d="M6280 490 l0 -130 71 0 c46 0 68 4 64 10 -4 6 -14 10 -23 9 -10 -1
-34 -1 -54 0 l-38 1 0 120 c0 73 -4 120 -10 120 -6 0 -10 -50 -10 -130z"/>
<path d="M6470 490 c0 -80 4 -130 10 -130 6 0 10 50 10 130 0 80 -4 130 -10
130 -6 0 -10 -50 -10 -130z"/>
<path d="M6626 599 c-75 -59 -72 -171 6 -219 34 -21 121 -28 146 -11 8 4 -15
7 -53 7 -64 -1 -67 0 -101 36 -40 45 -45 94 -14 146 25 41 62 55 125 48 35 -5
46 -3 35 4 -28 18 -115 12 -144 -11z"/>
<path d="M6850 490 c0 -80 4 -130 10 -130 6 0 10 50 10 130 0 80 -4 130 -10
130 -6 0 -10 -50 -10 -130z"/>
<path d="M6936 558 c-33 -38 -52 -67 -48 -75 21 -37 115 -123 135 -123 20 0
19 2 -8 19 -17 10 -50 40 -73 66 -48 54 -50 45 32 133 22 23 35 42 29 42 -6 0
-36 -28 -67 -62z"/>
<path d="M7185 610 c3 -5 24 -10 46 -10 l39 0 0 -120 c0 -73 4 -120 10 -120 6
0 10 47 10 120 l0 120 39 0 c22 0 43 5 46 10 4 6 -30 10 -95 10 -65 0 -99 -4
-95 -10z"/>
<path d="M7449 581 c-34 -34 -39 -44 -39 -86 0 -82 50 -135 128 -135 79 0 139
71 126 149 -11 71 -60 111 -135 111 -35 0 -48 -6 -80 -39z m136 15 c116 -49
62 -243 -63 -222 -89 14 -127 129 -65 199 34 38 75 45 128 23z"/>
<path d="M7898 609 c-21 -12 -24 -58 -5 -80 6 -9 31 -30 55 -49 37 -28 43 -37
40 -64 -4 -39 -43 -56 -89 -39 -23 9 -29 9 -26 0 6 -20 96 -21 118 -1 35 32
24 68 -36 119 -42 37 -55 54 -55 76 0 33 25 44 77 34 24 -4 33 -3 28 4 -8 14
-84 14 -107 0z"/>
<path d="M8090 490 l0 -130 60 0 c34 0 60 4 60 10 0 6 -19 10 -42 9 -69 -2
-68 -4 -68 56 l0 55 44 0 c25 0 48 5 51 10 4 6 -13 10 -44 10 l-51 0 0 45 0
45 49 0 c28 0 53 5 56 10 4 6 -17 10 -54 10 l-61 0 0 -130z"/>
<path d="M8290 490 l0 -130 60 0 c33 0 60 4 60 10 0 6 -25 10 -55 10 l-55 0 0
55 0 55 45 0 c25 0 45 5 45 10 0 6 -20 10 -45 10 l-45 0 0 45 0 45 50 0 c28 0
50 5 50 10 0 6 -25 10 -55 10 l-55 0 0 -130z"/>
</g>
</svg>
