<?xml version="1.0" encoding="UTF-8"?>
<svg id="Layer_1" data-name="Layer 1" xmlns="http://www.w3.org/2000/svg" xmlns:xlink="http://www.w3.org/1999/xlink" viewBox="0 0 1920 1080">
  <defs>
    <style>
      .cls-1 {
        fill: url(#linear-gradient);
      }

      .cls-1, .cls-2 {
        stroke-width: 0px;
      }

      .cls-2 {
        fill: #dc4a64;
      }
    </style>
    <linearGradient id="linear-gradient" x1="1441.03" y1="70.28" x2="473.4" y2="1015.17" gradientUnits="userSpaceOnUse">
      <stop offset="0" stop-color="#ffccc1"/>
      <stop offset="1" stop-color="#dd9181"/>
    </linearGradient>
  </defs>
  <rect class="cls-1" width="1920" height="1080"/>
  <g>
    <path class="cls-2" d="M837.44,504.36l33.32-56.98h6.58l-37.1,63.14v38.36h-5.74v-38.5l-36.26-63h6.44l32.76,56.98Z"/>
    <path class="cls-2" d="M878.32,498.06c0-30.8,17.5-52.5,46.2-52.5s46.34,21,46.34,52.5-18.06,52.64-46.34,52.64-46.2-21.84-46.2-52.64ZM964.7,498.06c0-30.1-17.22-47.04-40.18-47.04s-40.04,16.94-40.04,47.04,17.22,47.18,40.04,47.18,40.18-17.08,40.18-47.18Z"/>
    <path class="cls-2" d="M987.24,447.38h5.74v61.32c0,24.5,8.96,36.54,33.04,36.54s33.04-12.04,33.04-36.54v-61.32h5.74v60.34c0,30.52-11.48,42.98-38.78,42.98s-38.78-12.46-38.78-42.98v-60.34Z"/>
    <path class="cls-2" d="M1117.44,501.98h-24.36v46.9h-5.74v-101.5h30.24c23.24,0,39.9,4.2,39.9,27.02,0,17.08-9.38,24.08-23.94,26.46l25.48,48.02h-6.44l-24.92-47.18c-3.22.28-6.58.28-10.22.28ZM1093.08,496.79h24.22c19.18,0,34.02-2.52,34.02-22.12s-14.84-22.12-34.02-22.12h-24.22v44.24Z"/>
    <path class="cls-2" d="M715.79,718.7c-29.12,0-45.22-22.54-45.22-52.64s16.24-52.5,45.5-52.5c21.56,0,37.52,11.48,41.86,32.06h-6.02c-4.2-18.2-18.62-26.6-35.98-26.6-23.38,0-39.2,18.2-39.2,47.04s15.68,47.18,39.06,47.18c19.46,0,32.76-10.08,36.54-26.6h6.02c-4.34,20.58-20.44,32.06-42.56,32.06Z"/>
    <path class="cls-2" d="M773.46,615.38h5.74v61.32c0,24.5,8.96,36.54,33.04,36.54s33.04-12.04,33.04-36.54v-61.32h5.74v60.34c0,30.52-11.48,42.98-38.78,42.98s-38.78-12.46-38.78-42.98v-60.34Z"/>
    <path class="cls-2" d="M903.66,669.98h-24.36v46.9h-5.74v-101.5h30.24c23.24,0,39.9,4.2,39.9,27.02,0,17.08-9.38,24.08-23.94,26.46l25.48,48.02h-6.44l-24.92-47.18c-3.22.28-6.58.28-10.22.28ZM879.3,664.79h24.22c19.18,0,34.02-2.52,34.02-22.12s-14.84-22.12-34.02-22.12h-24.22v44.24Z"/>
    <path class="cls-2" d="M992.56,669.98h-24.36v46.9h-5.74v-101.5h30.24c23.24,0,39.9,4.2,39.9,27.02,0,17.08-9.38,24.08-23.94,26.46l25.48,48.02h-6.44l-24.92-47.18c-3.22.28-6.58.28-10.22.28ZM968.2,664.79h24.22c19.18,0,34.02-2.52,34.02-22.12s-14.84-22.12-34.02-22.12h-24.22v44.24Z"/>
    <path class="cls-2" d="M1114.92,615.38v5.46h-57.82v40.74h54.32v5.32h-54.32v44.52h57.82v5.46h-63.56v-101.5h63.56Z"/>
    <path class="cls-2" d="M1137.74,622.52v94.36h-5.74v-101.5h7.7l63.56,94.36v-94.36h5.74v101.5h-7.7l-63.56-94.36Z"/>
    <path class="cls-2" d="M1221.04,620.83v-5.46h76.72v5.46h-35.56v96.04h-5.74v-96.04h-35.42Z"/>
    <path class="cls-2" d="M784.18,837.98h-24.36v46.9h-5.74v-101.5h30.24c23.24,0,39.9,4.2,39.9,27.02,0,17.08-9.38,24.08-23.94,26.46l25.48,48.02h-6.44l-24.92-47.18c-3.22.28-6.58.28-10.22.28ZM759.82,832.79h24.22c19.18,0,34.02-2.52,34.02-22.12s-14.84-22.12-34.02-22.12h-24.22v44.24Z"/>
    <path class="cls-2" d="M878.25,783.38l39.34,101.5h-6.16l-10.64-27.58h-51.24l-10.5,27.58h-6.02l39.2-101.5h6.02ZM898.69,851.83l-23.52-61.6-23.52,61.6h47.04Z"/>
    <path class="cls-2" d="M908.91,788.83v-5.46h76.72v5.46h-35.56v96.04h-5.74v-96.04h-35.42Z"/>
    <path class="cls-2" d="M997.67,884.88v-101.5h5.74v101.5h-5.74Z"/>
    <path class="cls-2" d="M1033.23,790.52v94.36h-5.74v-101.5h7.7l63.56,94.36v-94.36h5.74v101.5h-7.7l-63.56-94.36Z"/>
    <path class="cls-2" d="M1203.89,813.62c-4.06-18.34-18.76-26.6-35.84-26.6-23.52,0-39.48,18.2-39.48,47.04s15.4,47.18,38.92,47.18c17.5,0,36.82-8.4,36.82-34.58v-4.62h-29.12v-5.32h34.72v48.16h-5.32l-.14-18.34c-5.6,11.76-16.8,20.16-37.1,20.16-29.12,0-44.94-22.54-44.94-52.64s16.52-52.5,45.78-52.5c21.28,0,37.52,10.92,41.72,32.06h-6.02Z"/>
  </g>
  <g>
    <path class="cls-2" d="M870.11,225.76h-1.98v-6.12h1.26c26.46,0,38.34-11.16,38.34-28.44,0-15.84-14.04-26.64-33.3-26.64s-33.66,10.08-36.9,29.88h-7.38c3.6-22.5,19.8-36.18,44.82-36.18,22.86,0,40.32,12.06,40.32,32.4,0,17.46-11.7,28.62-26.1,31.68,16.56,2.52,29.34,12.78,29.34,33.48,0,24.84-21.06,37.62-45.18,37.62-25.56,0-42.3-15.12-45.72-37.8h7.38c4.32,21.6,19.08,31.32,38.34,31.32,21.06,0,37.62-11.16,37.62-30.78,0-21.6-16.38-30.42-40.86-30.42Z"/>
    <path class="cls-2" d="M941.93,272.37h7.02v18.72h-7.02v-18.72Z"/>
    <path class="cls-2" d="M986.57,284.25h80.46v6.84h-90v-7.02c51.12-38.16,78.12-64.8,78.12-91.26,0-19.08-14.58-28.26-31.5-28.26s-34.74,8.28-36,35.64h-7.38c1.44-28.44,19.08-41.94,43.38-41.94s39.06,12.24,39.06,34.02c0,28.44-27,55.98-76.14,91.98Z"/>
    <path class="cls-2" d="M1095.04,258.91c-6.55,0-11.74,3.02-14.04,7.78l-2.59-.36,3.6-27.43h28.95v2.81h-26.5l-2.88,20.67c2.45-3.17,7.42-6.05,14.11-6.05,10.01,0,17.42,6.84,17.42,18s-8.35,17.71-18.22,17.71-16.92-5.83-18.29-15.12h2.95c1.51,8.71,7.63,12.53,15.34,12.53,8.35,0,15.19-5.54,15.19-15.12s-6.55-15.41-15.05-15.41Z"/>
    <path class="cls-2" d="M1128.59,248.39h-11.16v-2.09c9.14,0,10.51-1.22,11.88-7.42h2.09v52.2h-2.81v-42.7Z"/>
  </g>
</svg>