<?xml version="1.0" encoding="UTF-8"?>
<svg id="Layer_1" data-name="Layer 1" xmlns="http://www.w3.org/2000/svg" xmlns:xlink="http://www.w3.org/1999/xlink" viewBox="0 0 1810 768">
  <defs>
    <style>
      .cls-1 {
        fill: url(#linear-gradient);
      }

      .cls-1, .cls-2, .cls-3, .cls-4, .cls-5 {
        stroke-width: 0px;
      }

      .cls-2 {
        fill: #873059;
      }

      .cls-3 {
        fill: #262324;
      }

      .cls-4 {
        fill: #770f34;
      }

      .cls-5 {
        fill: #e3d9b5;
      }
    </style>
    <linearGradient id="linear-gradient" x1="1319.3" y1="-21.37" x2="486.27" y2="792.08" gradientUnits="userSpaceOnUse">
      <stop offset="0" stop-color="#ff7d61"/>
      <stop offset="1" stop-color="#9c4157"/>
    </linearGradient>
  </defs>
  <rect class="cls-1" x="-.44" y="-.8" width="1811.25" height="767.62"/>
  <g>
    <path class="cls-4" d="M823.88,131.41h-19.85v-3.71c16.26,0,18.69-2.17,21.13-13.18h3.71v92.75h-4.99v-75.86Z"/>
    <path class="cls-4" d="M852.69,193.97h4.99v13.31h-4.99v-13.31Z"/>
    <path class="cls-4" d="M923.75,181.69v25.59h-5.12v-25.59h-51.47v-4.48l51.73-62.69h4.87v62.43h18.95v4.73h-18.95ZM918.63,176.96v-55.39l-45.46,55.39h45.46Z"/>
    <path class="cls-4" d="M960.71,169.51c9.73,0,14.24,7.88,14.24,19.19s-4.51,19.24-14.24,19.24-14.34-7.88-14.34-19.24,4.51-19.19,14.34-19.19ZM960.71,171.3c-7.43,0-12.19,5.94-12.19,17.4s4.76,17.4,12.19,17.4,12.09-5.89,12.09-17.4-4.71-17.4-12.09-17.4Z"/>
    <path class="cls-4" d="M998.46,187.32c3.89,1.23,7.89,3.94,7.89,9.83,0,6.91-5.63,10.8-13.22,10.8s-13.22-3.89-13.22-10.8c0-5.89,4.05-8.6,7.94-9.83-4.1-1.08-6.76-4.5-6.76-8.6,0-5.43,4.66-9.21,12.04-9.21s12.09,3.79,12.09,9.21c0,4.09-2.71,7.52-6.76,8.6ZM993.13,206.1c6.66,0,11.12-3.33,11.12-8.96s-4.46-8.91-11.12-8.91-11.06,3.28-11.06,8.91,4.41,8.96,11.06,8.96ZM983.14,178.92c0,4.2,3.38,7.63,9.99,7.63s9.99-3.43,9.99-7.63c0-4.76-3.89-7.63-9.99-7.63s-9.99,2.87-9.99,7.63Z"/>
  </g>
  <g>
    <polygon class="cls-2" points="635.4 330.76 648.96 371.4 692.84 371.4 657.34 396.51 670.9 437.15 635.4 412.03 599.89 437.15 613.45 396.51 577.95 371.4 621.84 371.4 635.4 330.76"/>
    <polygon class="cls-5" points="770.29 330.76 783.85 371.4 827.74 371.4 792.23 396.51 805.79 437.15 770.29 412.03 734.79 437.15 748.35 396.51 712.85 371.4 756.73 371.4 770.29 330.76"/>
    <polygon class="cls-5" points="905.19 330.76 918.75 371.4 962.63 371.4 927.13 396.51 940.69 437.15 905.19 412.03 869.68 437.15 883.25 396.51 847.74 371.4 891.63 371.4 905.19 330.76"/>
    <polygon class="cls-5" points="1040.08 330.76 1053.64 371.4 1097.53 371.4 1062.02 396.51 1075.58 437.15 1040.08 412.03 1004.58 437.15 1018.14 396.51 982.64 371.4 1026.52 371.4 1040.08 330.76"/>
    <polygon class="cls-5" points="1174.98 330.76 1188.54 371.4 1232.42 371.4 1196.92 396.51 1210.48 437.15 1174.98 412.03 1139.48 437.15 1153.04 396.51 1117.53 371.4 1161.42 371.4 1174.98 330.76"/>
  </g>
  <g>
    <path class="cls-3" d="M777.69,571.69v-3.32l6.82-2.17c.5-.15.91-.39,1.22-.73.31-.34.46-.83.46-1.48v-48.12c0-.62-.16-1.09-.49-1.42-.33-.32-.72-.56-1.2-.71l-6.82-2.26v-3.23h49.44v15.74h-5.22l-1.73-8.71c-.12-.53-.34-.94-.66-1.22-.33-.28-.74-.42-1.24-.42h-22.8v23.13h14.21c.62,0,1.06-.14,1.33-.42.27-.28.46-.67.58-1.17l1.64-7.08h4.16v22.73h-4.16l-1.64-6.99c-.12-.53-.31-.94-.58-1.24-.27-.29-.71-.44-1.33-.44h-14.21v21.8c0,.65.17,1.14.51,1.48.34.34.74.58,1.22.73l7.21,2.17v3.32h-26.74Z"/>
    <path class="cls-3" d="M866.96,573.2c-5.4,0-9.91-.89-13.52-2.68-3.62-1.78-6.34-4.1-8.17-6.94-1.83-2.85-2.74-5.86-2.74-9.04v-38.65c0-.62-.16-1.08-.49-1.39-.32-.31-.75-.55-1.28-.73l-6.73-2.26v-3.23h26.29v3.23l-6.77,2.26c-.47.15-.87.39-1.19.73-.33.34-.49.8-.49,1.39v34.14c0,1.62.2,3.4.6,5.33.4,1.93,1.17,3.77,2.3,5.51,1.14,1.74,2.77,3.16,4.91,4.27,2.14,1.11,4.94,1.66,8.39,1.66s6.29-.57,8.52-1.7c2.23-1.13,3.98-2.57,5.27-4.31,1.28-1.74,2.18-3.56,2.7-5.46.52-1.9.77-3.62.77-5.15v-34.05c0-.62-.16-1.08-.49-1.37-.33-.29-.71-.52-1.15-.66l-6.77-2.57v-3.23h22.84v3.23l-6.77,2.57c-.47.18-.87.41-1.2.71-.32.29-.49.74-.49,1.33v36.49c0,3.71-.8,6.88-2.41,9.51-1.61,2.62-3.67,4.75-6.17,6.37-2.51,1.62-5.16,2.82-7.97,3.58s-5.4,1.15-7.79,1.15Z"/>
    <path class="cls-3" d="M960.23,557.54h2.26v5.88c-1.71,1.42-3.76,2.87-6.15,4.36-2.39,1.49-5.02,2.74-7.88,3.76-2.86,1.02-5.87,1.53-9.03,1.53-6.29,0-11.78-1.29-16.49-3.87-4.71-2.58-8.36-6.33-10.96-11.26-2.6-4.92-3.9-10.86-3.9-17.82s1.36-12.57,4.09-17.56c2.73-4.98,6.47-8.84,11.22-11.57,4.75-2.73,10.15-4.09,16.2-4.09,2.18,0,4.6.18,7.26.55,2.66.37,5.25.8,7.77,1.3,2.52.5,4.64.97,6.35,1.42v16.19h-5.18l-1.73-9.07c-.09-.47-.35-.87-.8-1.19s-.91-.6-1.42-.84c-1.86-.94-3.87-1.67-6.02-2.19-2.15-.52-4.5-.77-7.04-.77-6.05,0-10.98,2.13-14.78,6.39-3.81,4.26-5.71,10.75-5.71,19.48,0,9.23,2.04,16.19,6.11,20.9,4.07,4.7,9.96,7.05,17.66,7.05,2.57,0,4.87-.4,6.9-1.19,2.04-.8,3.95-1.84,5.75-3.14s3.63-2.71,5.49-4.25Z"/>
    <path class="cls-3" d="M971.47,571.69v-3.32l6.82-2.17c.5-.15.91-.39,1.22-.73.31-.34.46-.83.46-1.48v-48.12c0-.62-.15-1.09-.46-1.42-.31-.32-.72-.56-1.22-.71l-6.82-2.26v-3.23h26.29v3.23l-6.77,2.26c-.5.15-.91.39-1.24.73-.33.34-.49.8-.49,1.39v25.03l25.01-27.02-4.16-2.39v-3.23h20.54v3.23l-6.86,2.21c-.56.18-1.17.46-1.84.84s-1.29.88-1.88,1.5l-18.24,19.11,21.38,28.52c.38.5.87,1.05,1.46,1.64.59.59,1.15.97,1.68,1.15l6.33,2.08v3.14h-22.26v-3.14l3.59-2.03-18.59-25.21-6.15,3.54v19.15c0,.65.15,1.14.46,1.48.31.34.73.58,1.26.73l6.77,2.17v3.32h-26.29Z"/>
    <path class="cls-3" d="M801.39,691.1v-3.32l7.26-2.17c.53-.15.95-.39,1.26-.73.31-.34.46-.83.46-1.48v-16.1l-18.02-32.15c-.24-.44-.54-.88-.91-1.33-.37-.44-.8-.77-1.31-.97l-4.91-1.95v-3.23h23.46v3.23l-7.3,2.61,12.75,21.94,2.43,5.44h.71l15.05-27.11-7.21-2.87v-3.23h19.87v3.23l-4.74,2.08c-.47.21-.9.53-1.28.97-.38.44-.71.88-.97,1.33l-18.28,31.75v16.36c0,.65.15,1.14.46,1.48.31.34.7.58,1.17.73l7.35,2.17v3.32h-27.31Z"/>
    <path class="cls-3" d="M879.07,692.56c-6.55,0-12.11-1.36-16.66-4.07-4.56-2.71-8.03-6.55-10.4-11.52-2.38-4.97-3.56-10.86-3.56-17.67,0-6.43,1.22-12.13,3.67-17.09,2.45-4.97,5.97-8.87,10.56-11.72,4.59-2.85,10.08-4.27,16.49-4.27,6.96,0,12.7,1.45,17.22,4.36,4.51,2.9,7.87,6.85,10.07,11.83,2.2,4.98,3.3,10.61,3.3,16.89,0,4.19-.59,8.26-1.77,12.23-1.18,3.97-3,7.53-5.47,10.7-2.46,3.17-5.64,5.68-9.52,7.54-3.88,1.86-8.52,2.79-13.92,2.79ZM879.87,687.34c4.34,0,7.97-1.12,10.89-3.36s5.11-5.36,6.57-9.35c1.46-3.99,2.19-8.6,2.19-13.82,0-6.01-.77-11.22-2.32-15.61-1.55-4.39-3.9-7.78-7.04-10.17-3.14-2.39-7.12-3.58-11.93-3.58s-8.34,1.19-11.22,3.58c-2.88,2.39-4.99,5.57-6.33,9.55-1.34,3.98-2.01,8.36-2.01,13.14,0,5.93.76,11.11,2.28,15.55,1.52,4.44,3.85,7.89,6.99,10.37s7.12,3.71,11.93,3.71Z"/>
    <path class="cls-3" d="M950.96,692.6c-5.4,0-9.91-.89-13.52-2.68-3.62-1.78-6.34-4.1-8.17-6.94-1.83-2.85-2.74-5.86-2.74-9.04v-38.65c0-.62-.16-1.08-.49-1.39-.33-.31-.75-.55-1.28-.73l-6.73-2.26v-3.23h26.29v3.23l-6.77,2.26c-.47.15-.87.39-1.19.73-.33.34-.49.8-.49,1.39v34.14c0,1.62.2,3.4.6,5.33.4,1.93,1.17,3.77,2.3,5.51s2.77,3.16,4.91,4.27c2.14,1.11,4.94,1.66,8.39,1.66s6.29-.57,8.52-1.7,3.98-2.57,5.27-4.31c1.28-1.74,2.18-3.56,2.7-5.46.52-1.9.77-3.62.77-5.15v-34.05c0-.62-.16-1.08-.49-1.37-.33-.29-.71-.52-1.15-.66l-6.77-2.57v-3.23h22.84v3.23l-6.77,2.57c-.47.18-.87.41-1.2.71-.32.29-.49.74-.49,1.33v36.49c0,3.71-.8,6.88-2.41,9.51-1.61,2.62-3.67,4.75-6.17,6.37-2.51,1.62-5.16,2.82-7.97,3.58-2.8.77-5.4,1.15-7.79,1.15Z"/>
    <path class="cls-3" d="M1004.65,692.21c-1.83,0-3.39-.64-4.69-1.92-1.3-1.28-1.95-2.84-1.95-4.67s.65-3.43,1.95-4.73c1.3-1.3,2.86-1.95,4.69-1.95s3.45.65,4.76,1.95c1.31,1.3,1.97,2.87,1.97,4.73s-.66,3.38-1.97,4.67c-1.31,1.28-2.9,1.92-4.76,1.92ZM1002.34,670.8l-3.5-41.62v-1.5h11.51v1.5l-3.5,41.62h-4.51Z"/>
  </g>
</svg>