<?xml version="1.0" encoding="UTF-8"?>
<svg id="Layer_1" data-name="Layer 1" xmlns="http://www.w3.org/2000/svg" xmlns:xlink="http://www.w3.org/1999/xlink" viewBox="0 0 1920 1080">
  <defs>
    <style>
      .cls-1 {
        fill: url(#linear-gradient);
      }

      .cls-1, .cls-2 {
        stroke-width: 0px;
      }

      .cls-2 {
        fill: #231f20;
      }
    </style>
    <linearGradient id="linear-gradient" x1="1441.03" y1="70.28" x2="473.4" y2="1015.17" gradientUnits="userSpaceOnUse">
      <stop offset="0" stop-color="#ff7d61"/>
      <stop offset="1" stop-color="#9c4157"/>
    </linearGradient>
  </defs>
  <rect class="cls-1" x="0" width="1920" height="1080"/>
  <g>
    <path class="cls-2" d="M802.04,83.08v53.92h-3.28v-58h4.4l36.32,53.92v-53.92h3.28v58h-4.4l-36.32-53.92Z"/>
    <path class="cls-2" d="M891.72,115.64c0,15.2-8.64,22.4-19.28,22.4s-19.2-7.2-19.2-22.4,8.64-22.4,19.2-22.4,19.28,7.28,19.28,22.4ZM888.36,115.64c0-13.04-6.72-19.52-15.92-19.52s-15.92,6.48-15.92,19.52,6.72,19.52,15.92,19.52,15.92-6.4,15.92-19.52Z"/>
    <path class="cls-2" d="M915.24,96.12c-5.44,0-12.32,2.4-12.32,8.08,0,4.8,3.68,7.2,9.12,8.32l6.32,1.2c7.6,1.52,14.64,4.16,14.64,11.84,0,8.24-7.76,12.48-16.8,12.48-9.76,0-16.08-5.12-17.52-13.6h3.28c1.44,6.64,6.24,10.72,14.64,10.72,5.92,0,13.12-2.56,13.12-9.12,0-5.84-5.04-8-11.76-9.28l-6.64-1.28c-6.88-1.36-11.6-4.88-11.6-11.12,0-6.72,7.36-11.12,15.92-11.12s14.96,4.4,16.32,11.84h-3.2c-1.6-6.48-6.88-8.96-13.52-8.96Z"/>
    <path class="cls-2" d="M959.24,93.24c11.92,0,19.36,9.28,18.96,22.56h-35.44c-.08,12.96,7.76,19.36,16.88,19.36,7.6,0,12.96-3.68,14.72-10.8h3.2c-1.84,8.64-8.56,13.68-18.08,13.68-12.4,0-20-9.12-20-22.48s7.92-22.32,19.76-22.32ZM974.84,113c-.08-8.8-5.84-16.96-15.68-16.96-9.28,0-15.6,6.4-16.32,16.96h32Z"/>
    <path class="cls-2" d="M1022.68,79v58h-3.12v-9.2c-2.64,6.32-8.32,10.24-15.52,10.24-10.16,0-18.24-8.08-18.24-22.4s8.08-22.4,18.24-22.4c7.2,0,12.88,3.92,15.52,10.24v-24.48h3.12ZM989.08,115.64c0,12.64,6.88,19.52,15.36,19.52,7.44,0,15.44-5.44,15.44-19.52s-8-19.52-15.44-19.52c-8.48,0-15.36,6.88-15.36,19.52Z"/>
    <path class="cls-2" d="M1038.92,86.68h-3.12v-7.68h3.12v7.68ZM1038.92,137h-3.12v-43.04h3.12v43.04Z"/>
    <path class="cls-2" d="M1079.24,93.96h3.52l-16.8,43.04h-3.12l-16.96-43.04h3.52l15.04,38.88,14.8-38.88Z"/>
    <path class="cls-2" d="M1105.56,93.24c11.92,0,19.36,9.28,18.96,22.56h-35.44c-.08,12.96,7.76,19.36,16.88,19.36,7.6,0,12.96-3.68,14.72-10.8h3.2c-1.84,8.64-8.56,13.68-18.08,13.68-12.4,0-20-9.12-20-22.48s7.92-22.32,19.76-22.32ZM1121.16,113c-.08-8.8-5.84-16.96-15.68-16.96-9.28,0-15.6,6.4-16.32,16.96h32Z"/>
    <path class="cls-2" d="M779.81,271c10.72,0,19.04,3.12,19.04,14.32,0,6.4-2.08,10.8-8.88,13.2,7.2,1.52,11.36,5.68,11.36,14.24,0,11.6-8.16,16.24-19.44,16.24h-22.72v-58h20.64ZM781.01,297.4c8.72,0,14.4-3.12,14.4-11.84s-6.08-11.6-15.12-11.6h-17.84v23.44h18.56ZM781.81,325.96c10.72,0,16-4.72,16-13.12,0-8.88-5.36-12.48-16.48-12.48h-18.88v25.6h19.36Z"/>
    <path class="cls-2" d="M811.64,329v-58h3.12v58h-3.12Z"/>
    <path class="cls-2" d="M839.4,330.04c-7.6,0-14.4-4.24-14.4-11.44,0-10.16,10.24-12.88,30.88-15.36v-2.48c0-11.2-6.4-12.96-13.04-12.96-8.56,0-12.64,4.88-13.2,10.64h-3.36c.8-7.76,7.04-13.52,16.64-13.52s16.08,3.6,16.08,15.84c0,4.16-.08,9.84-.08,13.44,0,5.36.16,9.92.48,14.8h-3.04l-.32-8.32c-2.72,6.24-8.64,9.36-16.64,9.36ZM828.36,318.44c0,5.44,5.12,8.72,11.76,8.72,7.92,0,15.92-4.16,15.92-16.72v-4.32c-20.72,2.4-27.68,5.04-27.68,12.32Z"/>
    <path class="cls-2" d="M901.88,299.72c-1.6-7.2-7.2-11.6-14.72-11.6-9.36,0-15.84,7.28-15.84,19.52,0,13.44,7.28,19.52,15.76,19.52s13.6-4.88,14.96-11.52h3.28c-1.76,8.72-8.64,14.4-18.32,14.4-12.24,0-18.96-9.12-18.96-22.32s7.04-22.48,19.36-22.48c9.6,0,16.16,6.32,17.68,14.48h-3.2Z"/>
    <path class="cls-2" d="M917.8,309.72l22.64-23.76h3.76l-16.96,17.84,18.96,25.2h-3.76l-17.28-23.04-7.36,7.76v15.28h-3.12v-58h3.12v38.72Z"/>
    <path class="cls-2" d="M975.32,274.2v54.8h-3.28v-58h5.36l22.08,54.16,22.08-54.16h5.36v58h-3.28v-54.8l-22.56,54.8h-3.2l-22.56-54.8Z"/>
    <path class="cls-2" d="M1043.48,278.68h-3.12v-7.68h3.12v7.68ZM1043.48,329h-3.12v-43.04h3.12v43.04Z"/>
    <path class="cls-2" d="M1072.2,289c-10.08,0-12.56,8.24-12.56,20.24v19.76h-3.04v-43.04h2.88v9.28c1.68-5.36,6.16-9.52,13.12-9.52h1.12v3.28h-1.52Z"/>
    <path class="cls-2" d="M1096.2,289c-10.08,0-12.56,8.24-12.56,20.24v19.76h-3.04v-43.04h2.88v9.28c1.68-5.36,6.16-9.52,13.12-9.52h1.12v3.28h-1.52Z"/>
    <path class="cls-2" d="M1140.12,307.64c0,15.2-8.64,22.4-19.28,22.4s-19.2-7.2-19.2-22.4,8.64-22.4,19.2-22.4,19.28,7.28,19.28,22.4ZM1136.76,307.64c0-13.04-6.72-19.52-15.92-19.52s-15.92,6.48-15.92,19.52,6.72,19.52,15.92,19.52,15.92-6.4,15.92-19.52Z"/>
    <path class="cls-2" d="M1165.88,289c-10.08,0-12.56,8.24-12.56,20.24v19.76h-3.04v-43.04h2.88v9.28c1.68-5.36,6.16-9.52,13.12-9.52h1.12v3.28h-1.52Z"/>
    <path class="cls-2" d="M678.17,381.64h-3.44c-2.08-8.48-8.96-12.56-18.32-12.56-7.6,0-16.24,2.96-16.24,10.88,0,6.8,5.68,10.32,12.96,12l7.12,1.6c8.48,2,19.12,5.36,19.12,16.08s-10.4,16.4-21.44,16.4c-12.48,0-21.04-6.24-23.04-18.32h3.44c2.32,10.88,9.84,15.2,19.44,15.2,7.36,0,18.16-2.72,18.16-12.8,0-7.92-7.44-11.36-16.24-13.36l-7.6-1.68c-7.44-1.76-15.36-5.68-15.36-14.88,0-10.08,10.64-14.24,19.92-14.24,11.2,0,19.44,5.36,21.52,15.68Z"/>
    <path class="cls-2" d="M705.53,381.24c11.92,0,19.36,9.28,18.96,22.56h-35.44c-.08,12.96,7.76,19.36,16.88,19.36,7.6,0,12.96-3.68,14.72-10.8h3.2c-1.84,8.64-8.56,13.68-18.08,13.68-12.4,0-20-9.12-20-22.48s7.92-22.32,19.76-22.32ZM721.13,401c-.08-8.8-5.84-16.96-15.68-16.96-9.28,0-15.6,6.4-16.32,16.96h32Z"/>
    <path class="cls-2" d="M750.24,385c-10.08,0-12.56,8.24-12.56,20.24v19.76h-3.04v-43.04h2.88v9.28c1.68-5.36,6.16-9.52,13.12-9.52h1.12v3.28h-1.52Z"/>
    <path class="cls-2" d="M761.76,374.68h-3.12v-7.68h3.12v7.68ZM761.76,425h-3.12v-43.04h3.12v43.04Z"/>
    <path class="cls-2" d="M791.68,381.24c11.92,0,19.36,9.28,18.96,22.56h-35.44c-.08,12.96,7.76,19.36,16.88,19.36,7.6,0,12.96-3.68,14.72-10.8h3.2c-1.84,8.64-8.56,13.68-18.08,13.68-12.4,0-20-9.12-20-22.48s7.92-22.32,19.76-22.32ZM807.28,401c-.08-8.8-5.84-16.96-15.68-16.96-9.28,0-15.6,6.4-16.32,16.96h32Z"/>
    <path class="cls-2" d="M834.32,384.12c-5.44,0-12.32,2.4-12.32,8.08,0,4.8,3.68,7.2,9.12,8.32l6.32,1.2c7.6,1.52,14.64,4.16,14.64,11.84,0,8.24-7.76,12.48-16.8,12.48-9.76,0-16.08-5.12-17.52-13.6h3.28c1.44,6.64,6.24,10.72,14.64,10.72,5.92,0,13.12-2.56,13.12-9.12,0-5.84-5.04-8-11.76-9.28l-6.64-1.28c-6.88-1.36-11.6-4.88-11.6-11.12,0-6.72,7.36-11.12,15.92-11.12s14.96,4.4,16.32,11.84h-3.2c-1.6-6.48-6.88-8.96-13.52-8.96Z"/>
    <path class="cls-2" d="M894.16,395.96h-.88v-2.72h.56c11.76,0,17.04-4.96,17.04-12.64,0-7.04-6.24-11.84-14.8-11.84s-14.96,4.48-16.4,13.28h-3.28c1.6-10,8.8-16.08,19.92-16.08,10.16,0,17.92,5.36,17.92,14.4,0,7.76-5.2,12.72-11.6,14.08,7.36,1.12,13.04,5.68,13.04,14.88,0,11.04-9.36,16.72-20.08,16.72-11.36,0-18.8-6.72-20.32-16.8h3.28c1.92,9.6,8.48,13.92,17.04,13.92,9.36,0,16.72-4.96,16.72-13.68,0-9.6-7.28-13.52-18.16-13.52Z"/>
    <path class="cls-2" d="M929.2,425c0,6.96-.32,11.6-5.84,12.24v-3.12c2.4-.72,2.72-2.32,2.72-9.04v-8.4h3.12v8.32Z"/>
    <path class="cls-2" d="M999.04,367v3.12h-33.04v23.28h31.04v3.04h-31.04v25.44h33.04v3.12h-36.32v-58h36.32Z"/>
    <path class="cls-2" d="M1011.6,391.48c2.64-6.32,8.32-10.24,15.52-10.24,10.16,0,18.24,8.16,18.24,22.4s-8.08,22.4-18.24,22.4c-7.2,0-12.88-3.92-15.52-10.24v23.2h-3.12v-57.04h3.12v9.52ZM1042.08,403.64c0-12.64-6.88-19.52-15.36-19.52-7.44,0-15.44,5.52-15.44,19.52s8,19.52,15.44,19.52c8.48,0,15.36-6.88,15.36-19.52Z"/>
    <path class="cls-2" d="M1058.64,374.68h-3.12v-7.68h3.12v7.68ZM1058.64,425h-3.12v-43.04h3.12v43.04Z"/>
    <path class="cls-2" d="M1085.12,384.12c-5.44,0-12.32,2.4-12.32,8.08,0,4.8,3.68,7.2,9.12,8.32l6.32,1.2c7.6,1.52,14.64,4.16,14.64,11.84,0,8.24-7.76,12.48-16.8,12.48-9.76,0-16.08-5.12-17.52-13.6h3.28c1.44,6.64,6.24,10.72,14.64,10.72,5.92,0,13.12-2.56,13.12-9.12,0-5.84-5.04-8-11.76-9.28l-6.64-1.28c-6.88-1.36-11.6-4.88-11.6-11.12,0-6.72,7.36-11.12,15.92-11.12s14.96,4.4,16.32,11.84h-3.2c-1.6-6.48-6.88-8.96-13.52-8.96Z"/>
    <path class="cls-2" d="M1147.84,403.64c0,15.2-8.64,22.4-19.28,22.4s-19.2-7.2-19.2-22.4,8.64-22.4,19.2-22.4,19.28,7.28,19.28,22.4ZM1144.48,403.64c0-13.04-6.72-19.52-15.92-19.52s-15.92,6.48-15.92,19.52,6.72,19.52,15.92,19.52,15.92-6.4,15.92-19.52Z"/>
    <path class="cls-2" d="M1191.92,367v58h-3.12v-9.2c-2.64,6.32-8.32,10.24-15.52,10.24-10.16,0-18.24-8.08-18.24-22.4s8.08-22.4,18.24-22.4c7.2,0,12.88,3.92,15.52,10.24v-24.48h3.12ZM1158.32,403.64c0,12.64,6.88,19.52,15.36,19.52,7.44,0,15.44-5.44,15.44-19.52s-8-19.52-15.44-19.52c-8.48,0-15.36,6.88-15.36,19.52Z"/>
    <path class="cls-2" d="M1221.84,381.24c11.92,0,19.36,9.28,18.96,22.56h-35.44c-.08,12.96,7.76,19.36,16.88,19.36,7.6,0,12.96-3.68,14.72-10.8h3.2c-1.84,8.64-8.56,13.68-18.08,13.68-12.4,0-20-9.12-20-22.48s7.92-22.32,19.76-22.32ZM1237.44,401c-.08-8.8-5.84-16.96-15.68-16.96-9.28,0-15.6,6.4-16.32,16.96h32Z"/>
    <path class="cls-2" d="M1277.19,377.56h-12.4v-2.32c10.16,0,11.68-1.36,13.2-8.24h2.32v58h-3.12v-47.44Z"/>
    <path class="cls-2" d="M608.37,587.96c0,22.4-13.04,29.04-31.52,29.04h-13.52v-58h13.52c18.48,0,31.52,6.64,31.52,28.96ZM566.61,561.96v52h9.92c14.08,0,28.32-3.36,28.32-26s-14.24-26-28.32-26h-9.92Z"/>
    <path class="cls-2" d="M621.41,566.68h-3.12v-7.68h3.12v7.68ZM621.41,617h-3.12v-43.04h3.12v43.04Z"/>
    <path class="cls-2" d="M650.12,577c-10.08,0-12.56,8.24-12.56,20.24v19.76h-3.04v-43.04h2.88v9.28c1.68-5.36,6.16-9.52,13.12-9.52h1.12v3.28h-1.52Z"/>
    <path class="cls-2" d="M675.32,573.24c11.92,0,19.36,9.28,18.96,22.56h-35.44c-.08,12.96,7.76,19.36,16.88,19.36,7.6,0,12.96-3.68,14.72-10.8h3.2c-1.84,8.64-8.56,13.68-18.08,13.68-12.4,0-20-9.12-20-22.48s7.92-22.32,19.76-22.32ZM690.92,593c-.08-8.8-5.84-16.96-15.68-16.96-9.28,0-15.6,6.4-16.32,16.96h32Z"/>
    <path class="cls-2" d="M735.72,587.72c-1.6-7.2-7.2-11.6-14.72-11.6-9.36,0-15.84,7.28-15.84,19.52,0,13.44,7.28,19.52,15.76,19.52s13.6-4.88,14.96-11.52h3.28c-1.76,8.72-8.64,14.4-18.32,14.4-12.24,0-18.96-9.12-18.96-22.32s7.04-22.48,19.36-22.48c9.6,0,16.16,6.32,17.68,14.48h-3.2Z"/>
    <path class="cls-2" d="M753.72,563.8v10.16h8.96v2.72h-8.96v29.44c0,6.72.24,8,6.96,8h2v2.88h-3.04c-7.44,0-8.96-1.6-8.96-9.76v-30.56h-7.6v-2.72h7.6v-10.16h3.04Z"/>
    <path class="cls-2" d="M788.36,573.24c11.92,0,19.36,9.28,18.96,22.56h-35.44c-.08,12.96,7.76,19.36,16.88,19.36,7.6,0,12.96-3.68,14.72-10.8h3.2c-1.84,8.64-8.56,13.68-18.08,13.68-12.4,0-20-9.12-20-22.48s7.92-22.32,19.76-22.32ZM803.96,593c-.08-8.8-5.84-16.96-15.68-16.96-9.28,0-15.6,6.4-16.32,16.96h32Z"/>
    <path class="cls-2" d="M851.8,559v58h-3.12v-9.2c-2.64,6.32-8.32,10.24-15.52,10.24-10.16,0-18.24-8.08-18.24-22.4s8.08-22.4,18.24-22.4c7.2,0,12.88,3.92,15.52,10.24v-24.48h3.12ZM818.2,595.64c0,12.64,6.88,19.52,15.36,19.52,7.44,0,15.44-5.44,15.44-19.52s-8-19.52-15.44-19.52c-8.48,0-15.36,6.88-15.36,19.52Z"/>
    <path class="cls-2" d="M887,583.48c2.64-6.32,8.32-10.24,15.52-10.24,10.16,0,18.24,8.16,18.24,22.4s-8.08,22.4-18.24,22.4c-7.2,0-12.88-3.92-15.52-10.24v9.2h-3.12v-58h3.12v24.48ZM917.48,595.64c0-12.64-6.88-19.52-15.36-19.52-7.44,0-15.44,5.52-15.44,19.52s8,19.52,15.44,19.52c8.48,0,15.36-6.88,15.36-19.52Z"/>
    <path class="cls-2" d="M928.04,628.2h2.48c4.88,0,6-.32,8.8-7.36l1.52-3.92-17.04-42.96h3.52l15.04,38.8,14.8-38.8h3.52l-18.48,47.28c-3.2,8.08-4.64,9.76-11.76,9.76h-2.4v-2.8Z"/>
    <path class="cls-2" d="M1015.4,559v37.76c0,16.16-8,21.28-17.28,21.28s-16.96-4.8-17.2-20.32h3.28c0,14.64,7.84,17.2,13.92,17.2s14-2.64,14-17.28v-38.64h3.28Z"/>
    <path class="cls-2" d="M1064.28,595.64c0,15.2-8.64,22.4-19.28,22.4s-19.2-7.2-19.2-22.4,8.64-22.4,19.2-22.4,19.28,7.28,19.28,22.4ZM1060.92,595.64c0-13.04-6.72-19.52-15.92-19.52s-15.92,6.48-15.92,19.52,6.72,19.52,15.92,19.52,15.92-6.4,15.92-19.52Z"/>
    <path class="cls-2" d="M1091.24,573.24c11.92,0,19.36,9.28,18.96,22.56h-35.44c-.08,12.96,7.76,19.36,16.88,19.36,7.6,0,12.96-3.68,14.72-10.8h3.2c-1.84,8.64-8.56,13.68-18.08,13.68-12.4,0-20-9.12-20-22.48s7.92-22.32,19.76-22.32ZM1106.84,593c-.08-8.8-5.84-16.96-15.68-16.96-9.28,0-15.6,6.4-16.32,16.96h32Z"/>
    <path class="cls-2" d="M1203.4,559h3.6l-17.52,58h-3.44l-14.96-52.72-14.88,52.72h-3.44l-17.6-58h3.6l15.76,53.28,14.72-53.28h3.68l14.96,53.28,15.52-53.28Z"/>
    <path class="cls-2" d="M1230.76,577c-10.08,0-12.56,8.24-12.56,20.24v19.76h-3.04v-43.04h2.88v9.28c1.68-5.36,6.16-9.52,13.12-9.52h1.12v3.28h-1.52Z"/>
    <path class="cls-2" d="M1242.28,566.68h-3.12v-7.68h3.12v7.68ZM1242.28,617h-3.12v-43.04h3.12v43.04Z"/>
    <path class="cls-2" d="M1270.67,616.28c-10.16,0-18.24-8.08-18.24-21.52s8.08-21.52,18.24-21.52c7.2,0,12.88,3.92,15.52,10.16v-9.44h3.2v40.88c0,13.28-8.32,17.2-17.84,17.2s-16.16-4.88-16.96-12.64h3.28c.64,5.12,5.12,9.84,13.68,9.84,7.12,0,14.64-2.56,14.64-13.44v-9.68c-2.64,6.32-8.32,10.16-15.52,10.16ZM1255.71,594.76c0,11.84,6.88,18.72,15.36,18.72,7.44,0,15.44-5.52,15.44-18.72s-8-18.64-15.44-18.64c-8.48,0-15.36,6.88-15.36,18.64Z"/>
    <path class="cls-2" d="M1320.75,573.24c10.24,0,14.4,6.08,14.4,16.16v27.6h-3.12v-26.56c0-8.24-2.4-14.32-11.92-14.32s-14.56,7.84-14.56,19.76v21.12h-3.12v-58h3.12v24.88c1.76-5.04,6.16-10.64,15.2-10.64Z"/>
    <path class="cls-2" d="M1352.27,563.8v10.16h8.96v2.72h-8.96v29.44c0,6.72.24,8,6.96,8h2v2.88h-3.04c-7.44,0-8.96-1.6-8.96-9.76v-30.56h-7.6v-2.72h7.6v-10.16h3.04Z"/>
    <path class="cls-2" d="M741.81,847h3.6l-17.52,58h-3.44l-14.96-52.72-14.88,52.72h-3.44l-17.6-58h3.6l15.76,53.28,14.72-53.28h3.68l14.96,53.28,15.52-53.28Z"/>
    <path class="cls-2" d="M763.08,906.04c-7.6,0-14.4-4.24-14.4-11.44,0-10.16,10.24-12.88,30.88-15.36v-2.48c0-11.2-6.4-12.96-13.04-12.96-8.56,0-12.64,4.88-13.2,10.64h-3.36c.8-7.76,7.04-13.52,16.64-13.52s16.08,3.6,16.08,15.84c0,4.16-.08,9.84-.08,13.44,0,5.36.16,9.92.48,14.8h-3.04l-.32-8.32c-2.72,6.24-8.64,9.36-16.64,9.36ZM752.04,894.44c0,5.44,5.12,8.72,11.76,8.72,7.92,0,15.92-4.16,15.92-16.72v-4.32c-20.72,2.4-27.68,5.04-27.68,12.32Z"/>
    <path class="cls-2" d="M799.88,851.8v10.16h8.96v2.72h-8.96v29.44c0,6.72.24,8,6.96,8h2v2.88h-3.04c-7.44,0-8.96-1.6-8.96-9.76v-30.56h-7.6v-2.72h7.6v-10.16h3.04Z"/>
    <path class="cls-2" d="M848.6,875.72c-1.6-7.2-7.2-11.6-14.72-11.6-9.36,0-15.84,7.28-15.84,19.52,0,13.44,7.28,19.52,15.76,19.52s13.6-4.88,14.96-11.52h3.28c-1.76,8.72-8.64,14.4-18.32,14.4-12.24,0-18.96-9.12-18.96-22.32s7.04-22.48,19.36-22.48c9.6,0,16.16,6.32,17.68,14.48h-3.2Z"/>
    <path class="cls-2" d="M879.72,861.24c10.24,0,14.4,6.08,14.4,16.16v27.6h-3.12v-26.56c0-8.24-2.4-14.32-11.92-14.32s-14.56,7.84-14.56,19.76v21.12h-3.12v-58h3.12v24.88c1.76-5.04,6.16-10.64,15.2-10.64Z"/>
    <path class="cls-2" d="M960.52,883.64c0,15.2-8.64,22.4-19.28,22.4s-19.2-7.2-19.2-22.4,8.64-22.4,19.2-22.4,19.28,7.28,19.28,22.4ZM957.16,883.64c0-13.04-6.72-19.52-15.92-19.52s-15.92,6.48-15.92,19.52,6.72,19.52,15.92,19.52,15.92-6.4,15.92-19.52Z"/>
    <path class="cls-2" d="M989,861.24c10.24,0,14.4,6.08,14.4,16.16v27.6h-3.12v-26.56c0-8.24-2.4-14.32-11.92-14.32s-14.56,7.84-14.56,19.76v21.12h-3.12v-43.04h3.12v9.92c1.76-5.04,6.16-10.64,15.2-10.64Z"/>
    <path class="cls-2" d="M1037.88,851.08v53.92h-3.28v-58h4.4l36.32,53.92v-53.92h3.28v58h-4.4l-36.32-53.92Z"/>
    <path class="cls-2" d="M1108.84,861.24c11.92,0,19.36,9.28,18.96,22.56h-35.44c-.08,12.96,7.76,19.36,16.88,19.36,7.6,0,12.96-3.68,14.72-10.8h3.2c-1.84,8.64-8.56,13.68-18.08,13.68-12.4,0-20-9.12-20-22.48s7.92-22.32,19.76-22.32ZM1124.44,881c-.08-8.8-5.84-16.96-15.68-16.96-9.28,0-15.6,6.4-16.32,16.96h32Z"/>
    <path class="cls-2" d="M1143.16,851.8v10.16h8.96v2.72h-8.96v29.44c0,6.72.24,8,6.96,8h2v2.88h-3.04c-7.44,0-8.96-1.6-8.96-9.76v-30.56h-7.6v-2.72h7.6v-10.16h3.04Z"/>
    <path class="cls-2" d="M1172.2,847h2.64v2.8h-1.52c-6.64,0-7.36,1.04-7.36,7.2v4.96h8.88v2.72h-8.88v40.32h-3.12v-40.32h-6.32v-2.72h6.32v-5.6c0-6.96,1.6-9.36,9.36-9.36Z"/>
    <path class="cls-2" d="M1182.84,905v-58h3.12v58h-3.12Z"/>
    <path class="cls-2" d="M1202.2,854.68h-3.12v-7.68h3.12v7.68ZM1202.2,905h-3.12v-43.04h3.12v43.04Z"/>
    <path class="cls-2" d="M1247.24,905h-3.84l-14.72-19.68-14.64,19.68h-3.68l16.48-22.16-15.52-20.88h3.76l13.68,18.4,13.68-18.4h3.68l-15.52,20.8,16.64,22.24Z"/>
  </g>
</svg>