<?xml version="1.0" encoding="UTF-8"?>
<svg id="Layer_1" data-name="Layer 1" xmlns="http://www.w3.org/2000/svg" xmlns:xlink="http://www.w3.org/1999/xlink" viewBox="0 0 1920 1080">
  <defs>
    <style>
      .cls-1 {
        fill: url(#linear-gradient);
      }

      .cls-1, .cls-2 {
        stroke-width: 0px;
      }

      .cls-2 {
        fill: #770f34;
      }
    </style>
    <linearGradient id="linear-gradient" x1="1441.03" y1="70.28" x2="473.4" y2="1015.17" gradientUnits="userSpaceOnUse">
      <stop offset="0" stop-color="#ff7d61"/>
      <stop offset="1" stop-color="#9c4157"/>
    </linearGradient>
  </defs>
  <rect class="cls-1" width="1920" height="1080"/>
  <g>
    <path class="cls-2" d="M760.71,504.36l33.32-56.98h6.58l-37.1,63.14v38.36h-5.74v-38.5l-36.26-63h6.44l32.76,56.98Z"/>
    <path class="cls-2" d="M801.59,498.06c0-30.8,17.5-52.5,46.2-52.5s46.34,21,46.34,52.5-18.06,52.64-46.34,52.64-46.2-21.84-46.2-52.64ZM887.97,498.06c0-30.1-17.22-47.04-40.18-47.04s-40.04,16.94-40.04,47.04,17.22,47.18,40.04,47.18,40.18-17.08,40.18-47.18Z"/>
    <path class="cls-2" d="M910.51,447.38h5.74v61.32c0,24.5,8.96,36.54,33.04,36.54s33.04-12.04,33.04-36.54v-61.32h5.74v60.34c0,30.52-11.48,42.98-38.78,42.98s-38.78-12.46-38.78-42.98v-60.34Z"/>
    <path class="cls-2" d="M1017.47,461.94c0,12.18-.56,20.3-10.22,21.42v-5.46c4.2-1.26,4.76-4.06,4.76-15.82v-14.7h5.46v14.56Z"/>
    <path class="cls-2" d="M1075.29,541.17l35-93.8h6.16l-38.36,101.5h-6.02l-38.36-101.5h6.3l35.28,93.8Z"/>
    <path class="cls-2" d="M1193.45,447.38v5.46h-57.82v40.74h54.32v5.32h-54.32v44.52h57.82v5.46h-63.56v-101.5h63.56Z"/>
    <path class="cls-2" d="M830.78,615.38c18.76,0,33.32,5.46,33.32,25.06,0,11.2-3.64,18.9-15.54,23.1,12.6,2.66,19.88,9.94,19.88,24.92,0,20.3-14.28,28.42-34.02,28.42h-39.76v-101.5h36.12ZM832.88,661.58c15.26,0,25.2-5.46,25.2-20.72s-10.64-20.3-26.46-20.3h-31.22v41.02h32.48ZM834.28,711.55c18.76,0,28-8.26,28-22.96,0-15.54-9.38-21.84-28.84-21.84h-33.04v44.8h33.88Z"/>
    <path class="cls-2" d="M950.62,615.38v5.46h-57.82v40.74h54.32v5.32h-54.32v44.52h57.82v5.46h-63.56v-101.5h63.56Z"/>
    <path class="cls-2" d="M1031.26,615.38v5.46h-57.82v40.74h54.32v5.32h-54.32v44.52h57.82v5.46h-63.56v-101.5h63.56Z"/>
    <path class="cls-2" d="M1054.08,622.52v94.36h-5.74v-101.5h7.7l63.56,94.36v-94.36h5.74v101.5h-7.7l-63.56-94.36Z"/>
    <path class="cls-2" d="M791.65,837.98h-24.36v46.9h-5.74v-101.5h30.24c23.24,0,39.9,4.2,39.9,27.02,0,17.08-9.38,24.08-23.94,26.46l25.48,48.02h-6.44l-24.92-47.18c-3.22.28-6.58.28-10.22.28ZM767.29,832.79h24.22c19.18,0,34.02-2.52,34.02-22.12s-14.84-22.12-34.02-22.12h-24.22v44.24Z"/>
    <path class="cls-2" d="M885.73,783.38l39.34,101.5h-6.16l-10.64-27.58h-51.24l-10.5,27.58h-6.02l39.2-101.5h6.02ZM906.17,851.83l-23.52-61.6-23.52,61.6h47.04Z"/>
    <path class="cls-2" d="M916.39,788.83v-5.46h76.72v5.46h-35.56v96.04h-5.74v-96.04h-35.42Z"/>
    <path class="cls-2" d="M1068.71,783.38v5.46h-57.82v40.74h54.32v5.32h-54.32v44.52h57.82v5.46h-63.56v-101.5h63.56Z"/>
    <path class="cls-2" d="M1164.61,834.06c0,39.2-22.82,50.82-55.16,50.82h-23.66v-101.5h23.66c32.34,0,55.16,11.62,55.16,50.68ZM1091.53,788.56v91h17.36c24.64,0,49.56-5.88,49.56-45.5s-24.92-45.5-49.56-45.5h-17.36Z"/>
  </g>
  <g>
    <path class="cls-2" d="M860.62,1013.99c-7.49,0-11.63-5.79-11.63-13.53s4.18-13.5,11.7-13.5c5.54,0,9.65,2.95,10.76,8.24h-1.55c-1.08-4.68-4.79-6.84-9.25-6.84-6.01,0-10.08,4.68-10.08,12.09s4.03,12.13,10.04,12.13c5,0,8.42-2.59,9.39-6.84h1.55c-1.12,5.29-5.26,8.24-10.94,8.24Z"/>
    <path class="cls-2" d="M891.76,1012.12v1.4h-15.91v-26.1h1.48v24.69h14.43Z"/>
    <path class="cls-2" d="M894.86,1013.53v-26.1h1.48v26.1h-1.48Z"/>
    <path class="cls-2" d="M912.57,1013.99c-7.49,0-11.63-5.79-11.63-13.53s4.18-13.5,11.7-13.5c5.54,0,9.65,2.95,10.76,8.24h-1.55c-1.08-4.68-4.79-6.84-9.25-6.84-6.01,0-10.08,4.68-10.08,12.09s4.03,12.13,10.04,12.13c5,0,8.42-2.59,9.39-6.84h1.55c-1.12,5.29-5.26,8.24-10.94,8.24Z"/>
    <path class="cls-2" d="M943.78,987.43h1.87l-10.51,10.58,11.12,15.51h-1.84l-10.33-14.43-4.82,4.82v9.61h-1.48v-26.1h1.48v14.54l14.51-14.54Z"/>
    <path class="cls-2" d="M954.69,988.83v-1.4h19.73v1.4h-9.14v24.69h-1.48v-24.69h-9.11Z"/>
    <path class="cls-2" d="M974.85,1000.46c0-7.92,4.5-13.5,11.88-13.5s11.91,5.4,11.91,13.5-4.64,13.53-11.91,13.53-11.88-5.62-11.88-13.53ZM997.06,1000.46c0-7.74-4.43-12.09-10.33-12.09s-10.29,4.36-10.29,12.09,4.43,12.13,10.29,12.13,10.33-4.39,10.33-12.13Z"/>
    <path class="cls-2" d="M1029.24,994.02h-1.55c-.94-3.82-4.03-5.65-8.24-5.65-3.42,0-7.31,1.33-7.31,4.9,0,3.06,2.56,4.64,5.83,5.4l3.2.72c3.82.9,8.6,2.41,8.6,7.24s-4.68,7.38-9.65,7.38c-5.62,0-9.47-2.81-10.37-8.24h1.55c1.04,4.9,4.43,6.84,8.75,6.84,3.31,0,8.17-1.22,8.17-5.76,0-3.56-3.35-5.11-7.31-6.01l-3.42-.76c-3.35-.79-6.91-2.56-6.91-6.7,0-4.54,4.79-6.41,8.96-6.41,5.04,0,8.75,2.41,9.68,7.05Z"/>
    <path class="cls-2" d="M1050.48,987.43v1.4h-14.87v10.48h13.97v1.37h-13.97v11.45h14.87v1.4h-16.34v-26.1h16.34Z"/>
    <path class="cls-2" d="M1071.22,987.43v1.4h-14.87v10.48h13.97v1.37h-13.97v11.45h14.87v1.4h-16.34v-26.1h16.34Z"/>
  </g>
  <g>
    <path class="cls-2" d="M870.11,225.76h-1.98v-6.12h1.26c26.46,0,38.34-11.16,38.34-28.44,0-15.84-14.04-26.64-33.3-26.64s-33.66,10.08-36.9,29.88h-7.38c3.6-22.5,19.8-36.18,44.82-36.18,22.86,0,40.32,12.06,40.32,32.4,0,17.46-11.7,28.62-26.1,31.68,16.56,2.52,29.34,12.78,29.34,33.48,0,24.84-21.06,37.62-45.18,37.62-25.56,0-42.3-15.12-45.72-37.8h7.38c4.32,21.6,19.08,31.32,38.34,31.32,21.06,0,37.62-11.16,37.62-30.78,0-21.6-16.38-30.42-40.86-30.42Z"/>
    <path class="cls-2" d="M941.93,272.37h7.02v18.72h-7.02v-18.72Z"/>
    <path class="cls-2" d="M986.57,284.25h80.46v6.84h-90v-7.02c51.12-38.16,78.12-64.8,78.12-91.26,0-19.08-14.58-28.26-31.5-28.26s-34.74,8.28-36,35.64h-7.38c1.44-28.44,19.08-41.94,43.38-41.94s39.06,12.24,39.06,34.02c0,28.44-27,55.98-76.14,91.98Z"/>
    <path class="cls-2" d="M1095.04,258.91c-6.55,0-11.74,3.02-14.04,7.78l-2.59-.36,3.6-27.43h28.95v2.81h-26.5l-2.88,20.67c2.45-3.17,7.42-6.05,14.11-6.05,10.01,0,17.42,6.84,17.42,18s-8.35,17.71-18.22,17.71-16.92-5.83-18.29-15.12h2.95c1.51,8.71,7.63,12.53,15.34,12.53,8.35,0,15.19-5.54,15.19-15.12s-6.55-15.41-15.05-15.41Z"/>
    <path class="cls-2" d="M1128.59,248.39h-11.16v-2.09c9.14,0,10.51-1.22,11.88-7.42h2.09v52.2h-2.81v-42.7Z"/>
  </g>
</svg>