<?xml version="1.0" encoding="UTF-8"?>
<svg id="Layer_1" data-name="Layer 1" xmlns="http://www.w3.org/2000/svg" xmlns:xlink="http://www.w3.org/1999/xlink" viewBox="0 0 1920 1080">
  <defs>
    <style>
      .cls-1 {
        fill: url(#linear-gradient);
      }

      .cls-1, .cls-2, .cls-3, .cls-4 {
        stroke-width: 0px;
      }

      .cls-2 {
        fill: #873059;
      }

      .cls-3 {
        fill: #770f34;
      }

      .cls-4 {
        fill: #e3d9b5;
      }
    </style>
    <linearGradient id="linear-gradient" x1="1441.03" y1="70.28" x2="473.4" y2="1015.17" gradientUnits="userSpaceOnUse">
      <stop offset="0" stop-color="#ff7d61"/>
      <stop offset="1" stop-color="#9c4157"/>
    </linearGradient>
  </defs>
  <rect class="cls-1" width="1920" height="1080"/>
  <g>
    <path class="cls-3" d="M866.89,184.36h-27.9v-5.22c22.86,0,26.28-3.06,29.7-18.54h5.22v130.5h-7.02v-106.74Z"/>
    <path class="cls-3" d="M907.39,272.37h7.02v18.72h-7.02v-18.72Z"/>
    <path class="cls-3" d="M1007.28,255.09v36h-7.2v-36h-72.36v-6.3l72.72-88.2h6.84v87.84h26.64v6.66h-26.64ZM1000.08,248.44v-77.94l-63.9,77.94h63.9Z"/>
    <path class="cls-3" d="M1059.23,237.95c13.68,0,20.02,11.09,20.02,27s-6.34,27.07-20.02,27.07-20.16-11.09-20.16-27.07,6.34-27,20.16-27ZM1059.23,240.47c-10.44,0-17.14,8.35-17.14,24.48s6.7,24.48,17.14,24.48,16.99-8.28,16.99-24.48-6.62-24.48-16.99-24.48Z"/>
    <path class="cls-3" d="M1112.3,263.01c5.47,1.73,11.09,5.54,11.09,13.83,0,9.72-7.92,15.19-18.58,15.19s-18.58-5.47-18.58-15.19c0-8.28,5.69-12.1,11.16-13.83-5.76-1.51-9.5-6.34-9.5-12.1,0-7.63,6.55-12.96,16.92-12.96s16.99,5.33,16.99,12.96c0,5.76-3.82,10.58-9.5,12.1ZM1104.81,289.44c9.36,0,15.63-4.68,15.63-12.6s-6.26-12.53-15.63-12.53-15.55,4.61-15.55,12.53,6.19,12.6,15.55,12.6ZM1090.77,251.2c0,5.91,4.75,10.73,14.04,10.73s14.04-4.82,14.04-10.73c0-6.7-5.47-10.73-14.04-10.73s-14.04,4.03-14.04,10.73Z"/>
  </g>
  <g>
    <polygon class="cls-2" points="580.75 464.83 599.81 522 661.5 522 611.59 557.33 630.66 614.51 580.75 579.17 530.84 614.51 549.91 557.33 500 522 561.69 522 580.75 464.83"/>
    <polygon class="cls-4" points="770.37 464.83 789.44 522 851.12 522 801.22 557.33 820.28 614.51 770.37 579.17 720.47 614.51 739.53 557.33 689.63 522 751.31 522 770.37 464.83"/>
    <polygon class="cls-4" points="960 464.83 979.06 522 1040.75 522 990.84 557.33 1009.91 614.51 960 579.17 910.09 614.51 929.16 557.33 879.25 522 940.94 522 960 464.83"/>
    <polygon class="cls-4" points="1149.63 464.83 1168.69 522 1230.37 522 1180.47 557.33 1199.53 614.51 1149.63 579.17 1099.72 614.51 1118.78 557.33 1068.88 522 1130.56 522 1149.63 464.83"/>
    <polygon class="cls-4" points="1339.25 464.83 1358.31 522 1420 522 1370.09 557.33 1389.16 614.51 1339.25 579.17 1289.34 614.51 1308.41 557.33 1258.5 522 1320.19 522 1339.25 464.83"/>
  </g>
</svg>