<?xml version="1.0" encoding="UTF-8"?>
<svg id="Layer_1" data-name="Layer 1" xmlns="http://www.w3.org/2000/svg" xmlns:xlink="http://www.w3.org/1999/xlink" viewBox="0 0 1807.65 768">
  <defs>
    <style>
      .cls-1 {
        fill: url(#linear-gradient);
      }

      .cls-1, .cls-2, .cls-3, .cls-4 {
        stroke-width: 0px;
      }

      .cls-2 {
        fill: #873059;
      }

      .cls-3 {
        fill: #770f34;
      }

      .cls-4 {
        fill: #e3d9b5;
      }
    </style>
    <linearGradient id="linear-gradient" x1="1316.79" y1="-21.48" x2="485.07" y2="790.7" gradientUnits="userSpaceOnUse">
      <stop offset="0" stop-color="#ff7d61"/>
      <stop offset="1" stop-color="#9c4157"/>
    </linearGradient>
  </defs>
  <rect class="cls-1" x="-.37" y="-1.46" width="1807.39" height="767.46"/>
  <g>
    <path class="cls-3" d="M821.99,129.55h-19.85v-3.71c16.27,0,18.7-2.17,21.14-13.17h3.72v92.73h-5v-75.85Z"/>
    <path class="cls-3" d="M850.81,192.1h5v13.3h-5v-13.3Z"/>
    <path class="cls-3" d="M921.9,179.82v25.58h-5.12v-25.58h-51.49v-4.48l51.75-62.67h4.87v62.42h18.96v4.73h-18.96ZM916.78,175.08v-55.38l-45.47,55.38h45.47Z"/>
    <path class="cls-3" d="M958.87,167.64c9.74,0,14.25,7.88,14.25,19.19s-4.51,19.24-14.25,19.24-14.35-7.88-14.35-19.24,4.51-19.19,14.35-19.19ZM958.87,169.43c-7.43,0-12.2,5.94-12.2,17.4s4.77,17.4,12.2,17.4,12.09-5.88,12.09-17.4-4.71-17.4-12.09-17.4Z"/>
    <path class="cls-3" d="M996.64,185.44c3.89,1.23,7.89,3.94,7.89,9.82,0,6.91-5.64,10.8-13.22,10.8s-13.22-3.89-13.22-10.8c0-5.88,4.05-8.6,7.94-9.82-4.1-1.07-6.76-4.5-6.76-8.6,0-5.42,4.66-9.21,12.04-9.21s12.09,3.79,12.09,9.21c0,4.09-2.72,7.52-6.76,8.6ZM991.31,204.22c6.66,0,11.12-3.33,11.12-8.95s-4.46-8.9-11.12-8.9-11.07,3.28-11.07,8.9,4.41,8.95,11.07,8.95ZM981.31,177.05c0,4.2,3.38,7.62,9.99,7.62s9.99-3.43,9.99-7.62c0-4.76-3.89-7.62-9.99-7.62s-9.99,2.87-9.99,7.62Z"/>
  </g>
  <g>
    <polygon class="cls-2" points="633.43 328.85 647 369.48 690.9 369.48 655.38 394.59 668.95 435.22 633.43 410.11 597.92 435.22 611.48 394.59 575.96 369.48 619.87 369.48 633.43 328.85"/>
    <polygon class="cls-4" points="768.38 328.85 781.95 369.48 825.85 369.48 790.33 394.59 803.9 435.22 768.38 410.11 732.86 435.22 746.43 394.59 710.91 369.48 754.81 369.48 768.38 328.85"/>
    <polygon class="cls-4" points="903.33 328.85 916.9 369.48 960.8 369.48 925.28 394.59 938.85 435.22 903.33 410.11 867.81 435.22 881.38 394.59 845.86 369.48 889.76 369.48 903.33 328.85"/>
    <polygon class="cls-4" points="1038.28 328.85 1051.84 369.48 1095.75 369.48 1060.23 394.59 1073.8 435.22 1038.28 410.11 1002.76 435.22 1016.33 394.59 980.81 369.48 1024.71 369.48 1038.28 328.85"/>
    <polygon class="cls-4" points="1173.23 328.85 1186.79 369.48 1230.69 369.48 1195.18 394.59 1208.74 435.22 1173.23 410.11 1137.71 435.22 1151.28 394.59 1115.76 369.48 1159.66 369.48 1173.23 328.85"/>
  </g>
</svg>