<?xml version="1.0" encoding="UTF-8"?>
<svg id="Layer_1" data-name="Layer 1" xmlns="http://www.w3.org/2000/svg" xmlns:xlink="http://www.w3.org/1999/xlink" viewBox="0 0 1809.5 767.5">
  <defs>
    <style>
      .cls-1 {
        fill: url(#linear-gradient);
      }

      .cls-1, .cls-2 {
        stroke-width: 0px;
      }

      .cls-3 {
        opacity: .94;
      }

      .cls-2 {
        fill: #dc4a64;
      }
    </style>
    <linearGradient id="linear-gradient" x1="1316.43" y1="-20.82" x2="484.56" y2="791.5" gradientUnits="userSpaceOnUse">
      <stop offset="0" stop-color="#ffccc1"/>
      <stop offset="1" stop-color="#dd9181"/>
    </linearGradient>
  </defs>
  <rect class="cls-1" x="-1.26" y="-.5" width="1808.3" height="767"/>
  <g class="cls-3">
    <path class="cls-2" d="M762.67,328.69l23.75-40.47h4.69l-26.44,44.84v27.24h-4.09v-27.34l-25.84-44.74h4.59l23.35,40.47Z"/>
    <path class="cls-2" d="M791.8,324.21c0-21.87,12.47-37.28,32.92-37.28s33.02,14.91,33.02,37.28-12.87,37.38-33.02,37.38-32.92-15.51-32.92-37.38ZM853.36,324.21c0-21.38-12.27-33.41-28.64-33.41s-28.53,12.03-28.53,33.41,12.27,33.51,28.53,33.51,28.64-12.13,28.64-33.51Z"/>
    <path class="cls-2" d="M869.42,288.22h4.09v43.55c0,17.4,6.39,25.95,23.55,25.95s23.55-8.55,23.55-25.95v-43.55h4.09v42.85c0,21.68-8.18,30.52-27.64,30.52s-27.64-8.85-27.64-30.52v-42.85Z"/>
    <path class="cls-2" d="M945.65,298.56c0,8.65-.4,14.42-7.28,15.21v-3.88c2.99-.89,3.39-2.88,3.39-11.24v-10.44h3.89v10.34Z"/>
    <path class="cls-2" d="M986.85,354.83l24.94-66.62h4.39l-27.34,72.08h-4.29l-27.34-72.08h4.49l25.14,66.62Z"/>
    <path class="cls-2" d="M1071.06,288.22v3.88h-41.21v28.93h38.71v3.78h-38.71v31.62h41.21v3.88h-45.3v-72.08h45.3Z"/>
    <path class="cls-2" d="M812.6,407.53c13.37,0,23.75,3.88,23.75,17.8,0,7.95-2.59,13.42-11.07,16.41,8.98,1.89,14.17,7.06,14.17,17.7,0,14.42-10.18,20.18-24.24,20.18h-28.34v-72.08h25.74ZM814.1,440.34c10.87,0,17.96-3.88,17.96-14.71s-7.58-14.42-18.86-14.42h-22.25v29.13h23.15ZM815.1,475.84c13.37,0,19.95-5.87,19.95-16.31,0-11.04-6.68-15.51-20.55-15.51h-23.55v31.82h24.14Z"/>
    <path class="cls-2" d="M898.01,407.53v3.88h-41.21v28.93h38.71v3.78h-38.71v31.62h41.21v3.88h-45.3v-72.08h45.3Z"/>
    <path class="cls-2" d="M955.47,407.53v3.88h-41.21v28.93h38.71v3.78h-38.71v31.62h41.21v3.88h-45.3v-72.08h45.3Z"/>
    <path class="cls-2" d="M971.74,412.6v67.01h-4.09v-72.08h5.49l45.3,67.01v-67.01h4.09v72.08h-5.49l-45.3-67.01Z"/>
    <path class="cls-2" d="M784.72,565.62h-17.36v33.31h-4.09v-72.08h21.55c16.56,0,28.43,2.98,28.43,19.19,0,12.13-6.68,17.1-17.06,18.79l18.16,34.1h-4.59l-17.76-33.51c-2.3.2-4.69.2-7.28.2ZM767.36,561.94h17.26c13.67,0,24.24-1.79,24.24-15.71s-10.58-15.71-24.24-15.71h-17.26v31.42Z"/>
    <path class="cls-2" d="M851.76,526.84l28.04,72.08h-4.39l-7.58-19.59h-36.52l-7.48,19.59h-4.29l27.94-72.08h4.29ZM866.33,575.46l-16.76-43.75-16.76,43.75h33.52Z"/>
    <path class="cls-2" d="M873.61,530.72v-3.88h54.67v3.88h-25.34v68.21h-4.09v-68.21h-25.24Z"/>
    <path class="cls-2" d="M982.16,526.84v3.88h-41.21v28.93h38.71v3.78h-38.71v31.62h41.21v3.88h-45.3v-72.08h45.3Z"/>
    <path class="cls-2" d="M1050.51,562.83c0,27.84-16.26,36.09-39.31,36.09h-16.86v-72.08h16.86c23.05,0,39.31,8.25,39.31,35.99ZM998.43,530.52v64.63h12.37c17.56,0,35.32-4.18,35.32-32.31s-17.76-32.31-35.32-32.31h-12.37Z"/>
  </g>
  <g class="cls-3">
    <path class="cls-2" d="M832,690.62c-5.34,0-8.29-4.12-8.29-9.61s2.98-9.59,8.34-9.59c3.95,0,6.88,2.1,7.67,5.85h-1.1c-.77-3.32-3.41-4.86-6.59-4.86-4.28,0-7.18,3.32-7.18,8.59s2.87,8.62,7.16,8.62c3.57,0,6-1.84,6.7-4.86h1.1c-.8,3.76-3.75,5.85-7.8,5.85Z"/>
    <path class="cls-2" d="M854.19,689.29v1h-11.34v-18.53h1.05v17.54h10.29Z"/>
    <path class="cls-2" d="M856.39,690.29v-18.53h1.05v18.53h-1.05Z"/>
    <path class="cls-2" d="M869.02,690.62c-5.34,0-8.29-4.12-8.29-9.61s2.98-9.59,8.34-9.59c3.95,0,6.88,2.1,7.67,5.85h-1.1c-.77-3.32-3.41-4.86-6.59-4.86-4.28,0-7.18,3.32-7.18,8.59s2.87,8.62,7.16,8.62c3.57,0,6-1.84,6.7-4.86h1.1c-.8,3.76-3.75,5.85-7.8,5.85Z"/>
    <path class="cls-2" d="M891.26,671.76h1.33l-7.49,7.52,7.93,11.02h-1.31l-7.36-10.25-3.44,3.43v6.83h-1.05v-18.53h1.05v10.33l10.34-10.33Z"/>
    <path class="cls-2" d="M899.03,672.75v-1h14.06v1h-6.52v17.54h-1.05v-17.54h-6.49Z"/>
    <path class="cls-2" d="M913.4,681.01c0-5.62,3.21-9.59,8.47-9.59s8.49,3.83,8.49,9.59-3.31,9.61-8.49,9.61-8.47-3.99-8.47-9.61ZM929.23,681.01c0-5.5-3.15-8.59-7.36-8.59s-7.34,3.09-7.34,8.59,3.16,8.62,7.34,8.62,7.36-3.12,7.36-8.62Z"/>
    <path class="cls-2" d="M952.17,676.44h-1.1c-.67-2.71-2.87-4.01-5.87-4.01-2.44,0-5.21.95-5.21,3.48,0,2.17,1.82,3.3,4.16,3.83l2.28.51c2.72.64,6.13,1.71,6.13,5.14s-3.34,5.24-6.88,5.24c-4,0-6.75-1.99-7.39-5.85h1.1c.74,3.48,3.15,4.86,6.23,4.86,2.36,0,5.82-.87,5.82-4.09,0-2.53-2.39-3.63-5.21-4.27l-2.44-.54c-2.39-.56-4.93-1.81-4.93-4.75,0-3.22,3.41-4.55,6.39-4.55,3.59,0,6.23,1.71,6.9,5.01Z"/>
    <path class="cls-2" d="M967.3,671.76v1h-10.59v7.44h9.95v.97h-9.95v8.13h10.59v1h-11.65v-18.53h11.65Z"/>
    <path class="cls-2" d="M982.08,671.76v1h-10.59v7.44h9.95v.97h-9.95v8.13h10.59v1h-11.65v-18.53h11.65Z"/>
  </g>
  <g class="cls-3">
    <path class="cls-2" d="M824.93,130.83h-1.41v-4.35h.9c18.86,0,27.32-7.93,27.32-20.2,0-11.25-10.01-18.92-23.73-18.92s-23.99,7.16-26.3,21.22h-5.26c2.57-15.98,14.11-25.69,31.94-25.69,16.29,0,28.73,8.56,28.73,23.01,0,12.4-8.34,20.32-18.6,22.5,11.8,1.79,20.91,9.08,20.91,23.78,0,17.64-15.01,26.72-32.2,26.72-18.21,0-30.14-10.74-32.58-26.84h5.26c3.08,15.34,13.6,22.24,27.32,22.24,15.01,0,26.81-7.93,26.81-21.86,0-15.34-11.67-21.6-29.12-21.6Z"/>
    <path class="cls-2" d="M876.11,163.94h5v13.29h-5v-13.29Z"/>
    <path class="cls-2" d="M907.92,172.37h57.34v4.86h-64.14v-4.99c36.43-27.1,55.67-46.02,55.67-64.81,0-13.55-10.39-20.07-22.45-20.07s-24.76,5.88-25.65,25.31h-5.26c1.03-20.2,13.6-29.78,30.91-29.78s27.84,8.69,27.84,24.16c0,20.2-19.24,39.75-54.26,65.32Z"/>
    <path class="cls-2" d="M985.22,154.37c-4.67,0-8.36,2.15-10.01,5.52l-1.85-.26,2.57-19.48h20.63v1.99h-18.88l-2.05,14.68c1.74-2.25,5.29-4.3,10.06-4.3,7.13,0,12.42,4.86,12.42,12.78s-5.95,12.58-12.98,12.58-12.06-4.14-13.03-10.74h2.1c1.08,6.19,5.44,8.9,10.93,8.9,5.95,0,10.83-3.94,10.83-10.74s-4.67-10.94-10.73-10.94Z"/>
    <path class="cls-2" d="M1009.13,146.91h-7.95v-1.48c6.52,0,7.49-.87,8.47-5.27h1.49v37.07h-2v-30.32Z"/>
  </g>
</svg>