<?xml version="1.0" encoding="UTF-8"?>
<svg id="Layer_1" data-name="Layer 1" xmlns="http://www.w3.org/2000/svg" xmlns:xlink="http://www.w3.org/1999/xlink" viewBox="0 0 1920 1080">
  <defs>
    <style>
      .cls-1 {
        fill: url(#linear-gradient);
      }

      .cls-1, .cls-2, .cls-3, .cls-4, .cls-5 {
        stroke-width: 0px;
      }

      .cls-2 {
        fill: #873059;
      }

      .cls-3 {
        fill: #262324;
      }

      .cls-4 {
        fill: #770f34;
      }

      .cls-5 {
        fill: #e3d9b5;
      }
    </style>
    <linearGradient id="linear-gradient" x1="1441.03" y1="70.28" x2="473.4" y2="1015.17" gradientUnits="userSpaceOnUse">
      <stop offset="0" stop-color="#ff7d61"/>
      <stop offset="1" stop-color="#9c4157"/>
    </linearGradient>
  </defs>
  <rect class="cls-1" x="0" width="1920" height="1080"/>
  <g>
    <path class="cls-4" d="M866.89,184.36h-27.9v-5.22c22.86,0,26.28-3.06,29.7-18.54h5.22v130.5h-7.02v-106.74Z"/>
    <path class="cls-4" d="M907.39,272.37h7.02v18.72h-7.02v-18.72Z"/>
    <path class="cls-4" d="M1007.28,255.09v36h-7.2v-36h-72.36v-6.3l72.72-88.2h6.84v87.84h26.64v6.66h-26.64ZM1000.08,248.44v-77.94l-63.9,77.94h63.9Z"/>
    <path class="cls-4" d="M1059.23,237.95c13.68,0,20.02,11.09,20.02,27s-6.34,27.07-20.02,27.07-20.16-11.09-20.16-27.07,6.34-27,20.16-27ZM1059.23,240.47c-10.44,0-17.14,8.35-17.14,24.48s6.7,24.48,17.14,24.48,16.99-8.28,16.99-24.48-6.62-24.48-16.99-24.48Z"/>
    <path class="cls-4" d="M1112.3,263.01c5.47,1.73,11.09,5.54,11.09,13.83,0,9.72-7.92,15.19-18.58,15.19s-18.58-5.47-18.58-15.19c0-8.28,5.69-12.1,11.16-13.83-5.76-1.51-9.5-6.34-9.5-12.1,0-7.63,6.55-12.96,16.92-12.96s16.99,5.33,16.99,12.96c0,5.76-3.82,10.58-9.5,12.1ZM1104.81,289.44c9.36,0,15.63-4.68,15.63-12.6s-6.26-12.53-15.63-12.53-15.55,4.61-15.55,12.53,6.19,12.6,15.55,12.6ZM1090.77,251.2c0,5.91,4.75,10.73,14.04,10.73s14.04-4.82,14.04-10.73c0-6.7-5.47-10.73-14.04-10.73s-14.04,4.03-14.04,10.73Z"/>
  </g>
  <g>
    <polygon class="cls-2" points="580.75 464.83 599.81 522 661.5 522 611.59 557.33 630.66 614.51 580.75 579.17 530.84 614.51 549.91 557.33 500 522 561.69 522 580.75 464.83"/>
    <polygon class="cls-5" points="770.37 464.83 789.44 522 851.12 522 801.22 557.33 820.28 614.51 770.37 579.17 720.47 614.51 739.53 557.33 689.63 522 751.31 522 770.37 464.83"/>
    <polygon class="cls-5" points="960 464.83 979.06 522 1040.75 522 990.84 557.33 1009.91 614.51 960 579.17 910.09 614.51 929.16 557.33 879.25 522 940.94 522 960 464.83"/>
    <polygon class="cls-5" points="1149.63 464.83 1168.69 522 1230.37 522 1180.47 557.33 1199.53 614.51 1149.63 579.17 1099.72 614.51 1118.78 557.33 1068.88 522 1130.56 522 1149.63 464.83"/>
    <polygon class="cls-5" points="1339.25 464.83 1358.31 522 1420 522 1370.09 557.33 1389.16 614.51 1339.25 579.17 1289.34 614.51 1308.41 557.33 1258.5 522 1320.19 522 1339.25 464.83"/>
  </g>
  <g>
    <path class="cls-3" d="M783.91,803.81v-4.67l9.58-3.05c.71-.21,1.28-.55,1.71-1.03.44-.48.65-1.17.65-2.08v-67.7c0-.87-.23-1.53-.68-1.99-.46-.46-1.02-.79-1.68-1l-9.58-3.17v-4.54h69.5v22.15h-7.34l-2.43-12.26c-.17-.75-.48-1.32-.93-1.71-.46-.39-1.04-.59-1.74-.59h-32.04v32.54h19.97c.87,0,1.49-.2,1.87-.59.37-.39.64-.94.81-1.65l2.3-9.96h5.85v31.98h-5.85l-2.3-9.83c-.17-.75-.44-1.33-.81-1.74-.37-.41-1-.62-1.87-.62h-19.97v30.67c0,.91.24,1.61.72,2.08.48.48,1.05.82,1.71,1.03l10.14,3.05v4.67h-37.58Z"/>
    <path class="cls-3" d="M909.41,805.92c-7.59,0-13.93-1.25-19.01-3.76-5.08-2.51-8.91-5.77-11.48-9.77-2.57-4-3.86-8.24-3.86-12.72v-54.38c0-.87-.23-1.52-.68-1.96-.46-.44-1.06-.78-1.8-1.03l-9.46-3.17v-4.54h36.96v4.54l-9.52,3.17c-.66.21-1.22.55-1.68,1.03-.46.48-.68,1.13-.68,1.96v48.04c0,2.28.28,4.78.84,7.5.56,2.72,1.64,5.3,3.24,7.75,1.6,2.45,3.9,4.45,6.91,6,3.01,1.56,6.94,2.33,11.79,2.33s8.85-.8,11.98-2.4c3.13-1.6,5.6-3.62,7.4-6.07,1.8-2.45,3.07-5.01,3.8-7.68.72-2.67,1.09-5.09,1.09-7.25v-47.91c0-.87-.23-1.51-.68-1.93-.46-.41-1-.72-1.62-.93l-9.52-3.61v-4.54h32.11v4.54l-9.52,3.61c-.66.25-1.22.58-1.68,1-.46.42-.68,1.04-.68,1.87v51.33c0,5.23-1.13,9.69-3.39,13.38-2.26,3.69-5.15,6.68-8.68,8.96-3.53,2.28-7.26,3.96-11.2,5.04s-7.59,1.62-10.95,1.62Z"/>
    <path class="cls-3" d="M1040.52,783.9h3.17v8.28c-2.41,1.99-5.29,4.04-8.65,6.13-3.36,2.1-7.05,3.86-11.08,5.29-4.02,1.43-8.26,2.15-12.69,2.15-8.84,0-16.56-1.82-23.18-5.44-6.62-3.63-11.75-8.91-15.4-15.84-3.65-6.93-5.48-15.29-5.48-25.08s1.92-17.69,5.76-24.7c3.84-7.01,9.09-12.43,15.77-16.27,6.68-3.84,14.27-5.75,22.77-5.75,3.07,0,6.47.26,10.2.78,3.73.52,7.37,1.13,10.92,1.84,3.55.71,6.52,1.37,8.93,1.99v22.77h-7.28l-2.43-12.76c-.12-.66-.5-1.22-1.12-1.68s-1.29-.85-1.99-1.18c-2.61-1.33-5.43-2.35-8.46-3.08-3.03-.73-6.33-1.09-9.89-1.09-8.5,0-15.43,3-20.78,8.99-5.35,6-8.03,15.13-8.03,27.41,0,12.98,2.86,22.78,8.59,29.4,5.72,6.62,14,9.92,24.83,9.92,3.61,0,6.84-.56,9.71-1.68,2.86-1.12,5.56-2.59,8.09-4.42s5.1-3.82,7.72-5.97Z"/>
    <path class="cls-3" d="M1056.32,803.81v-4.67l9.58-3.05c.7-.21,1.28-.55,1.71-1.03.44-.48.65-1.17.65-2.08v-67.7c0-.87-.22-1.53-.65-1.99-.44-.46-1.01-.79-1.71-1l-9.58-3.17v-4.54h36.96v4.54l-9.52,3.17c-.71.21-1.29.55-1.74,1.03-.46.48-.68,1.13-.68,1.96v35.22l35.16-38.02-5.85-3.36v-4.54h28.87v4.54l-9.64,3.11c-.79.25-1.65.64-2.58,1.18s-1.82,1.24-2.64,2.12l-25.64,26.88,30.05,40.13c.54.71,1.22,1.47,2.05,2.3.83.83,1.62,1.37,2.36,1.62l8.9,2.92v4.42h-31.3v-4.42l5.04-2.86-26.13-35.47-8.65,4.98v26.94c0,.91.22,1.61.65,2.08.44.48,1.03.82,1.77,1.03l9.52,3.05v4.67h-36.96Z"/>
    <path class="cls-3" d="M817.23,971.81v-4.67l10.2-3.05c.75-.21,1.34-.55,1.77-1.03.44-.48.65-1.17.65-2.08v-22.65l-25.32-45.24c-.33-.62-.76-1.24-1.28-1.87-.52-.62-1.13-1.08-1.84-1.37l-6.91-2.74v-4.54h32.98v4.54l-10.27,3.67,17.92,30.86,3.42,7.65h1l21.16-38.14-10.14-4.04v-4.54h27.94v4.54l-6.66,2.92c-.66.29-1.27.75-1.8,1.37-.54.62-1,1.24-1.37,1.87l-25.7,44.68v23.02c0,.91.22,1.61.65,2.08.44.48.98.82,1.65,1.03l10.33,3.05v4.67h-38.39Z"/>
    <path class="cls-3" d="M926.43,973.86c-9.21,0-17.02-1.91-23.43-5.72-6.41-3.82-11.28-9.22-14.62-16.21-3.34-6.99-5.01-15.28-5.01-24.86,0-9.04,1.72-17.06,5.16-24.05,3.44-6.99,8.39-12.48,14.84-16.49,6.45-4,14.18-6,23.18-6,9.79,0,17.86,2.04,24.2,6.13,6.35,4.09,11.06,9.63,14.16,16.64,3.09,7.01,4.64,14.93,4.64,23.77,0,5.89-.83,11.62-2.49,17.2-1.66,5.58-4.22,10.6-7.68,15.06-3.46,4.46-7.92,8-13.38,10.61-5.46,2.61-11.98,3.92-19.57,3.92ZM927.55,966.52c6.1,0,11.2-1.58,15.31-4.73s7.19-7.54,9.24-13.16c2.05-5.62,3.08-12.1,3.08-19.44,0-8.46-1.09-15.78-3.27-21.96-2.18-6.18-5.48-10.95-9.89-14.31-4.42-3.36-10.01-5.04-16.77-5.04s-11.73,1.68-15.77,5.04c-4.04,3.36-7.01,7.84-8.9,13.44-1.89,5.6-2.83,11.76-2.83,18.48,0,8.34,1.07,15.63,3.2,21.87,2.14,6.24,5.41,11.11,9.83,14.59s10.01,5.23,16.77,5.23Z"/>
    <path class="cls-3" d="M1027.48,973.92c-7.59,0-13.93-1.25-19.01-3.76-5.08-2.51-8.91-5.77-11.48-9.77-2.57-4-3.86-8.24-3.86-12.72v-54.38c0-.87-.23-1.52-.68-1.96-.46-.44-1.06-.78-1.8-1.03l-9.46-3.17v-4.54h36.96v4.54l-9.52,3.17c-.66.21-1.22.55-1.68,1.03-.46.48-.68,1.13-.68,1.96v48.04c0,2.28.28,4.78.84,7.5.56,2.72,1.64,5.3,3.24,7.75s3.9,4.45,6.91,6c3.01,1.56,6.94,2.33,11.79,2.33s8.85-.8,11.98-2.4,5.6-3.62,7.4-6.07c1.8-2.45,3.07-5.01,3.8-7.68.73-2.67,1.09-5.09,1.09-7.25v-47.91c0-.87-.23-1.51-.68-1.93-.46-.41-1-.72-1.62-.93l-9.52-3.61v-4.54h32.11v4.54l-9.52,3.61c-.66.25-1.22.58-1.68,1-.46.42-.68,1.04-.68,1.87v51.33c0,5.23-1.13,9.69-3.39,13.38-2.26,3.69-5.15,6.68-8.68,8.96-3.53,2.28-7.26,3.96-11.2,5.04-3.94,1.08-7.59,1.62-10.95,1.62Z"/>
    <path class="cls-3" d="M1102.95,973.36c-2.57,0-4.77-.9-6.59-2.71-1.83-1.8-2.74-3.99-2.74-6.56s.91-4.83,2.74-6.66c1.82-1.83,4.02-2.74,6.59-2.74s4.84.91,6.69,2.74c1.84,1.83,2.77,4.04,2.77,6.66s-.92,4.76-2.77,6.56c-1.85,1.8-4.08,2.71-6.69,2.71ZM1099.72,943.25l-4.92-58.55v-2.12h16.18v2.12l-4.92,58.55h-6.35Z"/>
  </g>
</svg>