<?xml version="1.0" encoding="UTF-8"?>
<svg id="Layer_1" data-name="Layer 1" xmlns="http://www.w3.org/2000/svg" xmlns:xlink="http://www.w3.org/1999/xlink" viewBox="0 0 1920 1080">
  <defs>
    <style>
      .cls-1 {
        fill: url(#linear-gradient);
      }

      .cls-1, .cls-2, .cls-3 {
        stroke-width: 0px;
      }

      .cls-2 {
        fill: #770f34;
      }

      .cls-3 {
        fill: #e3d9b5;
      }
    </style>
    <linearGradient id="linear-gradient" x1="1441.03" y1="70.28" x2="473.4" y2="1015.17" gradientUnits="userSpaceOnUse">
      <stop offset="0" stop-color="#ff7d61"/>
      <stop offset="1" stop-color="#9c4157"/>
    </linearGradient>
  </defs>
  <rect class="cls-1" width="1920" height="1080"/>
  <g>
    <path class="cls-2" d="M870.11,225.76h-1.98v-6.12h1.26c26.46,0,38.34-11.16,38.34-28.44,0-15.84-14.04-26.64-33.3-26.64s-33.66,10.08-36.9,29.88h-7.38c3.6-22.5,19.8-36.18,44.82-36.18,22.86,0,40.32,12.06,40.32,32.4,0,17.46-11.7,28.62-26.1,31.68,16.56,2.52,29.34,12.78,29.34,33.48,0,24.84-21.06,37.62-45.18,37.62-25.56,0-42.3-15.12-45.72-37.8h7.38c4.32,21.6,19.08,31.32,38.34,31.32,21.06,0,37.62-11.16,37.62-30.78,0-21.6-16.38-30.42-40.86-30.42Z"/>
    <path class="cls-2" d="M941.93,272.37h7.02v18.72h-7.02v-18.72Z"/>
    <path class="cls-2" d="M986.57,284.25h80.46v6.84h-90v-7.02c51.12-38.16,78.12-64.8,78.12-91.26,0-19.08-14.58-28.26-31.5-28.26s-34.74,8.28-36,35.64h-7.38c1.44-28.44,19.08-41.94,43.38-41.94s39.06,12.24,39.06,34.02c0,28.44-27,55.98-76.14,91.98Z"/>
    <path class="cls-2" d="M1095.04,258.91c-6.55,0-11.74,3.02-14.04,7.78l-2.59-.36,3.6-27.43h28.95v2.81h-26.5l-2.88,20.67c2.45-3.17,7.42-6.05,14.11-6.05,10.01,0,17.43,6.84,17.43,18s-8.35,17.71-18.22,17.71-16.92-5.83-18.29-15.12h2.95c1.51,8.71,7.63,12.53,15.34,12.53,8.35,0,15.19-5.54,15.19-15.12s-6.55-15.41-15.05-15.41Z"/>
    <path class="cls-2" d="M1128.59,248.39h-11.16v-2.09c9.14,0,10.51-1.22,11.88-7.42h2.09v52.2h-2.81v-42.7Z"/>
  </g>
  <g>
    <polygon class="cls-3" points="580.75 464.83 599.81 522 661.5 522 611.59 557.33 630.66 614.51 580.75 579.17 530.84 614.51 549.91 557.33 500 522 561.69 522 580.75 464.83"/>
    <polygon class="cls-3" points="770.37 464.83 789.44 522 851.12 522 801.22 557.33 820.28 614.51 770.37 579.17 720.47 614.51 739.53 557.33 689.63 522 751.31 522 770.37 464.83"/>
    <polygon class="cls-3" points="960 464.83 979.06 522 1040.75 522 990.84 557.33 1009.91 614.51 960 579.17 910.09 614.51 929.16 557.33 879.25 522 940.94 522 960 464.83"/>
    <polygon class="cls-3" points="1149.63 464.83 1168.69 522 1230.37 522 1180.47 557.33 1199.53 614.51 1149.63 579.17 1099.72 614.51 1118.78 557.33 1068.88 522 1130.56 522 1149.63 464.83"/>
    <polygon class="cls-3" points="1339.25 464.83 1358.31 522 1420 522 1370.09 557.33 1389.16 614.51 1339.25 579.17 1289.34 614.51 1308.41 557.33 1258.5 522 1320.19 522 1339.25 464.83"/>
  </g>
</svg>