<?xml version="1.0" encoding="UTF-8"?>
<svg id="Layer_1" data-name="Layer 1" xmlns="http://www.w3.org/2000/svg" xmlns:xlink="http://www.w3.org/1999/xlink" viewBox="0 0 1809.5 768">
  <defs>
    <style>
      .cls-1 {
        fill: url(#linear-gradient);
      }

      .cls-1, .cls-2 {
        stroke-width: 0px;
      }

      .cls-2 {
        fill: #231f20;
      }
    </style>
    <linearGradient id="linear-gradient" x1="1319.31" y1="-20.3" x2="486.23" y2="793.21" gradientUnits="userSpaceOnUse">
      <stop offset="0" stop-color="#ff7d61"/>
      <stop offset="1" stop-color="#9c4157"/>
    </linearGradient>
  </defs>
  <rect class="cls-1" x="-.47" y=".23" width="1811.28" height="767.77"/>
  <g>
    <path class="cls-2" d="M791.06,59.29v38.33h-2.34v-41.23h3.13l25.87,38.33v-38.33h2.34v41.23h-3.13l-25.87-38.33Z"/>
    <path class="cls-2" d="M854.93,82.44c0,10.81-6.15,15.92-13.73,15.92s-13.67-5.12-13.67-15.92,6.15-15.92,13.67-15.92,13.73,5.18,13.73,15.92ZM852.53,82.44c0-9.27-4.79-13.88-11.34-13.88s-11.34,4.61-11.34,13.88,4.79,13.88,11.34,13.88,11.34-4.55,11.34-13.88Z"/>
    <path class="cls-2" d="M871.68,68.56c-3.87,0-8.77,1.71-8.77,5.74,0,3.41,2.62,5.12,6.49,5.91l4.5.85c5.41,1.08,10.43,2.96,10.43,8.42,0,5.86-5.53,8.87-11.96,8.87-6.95,0-11.45-3.64-12.48-9.67h2.34c1.03,4.72,4.44,7.62,10.43,7.62,4.22,0,9.34-1.82,9.34-6.48,0-4.15-3.59-5.69-8.37-6.6l-4.73-.91c-4.9-.97-8.26-3.47-8.26-7.9,0-4.78,5.24-7.91,11.34-7.91s10.65,3.13,11.62,8.42h-2.28c-1.14-4.61-4.9-6.37-9.63-6.37Z"/>
    <path class="cls-2" d="M903.01,66.51c8.49,0,13.79,6.6,13.5,16.04h-25.24c-.06,9.21,5.53,13.76,12.02,13.76,5.41,0,9.23-2.62,10.48-7.68h2.28c-1.31,6.14-6.1,9.72-12.88,9.72-8.83,0-14.24-6.48-14.24-15.98s5.64-15.87,14.07-15.87ZM914.12,80.56c-.06-6.26-4.16-12.06-11.17-12.06-6.61,0-11.11,4.55-11.62,12.06h22.79Z"/>
    <path class="cls-2" d="M948.18,56.39v41.23h-2.22v-6.54c-1.88,4.49-5.93,7.28-11.05,7.28-7.24,0-12.99-5.74-12.99-15.92s5.75-15.92,12.99-15.92c5.13,0,9.17,2.79,11.05,7.28v-17.4h2.22ZM924.26,82.44c0,8.99,4.9,13.88,10.94,13.88,5.3,0,11-3.87,11-13.88s-5.7-13.88-11-13.88c-6.04,0-10.94,4.89-10.94,13.88Z"/>
    <path class="cls-2" d="M959.75,61.85h-2.22v-5.46h2.22v5.46ZM959.75,97.62h-2.22v-30.6h2.22v30.6Z"/>
    <path class="cls-2" d="M988.46,67.02h2.51l-11.96,30.6h-2.22l-12.08-30.6h2.51l10.71,27.64,10.54-27.64Z"/>
    <path class="cls-2" d="M1007.2,66.51c8.49,0,13.79,6.6,13.5,16.04h-25.24c-.06,9.21,5.53,13.76,12.02,13.76,5.41,0,9.23-2.62,10.48-7.68h2.28c-1.31,6.14-6.1,9.72-12.88,9.72-8.83,0-14.24-6.48-14.24-15.98s5.64-15.87,14.07-15.87ZM1018.31,80.56c-.06-6.26-4.16-12.06-11.17-12.06-6.61,0-11.11,4.55-11.62,12.06h22.79Z"/>
    <path class="cls-2" d="M775.23,192.88c7.63,0,13.56,2.22,13.56,10.18,0,4.55-1.48,7.68-6.32,9.38,5.13,1.08,8.09,4.04,8.09,10.12,0,8.25-5.81,11.55-13.84,11.55h-16.18v-41.23h14.7ZM776.08,211.65c6.21,0,10.25-2.22,10.25-8.42s-4.33-8.25-10.77-8.25h-12.7v16.66h13.22ZM776.65,231.95c7.63,0,11.39-3.36,11.39-9.33,0-6.31-3.82-8.87-11.74-8.87h-13.45v18.2h13.79Z"/>
    <path class="cls-2" d="M797.9,234.11v-41.23h2.22v41.23h-2.22Z"/>
    <path class="cls-2" d="M817.67,234.85c-5.41,0-10.25-3.01-10.25-8.13,0-7.22,7.29-9.16,21.99-10.92v-1.76c0-7.96-4.56-9.21-9.29-9.21-6.1,0-9,3.47-9.4,7.56h-2.39c.57-5.52,5.01-9.61,11.85-9.61s11.45,2.56,11.45,11.26c0,2.96-.06,7-.06,9.55,0,3.81.11,7.05.34,10.52h-2.16l-.23-5.91c-1.94,4.44-6.15,6.65-11.85,6.65ZM809.81,226.61c0,3.87,3.65,6.2,8.38,6.2,5.64,0,11.34-2.96,11.34-11.89v-3.07c-14.76,1.71-19.71,3.58-19.71,8.76Z"/>
    <path class="cls-2" d="M862.16,213.3c-1.14-5.12-5.13-8.25-10.48-8.25-6.67,0-11.28,5.18-11.28,13.88,0,9.55,5.18,13.88,11.22,13.88s9.69-3.47,10.65-8.19h2.34c-1.25,6.2-6.15,10.24-13.05,10.24-8.72,0-13.5-6.48-13.5-15.87s5.01-15.98,13.79-15.98c6.84,0,11.51,4.49,12.59,10.29h-2.28Z"/>
    <path class="cls-2" d="M873.5,220.41l16.12-16.89h2.68l-12.08,12.68,13.5,17.91h-2.68l-12.31-16.38-5.24,5.52v10.86h-2.22v-41.23h2.22v27.53Z"/>
    <path class="cls-2" d="M914.46,195.16v38.96h-2.34v-41.23h3.82l15.72,38.5,15.72-38.5h3.82v41.23h-2.34v-38.96l-16.07,38.96h-2.28l-16.07-38.96Z"/>
    <path class="cls-2" d="M963,198.34h-2.22v-5.46h2.22v5.46ZM963,234.11h-2.22v-30.6h2.22v30.6Z"/>
    <path class="cls-2" d="M983.45,205.68c-7.18,0-8.94,5.86-8.94,14.39v14.05h-2.16v-30.6h2.05v6.6c1.2-3.81,4.39-6.77,9.34-6.77h.8v2.33h-1.08Z"/>
    <path class="cls-2" d="M1000.54,205.68c-7.18,0-8.94,5.86-8.94,14.39v14.05h-2.16v-30.6h2.05v6.6c1.2-3.81,4.39-6.77,9.34-6.77h.8v2.33h-1.08Z"/>
    <path class="cls-2" d="M1031.82,218.93c0,10.81-6.15,15.92-13.73,15.92s-13.67-5.12-13.67-15.92,6.15-15.92,13.67-15.92,13.73,5.18,13.73,15.92ZM1029.42,218.93c0-9.27-4.79-13.88-11.34-13.88s-11.34,4.61-11.34,13.88,4.79,13.88,11.34,13.88,11.34-4.55,11.34-13.88Z"/>
    <path class="cls-2" d="M1050.16,205.68c-7.18,0-8.94,5.86-8.94,14.39v14.05h-2.16v-30.6h2.05v6.6c1.2-3.81,4.39-6.77,9.34-6.77h.8v2.33h-1.08Z"/>
    <path class="cls-2" d="M702.85,271.53h-2.45c-1.48-6.03-6.38-8.93-13.05-8.93-5.41,0-11.57,2.1-11.57,7.73,0,4.83,4.04,7.34,9.23,8.53l5.07,1.14c6.04,1.42,13.62,3.81,13.62,11.43s-7.41,11.66-15.27,11.66c-8.89,0-14.98-4.44-16.41-13.02h2.45c1.65,7.73,7.01,10.81,13.84,10.81,5.24,0,12.93-1.93,12.93-9.1,0-5.63-5.3-8.08-11.57-9.5l-5.41-1.19c-5.3-1.25-10.94-4.04-10.94-10.58,0-7.17,7.58-10.12,14.19-10.12,7.98,0,13.84,3.81,15.33,11.15Z"/>
    <path class="cls-2" d="M722.33,271.25c8.49,0,13.79,6.6,13.5,16.04h-25.24c-.06,9.21,5.53,13.76,12.02,13.76,5.41,0,9.23-2.62,10.48-7.68h2.28c-1.31,6.14-6.1,9.73-12.88,9.73-8.83,0-14.24-6.48-14.24-15.98s5.64-15.87,14.07-15.87ZM733.44,285.3c-.06-6.26-4.16-12.06-11.17-12.06-6.61,0-11.11,4.55-11.62,12.06h22.79Z"/>
    <path class="cls-2" d="M754.18,273.92c-7.18,0-8.94,5.86-8.94,14.39v14.05h-2.16v-30.6h2.05v6.6c1.2-3.81,4.39-6.77,9.34-6.77h.8v2.33h-1.08Z"/>
    <path class="cls-2" d="M762.38,266.59h-2.22v-5.46h2.22v5.46ZM762.38,302.36h-2.22v-30.6h2.22v30.6Z"/>
    <path class="cls-2" d="M783.69,271.25c8.49,0,13.79,6.6,13.5,16.04h-25.24c-.06,9.21,5.53,13.76,12.02,13.76,5.41,0,9.23-2.62,10.48-7.68h2.28c-1.31,6.14-6.1,9.73-12.88,9.73-8.83,0-14.24-6.48-14.24-15.98s5.64-15.87,14.07-15.87ZM794.8,285.3c-.06-6.26-4.16-12.06-11.17-12.06-6.61,0-11.11,4.55-11.62,12.06h22.79Z"/>
    <path class="cls-2" d="M814.05,273.3c-3.87,0-8.77,1.71-8.77,5.74,0,3.41,2.62,5.12,6.49,5.91l4.5.85c5.41,1.08,10.43,2.96,10.43,8.42,0,5.86-5.53,8.87-11.96,8.87-6.95,0-11.45-3.64-12.48-9.67h2.34c1.03,4.72,4.44,7.62,10.43,7.62,4.22,0,9.34-1.82,9.34-6.48,0-4.15-3.59-5.69-8.37-6.6l-4.73-.91c-4.9-.97-8.26-3.47-8.26-7.91,0-4.78,5.24-7.91,11.34-7.91s10.65,3.13,11.62,8.42h-2.28c-1.14-4.61-4.9-6.37-9.63-6.37Z"/>
    <path class="cls-2" d="M856.66,281.72h-.63v-1.93h.4c8.37,0,12.13-3.53,12.13-8.99,0-5-4.44-8.42-10.54-8.42s-10.65,3.19-11.68,9.44h-2.34c1.14-7.11,6.27-11.43,14.19-11.43,7.24,0,12.76,3.81,12.76,10.24,0,5.52-3.7,9.04-8.26,10.01,5.24.8,9.29,4.04,9.29,10.58,0,7.85-6.67,11.89-14.3,11.89-8.09,0-13.39-4.78-14.47-11.94h2.34c1.37,6.83,6.04,9.9,12.14,9.9,6.67,0,11.91-3.53,11.91-9.73,0-6.82-5.18-9.61-12.93-9.61Z"/>
    <path class="cls-2" d="M881.61,302.36c0,4.95-.23,8.25-4.16,8.7v-2.22c1.71-.51,1.94-1.65,1.94-6.43v-5.97h2.22v5.91Z"/>
    <path class="cls-2" d="M931.35,261.13v2.22h-23.53v16.55h22.11v2.16h-22.11v18.09h23.53v2.22h-25.87v-41.23h25.87Z"/>
    <path class="cls-2" d="M940.29,278.53c1.88-4.49,5.92-7.28,11.05-7.28,7.24,0,12.99,5.8,12.99,15.92s-5.75,15.92-12.99,15.92c-5.13,0-9.17-2.79-11.05-7.28v16.49h-2.22v-40.55h2.22v6.77ZM962,287.18c0-8.99-4.9-13.88-10.94-13.88-5.3,0-11,3.92-11,13.88s5.7,13.88,11,13.88c6.04,0,10.94-4.89,10.94-13.88Z"/>
    <path class="cls-2" d="M973.79,266.59h-2.22v-5.46h2.22v5.46ZM973.79,302.36h-2.22v-30.6h2.22v30.6Z"/>
    <path class="cls-2" d="M992.65,273.3c-3.87,0-8.77,1.71-8.77,5.74,0,3.41,2.62,5.12,6.49,5.91l4.5.85c5.41,1.08,10.43,2.96,10.43,8.42,0,5.86-5.53,8.87-11.96,8.87-6.95,0-11.45-3.64-12.48-9.67h2.34c1.03,4.72,4.44,7.62,10.43,7.62,4.22,0,9.34-1.82,9.34-6.48,0-4.15-3.59-5.69-8.37-6.6l-4.73-.91c-4.9-.97-8.26-3.47-8.26-7.91,0-4.78,5.24-7.91,11.34-7.91s10.65,3.13,11.62,8.42h-2.28c-1.14-4.61-4.9-6.37-9.63-6.37Z"/>
    <path class="cls-2" d="M1037.31,287.18c0,10.81-6.15,15.92-13.73,15.92s-13.67-5.12-13.67-15.92,6.15-15.92,13.67-15.92,13.73,5.18,13.73,15.92ZM1034.92,287.18c0-9.27-4.79-13.88-11.34-13.88s-11.34,4.61-11.34,13.88,4.79,13.88,11.34,13.88,11.34-4.55,11.34-13.88Z"/>
    <path class="cls-2" d="M1068.7,261.13v41.23h-2.22v-6.54c-1.88,4.49-5.93,7.28-11.05,7.28-7.24,0-12.99-5.74-12.99-15.92s5.75-15.92,12.99-15.92c5.13,0,9.17,2.79,11.05,7.28v-17.4h2.22ZM1044.77,287.18c0,8.99,4.9,13.88,10.94,13.88,5.3,0,11-3.87,11-13.88s-5.7-13.88-11-13.88c-6.04,0-10.94,4.89-10.94,13.88Z"/>
    <path class="cls-2" d="M1090.01,271.25c8.49,0,13.79,6.6,13.5,16.04h-25.24c-.06,9.21,5.53,13.76,12.02,13.76,5.41,0,9.23-2.62,10.48-7.68h2.28c-1.31,6.14-6.1,9.73-12.88,9.73-8.83,0-14.24-6.48-14.24-15.98s5.64-15.87,14.07-15.87ZM1101.12,285.3c-.06-6.26-4.16-12.06-11.17-12.06-6.61,0-11.11,4.55-11.62,12.06h22.79Z"/>
    <path class="cls-2" d="M1129.43,268.63h-8.83v-1.65c7.24,0,8.32-.97,9.4-5.86h1.65v41.23h-2.22v-33.73Z"/>
    <path class="cls-2" d="M653.14,418.21c0,15.92-9.29,20.65-22.45,20.65h-9.63v-41.23h9.63c13.16,0,22.45,4.72,22.45,20.59ZM623.4,399.72v36.97h7.06c10.03,0,20.17-2.39,20.17-18.48s-10.14-18.48-20.17-18.48h-7.06Z"/>
    <path class="cls-2" d="M662.43,403.08h-2.22v-5.46h2.22v5.46ZM662.43,438.85h-2.22v-30.6h2.22v30.6Z"/>
    <path class="cls-2" d="M682.88,410.42c-7.18,0-8.94,5.86-8.94,14.39v14.05h-2.16v-30.6h2.05v6.6c1.2-3.81,4.39-6.77,9.34-6.77h.8v2.33h-1.08Z"/>
    <path class="cls-2" d="M700.82,407.74c8.49,0,13.79,6.6,13.5,16.04h-25.24c-.06,9.21,5.53,13.76,12.02,13.76,5.41,0,9.23-2.62,10.48-7.68h2.28c-1.31,6.14-6.1,9.73-12.88,9.73-8.83,0-14.24-6.48-14.24-15.98s5.64-15.87,14.07-15.87ZM711.93,421.79c-.06-6.26-4.16-12.06-11.17-12.06-6.61,0-11.11,4.55-11.62,12.06h22.79Z"/>
    <path class="cls-2" d="M743.84,418.04c-1.14-5.12-5.13-8.25-10.48-8.25-6.67,0-11.28,5.18-11.28,13.88,0,9.55,5.18,13.88,11.22,13.88s9.69-3.47,10.65-8.19h2.34c-1.25,6.2-6.15,10.24-13.05,10.24-8.72,0-13.5-6.48-13.5-15.87s5.01-15.98,13.79-15.98c6.84,0,11.51,4.49,12.59,10.29h-2.28Z"/>
    <path class="cls-2" d="M756.65,401.03v7.22h6.38v1.93h-6.38v20.93c0,4.78.17,5.69,4.96,5.69h1.42v2.05h-2.16c-5.3,0-6.38-1.14-6.38-6.94v-21.73h-5.41v-1.93h5.41v-7.22h2.17Z"/>
    <path class="cls-2" d="M781.32,407.74c8.49,0,13.79,6.6,13.5,16.04h-25.24c-.06,9.21,5.53,13.76,12.02,13.76,5.41,0,9.23-2.62,10.48-7.68h2.28c-1.31,6.14-6.1,9.73-12.88,9.73-8.83,0-14.24-6.48-14.24-15.98s5.64-15.87,14.07-15.87ZM792.43,421.79c-.06-6.26-4.16-12.06-11.17-12.06-6.61,0-11.11,4.55-11.62,12.06h22.79Z"/>
    <path class="cls-2" d="M826.5,397.62v41.23h-2.22v-6.54c-1.88,4.49-5.93,7.28-11.05,7.28-7.24,0-12.99-5.74-12.99-15.92s5.75-15.92,12.99-15.92c5.13,0,9.17,2.79,11.05,7.28v-17.4h2.22ZM802.57,423.67c0,8.99,4.9,13.88,10.94,13.88,5.3,0,11-3.87,11-13.88s-5.7-13.88-11-13.88c-6.04,0-10.94,4.89-10.94,13.88Z"/>
    <path class="cls-2" d="M851.56,415.02c1.88-4.49,5.92-7.28,11.05-7.28,7.24,0,12.99,5.8,12.99,15.92s-5.75,15.92-12.99,15.92c-5.13,0-9.17-2.79-11.05-7.28v6.54h-2.22v-41.23h2.22v17.4ZM873.27,423.67c0-8.99-4.9-13.88-10.94-13.88-5.3,0-11,3.92-11,13.88s5.7,13.88,11,13.88c6.04,0,10.94-4.89,10.94-13.88Z"/>
    <path class="cls-2" d="M880.79,446.82h1.77c3.48,0,4.27-.23,6.27-5.23l1.08-2.79-12.13-30.54h2.51l10.71,27.58,10.54-27.58h2.51l-13.16,33.61c-2.28,5.74-3.3,6.94-8.38,6.94h-1.71v-1.99Z"/>
    <path class="cls-2" d="M943,397.62v26.84c0,11.49-5.7,15.13-12.31,15.13s-12.08-3.41-12.25-14.45h2.34c0,10.41,5.58,12.23,9.91,12.23s9.97-1.88,9.97-12.28v-27.47h2.34Z"/>
    <path class="cls-2" d="M977.81,423.67c0,10.81-6.15,15.92-13.73,15.92s-13.67-5.12-13.67-15.92,6.15-15.92,13.67-15.92,13.73,5.18,13.73,15.92ZM975.41,423.67c0-9.27-4.79-13.88-11.34-13.88s-11.34,4.61-11.34,13.88,4.79,13.88,11.34,13.88,11.34-4.55,11.34-13.88Z"/>
    <path class="cls-2" d="M997.01,407.74c8.49,0,13.79,6.6,13.5,16.04h-25.24c-.06,9.21,5.53,13.76,12.02,13.76,5.41,0,9.23-2.62,10.48-7.68h2.28c-1.31,6.14-6.1,9.73-12.88,9.73-8.83,0-14.24-6.48-14.24-15.98s5.64-15.87,14.07-15.87ZM1008.12,421.79c-.06-6.26-4.16-12.06-11.17-12.06-6.61,0-11.11,4.55-11.62,12.06h22.79Z"/>
    <path class="cls-2" d="M1076.88,397.62h2.56l-12.48,41.23h-2.45l-10.65-37.48-10.6,37.48h-2.45l-12.53-41.23h2.56l11.22,37.88,10.48-37.88h2.62l10.65,37.88,11.05-37.88Z"/>
    <path class="cls-2" d="M1096.36,410.42c-7.18,0-8.94,5.86-8.94,14.39v14.05h-2.16v-30.6h2.05v6.6c1.2-3.81,4.39-6.77,9.34-6.77h.8v2.33h-1.08Z"/>
    <path class="cls-2" d="M1104.56,403.08h-2.22v-5.46h2.22v5.46ZM1104.56,438.85h-2.22v-30.6h2.22v30.6Z"/>
    <path class="cls-2" d="M1124.79,438.34c-7.24,0-12.99-5.74-12.99-15.3s5.75-15.3,12.99-15.3c5.13,0,9.17,2.79,11.05,7.22v-6.71h2.28v29.06c0,9.44-5.92,12.23-12.7,12.23s-11.51-3.47-12.08-8.99h2.34c.46,3.64,3.65,7,9.74,7,5.07,0,10.43-1.82,10.43-9.55v-6.88c-1.88,4.49-5.93,7.22-11.05,7.22ZM1114.13,423.04c0,8.42,4.9,13.31,10.94,13.31,5.3,0,11-3.92,11-13.31s-5.7-13.25-11-13.25c-6.04,0-10.94,4.89-10.94,13.25Z"/>
    <path class="cls-2" d="M1160.45,407.74c7.29,0,10.25,4.32,10.25,11.49v19.62h-2.22v-18.88c0-5.86-1.71-10.18-8.49-10.18s-10.37,5.57-10.37,14.05v15.01h-2.22v-41.23h2.22v17.69c1.25-3.58,4.39-7.56,10.82-7.56Z"/>
    <path class="cls-2" d="M1182.9,401.03v7.22h6.38v1.93h-6.38v20.93c0,4.78.17,5.69,4.96,5.69h1.42v2.05h-2.16c-5.3,0-6.38-1.14-6.38-6.94v-21.73h-5.41v-1.93h5.41v-7.22h2.17Z"/>
    <path class="cls-2" d="M748.17,602.36h2.56l-12.48,41.23h-2.45l-10.65-37.48-10.6,37.48h-2.45l-12.53-41.23h2.56l11.22,37.88,10.48-37.88h2.62l10.65,37.88,11.05-37.88Z"/>
    <path class="cls-2" d="M763.32,644.33c-5.41,0-10.25-3.01-10.25-8.13,0-7.22,7.29-9.16,21.99-10.92v-1.76c0-7.96-4.56-9.21-9.29-9.21-6.1,0-9,3.47-9.4,7.56h-2.39c.57-5.52,5.01-9.61,11.85-9.61s11.45,2.56,11.45,11.26c0,2.96-.06,7-.06,9.55,0,3.81.11,7.05.34,10.52h-2.16l-.23-5.91c-1.94,4.44-6.15,6.65-11.85,6.65ZM755.46,636.08c0,3.87,3.65,6.2,8.38,6.2,5.64,0,11.34-2.96,11.34-11.89v-3.07c-14.76,1.71-19.71,3.58-19.71,8.76Z"/>
    <path class="cls-2" d="M789.53,605.77v7.22h6.38v1.93h-6.38v20.93c0,4.78.17,5.69,4.96,5.69h1.42v2.05h-2.16c-5.3,0-6.38-1.14-6.38-6.94v-21.73h-5.41v-1.93h5.41v-7.22h2.17Z"/>
    <path class="cls-2" d="M824.22,622.78c-1.14-5.12-5.13-8.25-10.48-8.25-6.67,0-11.28,5.18-11.28,13.88,0,9.55,5.18,13.88,11.22,13.88s9.69-3.47,10.65-8.19h2.34c-1.25,6.2-6.15,10.24-13.05,10.24-8.72,0-13.5-6.48-13.5-15.87s5.01-15.98,13.79-15.98c6.84,0,11.51,4.49,12.59,10.29h-2.28Z"/>
    <path class="cls-2" d="M846.38,612.48c7.29,0,10.25,4.32,10.25,11.49v19.62h-2.22v-18.88c0-5.86-1.71-10.18-8.49-10.18s-10.37,5.57-10.37,14.05v15.01h-2.22v-41.23h2.22v17.69c1.25-3.58,4.39-7.56,10.82-7.56Z"/>
    <path class="cls-2" d="M903.92,628.41c0,10.81-6.15,15.92-13.73,15.92s-13.67-5.12-13.67-15.92,6.15-15.92,13.67-15.92,13.73,5.18,13.73,15.92ZM901.53,628.41c0-9.27-4.79-13.88-11.34-13.88s-11.34,4.61-11.34,13.88,4.79,13.88,11.34,13.88,11.34-4.55,11.34-13.88Z"/>
    <path class="cls-2" d="M924.2,612.48c7.29,0,10.25,4.32,10.25,11.49v19.62h-2.22v-18.88c0-5.86-1.71-10.18-8.49-10.18s-10.37,5.57-10.37,14.05v15.01h-2.22v-30.6h2.22v7.05c1.25-3.58,4.39-7.56,10.82-7.56Z"/>
    <path class="cls-2" d="M959.01,605.26v38.33h-2.34v-41.23h3.13l25.87,38.33v-38.33h2.34v41.23h-3.13l-25.87-38.33Z"/>
    <path class="cls-2" d="M1009.54,612.48c8.49,0,13.79,6.6,13.5,16.04h-25.24c-.06,9.21,5.53,13.76,12.02,13.76,5.41,0,9.23-2.62,10.48-7.68h2.28c-1.31,6.14-6.1,9.73-12.88,9.73-8.83,0-14.24-6.48-14.24-15.98s5.64-15.87,14.07-15.87ZM1020.65,626.53c-.06-6.26-4.16-12.06-11.17-12.06-6.61,0-11.11,4.55-11.62,12.06h22.79Z"/>
    <path class="cls-2" d="M1033.98,605.77v7.22h6.38v1.93h-6.38v20.93c0,4.78.17,5.69,4.96,5.69h1.42v2.05h-2.16c-5.3,0-6.38-1.14-6.38-6.94v-21.73h-5.41v-1.93h5.41v-7.22h2.17Z"/>
    <path class="cls-2" d="M1054.66,602.36h1.88v1.99h-1.08c-4.73,0-5.24.74-5.24,5.12v3.53h6.32v1.93h-6.32v28.66h-2.22v-28.66h-4.5v-1.93h4.5v-3.98c0-4.95,1.14-6.65,6.67-6.65Z"/>
    <path class="cls-2" d="M1062.24,643.59v-41.23h2.22v41.23h-2.22Z"/>
    <path class="cls-2" d="M1076.02,607.82h-2.22v-5.46h2.22v5.46ZM1076.02,643.59h-2.22v-30.6h2.22v30.6Z"/>
    <path class="cls-2" d="M1108.1,643.59h-2.73l-10.48-13.99-10.43,13.99h-2.62l11.74-15.75-11.05-14.84h2.68l9.74,13.08,9.74-13.08h2.62l-11.05,14.79,11.85,15.81Z"/>
  </g>
</svg>