<?xml version="1.0" encoding="UTF-8"?>
<svg id="Layer_1" data-name="Layer 1" xmlns="http://www.w3.org/2000/svg" xmlns:xlink="http://www.w3.org/1999/xlink" viewBox="0 0 1809.75 768">
  <defs>
    <style>
      .cls-1 {
        fill: url(#linear-gradient);
      }

      .cls-1, .cls-2, .cls-3 {
        stroke-width: 0px;
      }

      .cls-2 {
        fill: #770f34;
      }

      .cls-3 {
        fill: #e3d9b5;
      }
    </style>
    <linearGradient id="linear-gradient" x1="1316.34" y1="-20.64" x2="483.82" y2="792.32" gradientUnits="userSpaceOnUse">
      <stop offset="0" stop-color="#ff7d61"/>
      <stop offset="1" stop-color="#9c4157"/>
    </linearGradient>
  </defs>
  <rect class="cls-1" x="-2.68" width="1810.3" height="767"/>
  <g>
    <path class="cls-2" d="M824.62,160.33h-1.41v-4.35h.9c18.83,0,27.28-7.93,27.28-20.2,0-11.25-9.99-18.92-23.7-18.92s-23.95,7.16-26.26,21.22h-5.25c2.56-15.98,14.09-25.69,31.89-25.69,16.27,0,28.69,8.56,28.69,23.01,0,12.4-8.33,20.32-18.57,22.5,11.78,1.79,20.88,9.08,20.88,23.78,0,17.64-14.99,26.72-32.15,26.72-18.19,0-30.1-10.74-32.53-26.84h5.25c3.07,15.34,13.58,22.24,27.28,22.24,14.99,0,26.77-7.93,26.77-21.86,0-15.34-11.66-21.6-29.08-21.6Z"/>
    <path class="cls-2" d="M875.73,193.44h5v13.29h-5v-13.29Z"/>
    <path class="cls-2" d="M907.5,201.87h57.25v4.86h-64.04v-4.99c36.38-27.1,55.59-46.02,55.59-64.81,0-13.55-10.38-20.07-22.42-20.07s-24.72,5.88-25.62,25.31h-5.25c1.02-20.2,13.58-29.78,30.87-29.78s27.79,8.69,27.79,24.16c0,20.2-19.21,39.75-54.18,65.32Z"/>
    <path class="cls-2" d="M984.69,183.87c-4.66,0-8.35,2.15-9.99,5.52l-1.84-.26,2.56-19.48h20.6v1.99h-18.86l-2.05,14.68c1.74-2.25,5.28-4.3,10.04-4.3,7.12,0,12.4,4.86,12.4,12.78s-5.94,12.58-12.96,12.58-12.04-4.14-13.02-10.74h2.1c1.08,6.19,5.43,8.9,10.91,8.9,5.94,0,10.81-3.94,10.81-10.74s-4.66-10.94-10.71-10.94Z"/>
    <path class="cls-2" d="M1008.56,176.41h-7.94v-1.48c6.51,0,7.48-.87,8.45-5.27h1.49v37.07h-2v-30.32Z"/>
  </g>
  <g>
    <polygon class="cls-3" points="632.6 330.11 646.16 370.72 690.06 370.72 654.54 395.81 668.11 436.41 632.6 411.32 597.08 436.41 610.65 395.81 575.13 370.72 619.03 370.72 632.6 330.11"/>
    <polygon class="cls-3" points="767.54 330.11 781.1 370.72 825 370.72 789.49 395.81 803.05 436.41 767.54 411.32 732.02 436.41 745.59 395.81 710.07 370.72 753.97 370.72 767.54 330.11"/>
    <polygon class="cls-3" points="902.48 330.11 916.04 370.72 959.94 370.72 924.43 395.81 937.99 436.41 902.48 411.32 866.96 436.41 880.53 395.81 845.01 370.72 888.91 370.72 902.48 330.11"/>
    <polygon class="cls-3" points="1037.42 330.11 1050.98 370.72 1094.88 370.72 1059.37 395.81 1072.93 436.41 1037.42 411.32 1001.9 436.41 1015.47 395.81 979.95 370.72 1023.85 370.72 1037.42 330.11"/>
    <polygon class="cls-3" points="1172.36 330.11 1185.92 370.72 1229.82 370.72 1194.31 395.81 1207.87 436.41 1172.36 411.32 1136.84 436.41 1150.41 395.81 1114.89 370.72 1158.79 370.72 1172.36 330.11"/>
  </g>
</svg>