<?xml version="1.0" encoding="UTF-8"?>
<svg id="Layer_1" data-name="Layer 1" xmlns="http://www.w3.org/2000/svg" xmlns:xlink="http://www.w3.org/1999/xlink" viewBox="0 0 1810 768">
  <defs>
    <style>
      .cls-1 {
        fill: url(#linear-gradient);
      }

      .cls-1, .cls-2 {
        stroke-width: 0px;
      }

      .cls-2 {
        fill: #dc4a64;
      }
    </style>
    <linearGradient id="linear-gradient" x1="1318.95" y1="-19.93" x2="486.63" y2="792.83" gradientUnits="userSpaceOnUse">
      <stop offset="0" stop-color="#ffccc1"/>
      <stop offset="1" stop-color="#dd9181"/>
    </linearGradient>
  </defs>
  <rect class="cls-1" x=".86" y=".08" width="1808.65" height="768.06"/>
  <g>
    <path class="cls-2" d="M800.7,337.62l23.73-40.52h4.69l-26.42,44.9v27.28h-4.09v-27.38l-25.82-44.8h4.59l23.33,40.52Z"/>
    <path class="cls-2" d="M829.81,333.14c0-21.9,12.46-37.34,32.9-37.34s33,14.93,33,37.34-12.86,37.44-33,37.44-32.9-15.53-32.9-37.44ZM891.33,333.14c0-21.41-12.26-33.45-28.61-33.45s-28.51,12.05-28.51,33.45,12.26,33.55,28.51,33.55,28.61-12.15,28.61-33.55Z"/>
    <path class="cls-2" d="M907.38,297.1h4.09v43.61c0,17.42,6.38,25.99,23.53,25.99s23.53-8.56,23.53-25.99v-43.61h4.09v42.91c0,21.71-8.17,30.57-27.62,30.57s-27.61-8.86-27.61-30.57v-42.91Z"/>
    <path class="cls-2" d="M1000.09,335.93h-17.35v33.35h-4.09v-72.18h21.53c16.55,0,28.41,2.99,28.41,19.22,0,12.15-6.68,17.13-17.05,18.82l18.14,34.15h-4.59l-17.75-33.55c-2.29.2-4.68.2-7.28.2ZM982.74,332.24h17.25c13.66,0,24.23-1.79,24.23-15.73s-10.57-15.73-24.23-15.73h-17.25v31.46Z"/>
    <path class="cls-2" d="M714.07,490.05c-20.74,0-32.2-16.03-32.2-37.44s11.56-37.34,32.4-37.34c15.35,0,26.72,8.16,29.81,22.8h-4.29c-2.99-12.94-13.26-18.92-25.62-18.92-16.65,0-27.91,12.94-27.91,33.45s11.17,33.55,27.81,33.55c13.86,0,23.33-7.17,26.02-18.92h4.29c-3.09,14.64-14.56,22.8-30.31,22.8Z"/>
    <path class="cls-2" d="M755.15,416.57h4.09v43.61c0,17.42,6.38,25.99,23.53,25.99s23.53-8.56,23.53-25.99v-43.61h4.09v42.91c0,21.71-8.17,30.57-27.62,30.57s-27.62-8.86-27.62-30.57v-42.91Z"/>
    <path class="cls-2" d="M847.86,455.4h-17.35v33.35h-4.09v-72.18h21.53c16.55,0,28.41,2.99,28.41,19.22,0,12.15-6.68,17.13-17.05,18.82l18.14,34.15h-4.59l-17.75-33.55c-2.29.2-4.68.2-7.28.2ZM830.51,451.72h17.25c13.66,0,24.23-1.79,24.23-15.73s-10.57-15.73-24.23-15.73h-17.25v31.46Z"/>
    <path class="cls-2" d="M911.17,455.4h-17.35v33.35h-4.09v-72.18h21.53c16.55,0,28.41,2.99,28.41,19.22,0,12.15-6.68,17.13-17.05,18.82l18.14,34.15h-4.59l-17.75-33.55c-2.29.2-4.68.2-7.28.2ZM893.82,451.72h17.25c13.66,0,24.23-1.79,24.23-15.73s-10.57-15.73-24.23-15.73h-17.25v31.46Z"/>
    <path class="cls-2" d="M998.3,416.57v3.88h-41.17v28.97h38.68v3.78h-38.68v31.66h41.17v3.88h-45.26v-72.18h45.26Z"/>
    <path class="cls-2" d="M1014.55,421.65v67.11h-4.09v-72.18h5.48l45.26,67.11v-67.11h4.09v72.18h-5.48l-45.26-67.11Z"/>
    <path class="cls-2" d="M1073.86,420.46v-3.88h54.63v3.88h-25.32v68.3h-4.09v-68.3h-25.22Z"/>
    <path class="cls-2" d="M762.77,574.88h-17.35v33.35h-4.09v-72.18h21.53c16.55,0,28.41,2.99,28.41,19.22,0,12.15-6.68,17.13-17.05,18.82l18.14,34.15h-4.59l-17.75-33.55c-2.29.2-4.69.2-7.28.2ZM745.43,571.2h17.25c13.66,0,24.23-1.79,24.23-15.73s-10.57-15.73-24.23-15.73h-17.25v31.46Z"/>
    <path class="cls-2" d="M829.77,536.05l28.01,72.18h-4.39l-7.58-19.61h-36.49l-7.48,19.61h-4.29l27.91-72.18h4.29ZM844.32,584.74l-16.75-43.81-16.75,43.81h33.5Z"/>
    <path class="cls-2" d="M851.6,539.93v-3.88h54.63v3.88h-25.32v68.3h-4.09v-68.3h-25.22Z"/>
    <path class="cls-2" d="M914.8,608.23v-72.18h4.09v72.18h-4.09Z"/>
    <path class="cls-2" d="M940.13,541.13v67.11h-4.09v-72.18h5.48l45.26,67.11v-67.11h4.09v72.18h-5.48l-45.26-67.11Z"/>
    <path class="cls-2" d="M1061.65,557.56c-2.89-13.04-13.36-18.92-25.52-18.92-16.75,0-28.11,12.94-28.11,33.45s10.97,33.55,27.71,33.55c12.46,0,26.22-5.97,26.22-24.59v-3.29h-20.74v-3.78h24.72v34.25h-3.79l-.1-13.04c-3.99,8.36-11.96,14.34-26.42,14.34-20.74,0-32-16.03-32-37.44s11.76-37.34,32.6-37.34c15.15,0,26.72,7.77,29.71,22.8h-4.29Z"/>
  </g>
  <g>
    <path class="cls-2" d="M827.28,139.49h-1.41v-4.35h.9c18.84,0,27.3-7.94,27.3-20.22,0-11.26-10-18.94-23.71-18.94s-23.97,7.17-26.28,21.25h-5.26c2.56-16,14.1-25.73,31.92-25.73,16.28,0,28.71,8.58,28.71,23.04,0,12.42-8.33,20.35-18.59,22.53,11.79,1.79,20.89,9.09,20.89,23.81,0,17.66-15,26.75-32.17,26.75-18.2,0-30.12-10.75-32.56-26.88h5.25c3.08,15.36,13.59,22.27,27.3,22.27,15,0,26.79-7.94,26.79-21.89,0-15.36-11.66-21.63-29.1-21.63Z"/>
    <path class="cls-2" d="M878.42,172.64h5v13.31h-5v-13.31Z"/>
    <path class="cls-2" d="M910.21,181.09h57.29v4.86h-64.09v-4.99c36.4-27.14,55.63-46.08,55.63-64.9,0-13.57-10.38-20.1-22.43-20.1s-24.74,5.89-25.63,25.34h-5.26c1.03-20.22,13.59-29.83,30.89-29.83s27.81,8.7,27.81,24.19c0,20.22-19.23,39.81-54.22,65.41Z"/>
    <path class="cls-2" d="M987.45,163.06c-4.67,0-8.36,2.15-10,5.53l-1.85-.26,2.56-19.51h20.61v2h-18.87l-2.05,14.7c1.74-2.25,5.28-4.3,10.05-4.3,7.13,0,12.41,4.86,12.41,12.8s-5.95,12.6-12.97,12.6-12.05-4.15-13.02-10.75h2.1c1.08,6.2,5.44,8.91,10.92,8.91,5.95,0,10.82-3.94,10.82-10.75s-4.67-10.96-10.72-10.96Z"/>
    <path class="cls-2" d="M1011.34,155.59h-7.95v-1.49c6.51,0,7.49-.87,8.46-5.27h1.49v37.13h-2v-30.37Z"/>
  </g>
</svg>