<?xml version="1.0" encoding="UTF-8"?>
<svg id="Layer_1" data-name="Layer 1" xmlns="http://www.w3.org/2000/svg" xmlns:xlink="http://www.w3.org/1999/xlink" viewBox="0 0 1125 2436">
  <defs>
    <style>
      .cls-1 {
        fill: url(#linear-gradient);
      }

      .cls-1, .cls-2, .cls-3, .cls-4 {
        stroke-width: 0px;
      }

      .cls-2 {
        fill: #873059;
      }

      .cls-3 {
        fill: #770f34;
      }

      .cls-4 {
        fill: #e3d9b5;
      }
    </style>
    <linearGradient id="linear-gradient" x1="1130.36" y1="665.49" x2="-11.94" y2="1780.94" gradientUnits="userSpaceOnUse">
      <stop offset="0" stop-color="#ff7d61"/>
      <stop offset="1" stop-color="#9c4157"/>
    </linearGradient>
  </defs>
  <rect class="cls-1" y="-2" width="1125" height="2444"/>
  <g>
    <path class="cls-3" d="M448.2,697.62h-27.9v-5.22c22.86,0,26.28-3.06,29.7-18.54h5.22v130.5h-7.02v-106.74Z"/>
    <path class="cls-3" d="M488.7,785.64h7.02v18.72h-7.02v-18.72Z"/>
    <path class="cls-3" d="M588.59,768.36v36h-7.2v-36h-72.36v-6.3l72.72-88.2h6.84v87.84h26.64v6.66h-26.64ZM581.39,761.7v-77.94l-63.9,77.94h63.9Z"/>
    <path class="cls-3" d="M640.55,751.22c13.68,0,20.02,11.09,20.02,27s-6.34,27.07-20.02,27.07-20.16-11.09-20.16-27.07,6.34-27,20.16-27ZM640.55,753.74c-10.44,0-17.14,8.35-17.14,24.48s6.7,24.48,17.14,24.48,16.99-8.28,16.99-24.48-6.62-24.48-16.99-24.48Z"/>
    <path class="cls-3" d="M693.61,776.28c5.47,1.73,11.09,5.54,11.09,13.83,0,9.72-7.92,15.19-18.58,15.19s-18.58-5.47-18.58-15.19c0-8.28,5.69-12.1,11.16-13.83-5.76-1.51-9.5-6.34-9.5-12.1,0-7.63,6.55-12.96,16.92-12.96s16.99,5.33,16.99,12.96c0,5.76-3.82,10.58-9.5,12.1ZM686.12,802.7c9.36,0,15.63-4.68,15.63-12.6s-6.26-12.53-15.63-12.53-15.55,4.61-15.55,12.53,6.19,12.6,15.55,12.6ZM672.08,764.47c0,5.91,4.75,10.73,14.04,10.73s14.04-4.82,14.04-10.73c0-6.7-5.47-10.73-14.04-10.73s-14.04,4.03-14.04,10.73Z"/>
  </g>
  <g>
    <polygon class="cls-2" points="183.25 1231.83 202.31 1289 264 1289 214.09 1324.33 233.16 1381.51 183.25 1346.17 133.34 1381.51 152.41 1324.33 102.5 1289 164.19 1289 183.25 1231.83"/>
    <polygon class="cls-4" points="372.87 1231.83 391.94 1289 453.62 1289 403.72 1324.33 422.78 1381.51 372.87 1346.17 322.97 1381.51 342.03 1324.33 292.13 1289 353.81 1289 372.87 1231.83"/>
    <polygon class="cls-4" points="562.5 1231.83 581.56 1289 643.25 1289 593.34 1324.33 612.41 1381.51 562.5 1346.17 512.59 1381.51 531.66 1324.33 481.75 1289 543.44 1289 562.5 1231.83"/>
    <polygon class="cls-4" points="752.13 1231.83 771.19 1289 832.87 1289 782.97 1324.33 802.03 1381.51 752.13 1346.17 702.22 1381.51 721.28 1324.33 671.38 1289 733.06 1289 752.13 1231.83"/>
    <polygon class="cls-4" points="941.75 1231.83 960.81 1289 1022.5 1289 972.59 1324.33 991.66 1381.51 941.75 1346.17 891.84 1381.51 910.91 1324.33 861 1289 922.69 1289 941.75 1231.83"/>
  </g>
</svg>