<?xml version="1.0" encoding="UTF-8"?>
<svg id="Layer_1" data-name="Layer 1" xmlns="http://www.w3.org/2000/svg" xmlns:xlink="http://www.w3.org/1999/xlink" viewBox="0 0 1125 2436">
  <defs>
    <style>
      .cls-1 {
        fill: url(#linear-gradient);
      }

      .cls-1, .cls-2, .cls-3 {
        stroke-width: 0px;
      }

      .cls-2 {
        fill: #770f34;
      }

      .cls-3 {
        fill: #e3d9b5;
      }
    </style>
    <linearGradient id="linear-gradient" x1="1130.04" y1="666.79" x2="-11.62" y2="1781.63" gradientUnits="userSpaceOnUse">
      <stop offset="0" stop-color="#ff7d61"/>
      <stop offset="1" stop-color="#9c4157"/>
    </linearGradient>
  </defs>
  <rect class="cls-1" width="1125" height="2442"/>
  <g>
    <polygon class="cls-3" points="183.25 1233.83 202.31 1291 264 1291 214.09 1326.33 233.16 1383.51 183.25 1348.17 133.34 1383.51 152.41 1326.33 102.5 1291 164.19 1291 183.25 1233.83"/>
    <polygon class="cls-3" points="372.87 1233.83 391.94 1291 453.62 1291 403.72 1326.33 422.78 1383.51 372.87 1348.17 322.97 1383.51 342.03 1326.33 292.13 1291 353.81 1291 372.87 1233.83"/>
    <polygon class="cls-3" points="562.5 1233.83 581.56 1291 643.25 1291 593.34 1326.33 612.41 1383.51 562.5 1348.17 512.59 1383.51 531.66 1326.33 481.75 1291 543.44 1291 562.5 1233.83"/>
    <polygon class="cls-3" points="752.13 1233.83 771.19 1291 832.87 1291 782.97 1326.33 802.03 1383.51 752.13 1348.17 702.22 1383.51 721.28 1326.33 671.38 1291 733.06 1291 752.13 1233.83"/>
    <polygon class="cls-3" points="941.75 1233.83 960.81 1291 1022.5 1291 972.59 1326.33 991.66 1383.51 941.75 1348.17 891.84 1383.51 910.91 1326.33 861 1291 922.69 1291 941.75 1233.83"/>
  </g>
  <g>
    <path class="cls-2" d="M453.1,741.02h-1.98v-6.12h1.26c26.46,0,38.34-11.16,38.34-28.44,0-15.84-14.04-26.64-33.3-26.64s-33.66,10.08-36.9,29.88h-7.38c3.6-22.5,19.8-36.18,44.82-36.18,22.86,0,40.32,12.06,40.32,32.4,0,17.46-11.7,28.62-26.1,31.68,16.56,2.52,29.34,12.78,29.34,33.48,0,24.84-21.06,37.62-45.18,37.62-25.56,0-42.3-15.12-45.72-37.8h7.38c4.32,21.6,19.08,31.32,38.34,31.32,21.06,0,37.62-11.16,37.62-30.78,0-21.6-16.38-30.42-40.86-30.42Z"/>
    <path class="cls-2" d="M524.92,787.64h7.02v18.72h-7.02v-18.72Z"/>
    <path class="cls-2" d="M569.55,799.52h80.46v6.84h-90v-7.02c51.12-38.16,78.12-64.8,78.12-91.26,0-19.08-14.58-28.26-31.5-28.26s-34.74,8.28-36,35.64h-7.38c1.44-28.44,19.08-41.94,43.38-41.94s39.06,12.24,39.06,34.02c0,28.44-27,55.98-76.14,91.98Z"/>
    <path class="cls-2" d="M678.02,774.17c-6.55,0-11.74,3.02-14.04,7.78l-2.59-.36,3.6-27.43h28.95v2.81h-26.5l-2.88,20.67c2.45-3.17,7.42-6.05,14.11-6.05,10.01,0,17.42,6.84,17.42,18s-8.35,17.71-18.22,17.71-16.92-5.83-18.29-15.12h2.95c1.51,8.71,7.63,12.53,15.34,12.53,8.35,0,15.19-5.54,15.19-15.12s-6.55-15.41-15.05-15.41Z"/>
    <path class="cls-2" d="M711.57,763.66h-11.16v-2.09c9.14,0,10.51-1.22,11.88-7.42h2.09v52.2h-2.81v-42.7Z"/>
  </g>
</svg>