<?xml version="1.0" encoding="UTF-8"?>
<svg id="Layer_1" data-name="Layer 1" xmlns="http://www.w3.org/2000/svg" xmlns:xlink="http://www.w3.org/1999/xlink" viewBox="0 0 1125 2436">
  <defs>
    <style>
      .cls-1 {
        fill: url(#linear-gradient);
      }

      .cls-1, .cls-2 {
        stroke-width: 0px;
      }

      .cls-2 {
        fill: #231f20;
      }
    </style>
    <linearGradient id="linear-gradient" x1="1128.94" y1="665.37" x2="-10.5" y2="1778.04" gradientUnits="userSpaceOnUse">
      <stop offset="0" stop-color="#ff7d61"/>
      <stop offset="1" stop-color="#9c4157"/>
    </linearGradient>
  </defs>
  <rect class="cls-1" y="1" width="1125" height="2435"/>
  <g>
    <path class="cls-2" d="M402.26,710.34v53.92h-3.28v-58h4.4l36.32,53.92v-53.92h3.28v58h-4.4l-36.32-53.92Z"/>
    <path class="cls-2" d="M491.94,742.9c0,15.2-8.64,22.4-19.28,22.4s-19.2-7.2-19.2-22.4,8.64-22.4,19.2-22.4,19.28,7.28,19.28,22.4ZM488.58,742.9c0-13.04-6.72-19.52-15.92-19.52s-15.92,6.48-15.92,19.52,6.72,19.52,15.92,19.52,15.92-6.4,15.92-19.52Z"/>
    <path class="cls-2" d="M515.46,723.39c-5.44,0-12.32,2.4-12.32,8.08,0,4.8,3.68,7.2,9.12,8.32l6.32,1.2c7.6,1.52,14.64,4.16,14.64,11.84,0,8.24-7.76,12.48-16.8,12.48-9.76,0-16.08-5.12-17.52-13.6h3.28c1.44,6.64,6.24,10.72,14.64,10.72,5.92,0,13.12-2.56,13.12-9.12,0-5.84-5.04-8-11.76-9.28l-6.64-1.28c-6.88-1.36-11.6-4.88-11.6-11.12,0-6.72,7.36-11.12,15.92-11.12s14.96,4.4,16.32,11.84h-3.2c-1.6-6.48-6.88-8.96-13.52-8.96Z"/>
    <path class="cls-2" d="M559.46,720.5c11.92,0,19.36,9.28,18.96,22.56h-35.44c-.08,12.96,7.76,19.36,16.88,19.36,7.6,0,12.96-3.68,14.72-10.8h3.2c-1.84,8.64-8.56,13.68-18.08,13.68-12.4,0-20-9.12-20-22.48s7.92-22.32,19.76-22.32ZM575.06,740.26c-.08-8.8-5.84-16.96-15.68-16.96-9.28,0-15.6,6.4-16.32,16.96h32Z"/>
    <path class="cls-2" d="M622.9,706.26v58h-3.12v-9.2c-2.64,6.32-8.32,10.24-15.52,10.24-10.16,0-18.24-8.08-18.24-22.4s8.08-22.4,18.24-22.4c7.2,0,12.88,3.92,15.52,10.24v-24.48h3.12ZM589.3,742.9c0,12.64,6.88,19.52,15.36,19.52,7.44,0,15.44-5.44,15.44-19.52s-8-19.52-15.44-19.52c-8.48,0-15.36,6.88-15.36,19.52Z"/>
    <path class="cls-2" d="M639.14,713.94h-3.12v-7.68h3.12v7.68ZM639.14,764.27h-3.12v-43.04h3.12v43.04Z"/>
    <path class="cls-2" d="M679.46,721.22h3.52l-16.8,43.04h-3.12l-16.96-43.04h3.52l15.04,38.88,14.8-38.88Z"/>
    <path class="cls-2" d="M705.78,720.5c11.92,0,19.36,9.28,18.96,22.56h-35.44c-.08,12.96,7.76,19.36,16.88,19.36,7.6,0,12.96-3.68,14.72-10.8h3.2c-1.84,8.64-8.56,13.68-18.08,13.68-12.4,0-20-9.12-20-22.48s7.92-22.32,19.76-22.32ZM721.38,740.26c-.08-8.8-5.84-16.96-15.68-16.96-9.28,0-15.6,6.4-16.32,16.96h32Z"/>
    <path class="cls-2" d="M380.03,898.26c10.72,0,19.04,3.12,19.04,14.32,0,6.4-2.08,10.8-8.88,13.2,7.2,1.52,11.36,5.68,11.36,14.24,0,11.6-8.16,16.24-19.44,16.24h-22.72v-58h20.64ZM381.23,924.67c8.72,0,14.4-3.12,14.4-11.84s-6.08-11.6-15.12-11.6h-17.84v23.44h18.56ZM382.03,953.23c10.72,0,16-4.72,16-13.12,0-8.88-5.36-12.48-16.48-12.48h-18.88v25.6h19.36Z"/>
    <path class="cls-2" d="M411.86,956.27v-58h3.12v58h-3.12Z"/>
    <path class="cls-2" d="M439.62,957.31c-7.6,0-14.4-4.24-14.4-11.44,0-10.16,10.24-12.88,30.88-15.36v-2.48c0-11.2-6.4-12.96-13.04-12.96-8.56,0-12.64,4.88-13.2,10.64h-3.36c.8-7.76,7.04-13.52,16.64-13.52s16.08,3.6,16.08,15.84c0,4.16-.08,9.84-.08,13.44,0,5.36.16,9.92.48,14.8h-3.04l-.32-8.32c-2.72,6.24-8.64,9.36-16.64,9.36ZM428.58,945.71c0,5.44,5.12,8.72,11.76,8.72,7.92,0,15.92-4.16,15.92-16.72v-4.32c-20.72,2.4-27.68,5.04-27.68,12.32Z"/>
    <path class="cls-2" d="M502.1,926.99c-1.6-7.2-7.2-11.6-14.72-11.6-9.36,0-15.84,7.28-15.84,19.52,0,13.44,7.28,19.52,15.76,19.52s13.6-4.88,14.96-11.52h3.28c-1.76,8.72-8.64,14.4-18.32,14.4-12.24,0-18.96-9.12-18.96-22.32s7.04-22.48,19.36-22.48c9.6,0,16.16,6.32,17.68,14.48h-3.2Z"/>
    <path class="cls-2" d="M518.02,936.99l22.64-23.76h3.76l-16.96,17.84,18.96,25.2h-3.76l-17.28-23.04-7.36,7.76v15.28h-3.12v-58h3.12v38.72Z"/>
    <path class="cls-2" d="M575.54,901.47v54.8h-3.28v-58h5.36l22.08,54.16,22.08-54.16h5.36v58h-3.28v-54.8l-22.56,54.8h-3.2l-22.56-54.8Z"/>
    <path class="cls-2" d="M643.7,905.94h-3.12v-7.68h3.12v7.68ZM643.7,956.27h-3.12v-43.04h3.12v43.04Z"/>
    <path class="cls-2" d="M672.42,916.26c-10.08,0-12.56,8.24-12.56,20.24v19.76h-3.04v-43.04h2.88v9.28c1.68-5.36,6.16-9.52,13.12-9.52h1.12v3.28h-1.52Z"/>
    <path class="cls-2" d="M696.42,916.26c-10.08,0-12.56,8.24-12.56,20.24v19.76h-3.04v-43.04h2.88v9.28c1.68-5.36,6.16-9.52,13.12-9.52h1.12v3.28h-1.52Z"/>
    <path class="cls-2" d="M740.34,934.91c0,15.2-8.64,22.4-19.28,22.4s-19.2-7.2-19.2-22.4,8.64-22.4,19.2-22.4,19.28,7.28,19.28,22.4ZM736.98,934.91c0-13.04-6.72-19.52-15.92-19.52s-15.92,6.48-15.92,19.52,6.72,19.52,15.92,19.52,15.92-6.4,15.92-19.52Z"/>
    <path class="cls-2" d="M766.1,916.26c-10.08,0-12.56,8.24-12.56,20.24v19.76h-3.04v-43.04h2.88v9.28c1.68-5.36,6.16-9.52,13.12-9.52h1.12v3.28h-1.52Z"/>
    <path class="cls-2" d="M278.39,1008.9h-3.44c-2.08-8.48-8.96-12.56-18.32-12.56-7.6,0-16.24,2.96-16.24,10.88,0,6.8,5.68,10.32,12.96,12l7.12,1.6c8.48,2,19.12,5.36,19.12,16.08s-10.4,16.4-21.44,16.4c-12.48,0-21.04-6.24-23.04-18.32h3.44c2.32,10.88,9.84,15.2,19.44,15.2,7.36,0,18.16-2.72,18.16-12.8,0-7.92-7.44-11.36-16.24-13.36l-7.6-1.68c-7.44-1.76-15.36-5.68-15.36-14.88,0-10.08,10.64-14.24,19.92-14.24,11.2,0,19.44,5.36,21.52,15.68Z"/>
    <path class="cls-2" d="M305.75,1008.51c11.92,0,19.36,9.28,18.96,22.56h-35.44c-.08,12.96,7.76,19.36,16.88,19.36,7.6,0,12.96-3.68,14.72-10.8h3.2c-1.84,8.64-8.56,13.68-18.08,13.68-12.4,0-20-9.12-20-22.48s7.92-22.32,19.76-22.32ZM321.35,1028.26c-.08-8.8-5.84-16.96-15.68-16.96-9.28,0-15.6,6.4-16.32,16.96h32Z"/>
    <path class="cls-2" d="M350.46,1012.26c-10.08,0-12.56,8.24-12.56,20.24v19.76h-3.04v-43.04h2.88v9.28c1.68-5.36,6.16-9.52,13.12-9.52h1.12v3.28h-1.52Z"/>
    <path class="cls-2" d="M361.98,1001.94h-3.12v-7.68h3.12v7.68ZM361.98,1052.27h-3.12v-43.04h3.12v43.04Z"/>
    <path class="cls-2" d="M391.9,1008.51c11.92,0,19.36,9.28,18.96,22.56h-35.44c-.08,12.96,7.76,19.36,16.88,19.36,7.6,0,12.96-3.68,14.72-10.8h3.2c-1.84,8.64-8.56,13.68-18.08,13.68-12.4,0-20-9.12-20-22.48s7.92-22.32,19.76-22.32ZM407.5,1028.26c-.08-8.8-5.84-16.96-15.68-16.96-9.28,0-15.6,6.4-16.32,16.96h32Z"/>
    <path class="cls-2" d="M434.54,1011.39c-5.44,0-12.32,2.4-12.32,8.08,0,4.8,3.68,7.2,9.12,8.32l6.32,1.2c7.6,1.52,14.64,4.16,14.64,11.84,0,8.24-7.76,12.48-16.8,12.48-9.76,0-16.08-5.12-17.52-13.6h3.28c1.44,6.64,6.24,10.72,14.64,10.72,5.92,0,13.12-2.56,13.12-9.12,0-5.84-5.04-8-11.76-9.28l-6.64-1.28c-6.88-1.36-11.6-4.88-11.6-11.12,0-6.72,7.36-11.12,15.92-11.12s14.96,4.4,16.32,11.84h-3.2c-1.6-6.48-6.88-8.96-13.52-8.96Z"/>
    <path class="cls-2" d="M494.38,1023.22h-.88v-2.72h.56c11.76,0,17.04-4.96,17.04-12.64,0-7.04-6.24-11.84-14.8-11.84s-14.96,4.48-16.4,13.28h-3.28c1.6-10,8.8-16.08,19.92-16.08,10.16,0,17.92,5.36,17.92,14.4,0,7.76-5.2,12.72-11.6,14.08,7.36,1.12,13.04,5.68,13.04,14.88,0,11.04-9.36,16.72-20.08,16.72-11.36,0-18.8-6.72-20.32-16.8h3.28c1.92,9.6,8.48,13.92,17.04,13.92,9.36,0,16.72-4.96,16.72-13.68,0-9.6-7.28-13.52-18.16-13.52Z"/>
    <path class="cls-2" d="M529.42,1052.27c0,6.96-.32,11.6-5.84,12.24v-3.12c2.4-.72,2.72-2.32,2.72-9.04v-8.4h3.12v8.32Z"/>
    <path class="cls-2" d="M599.26,994.26v3.12h-33.04v23.28h31.04v3.04h-31.04v25.44h33.04v3.12h-36.32v-58h36.32Z"/>
    <path class="cls-2" d="M611.82,1018.75c2.64-6.32,8.32-10.24,15.52-10.24,10.16,0,18.24,8.16,18.24,22.4s-8.08,22.4-18.24,22.4c-7.2,0-12.88-3.92-15.52-10.24v23.2h-3.12v-57.04h3.12v9.52ZM642.3,1030.91c0-12.64-6.88-19.52-15.36-19.52-7.44,0-15.44,5.52-15.44,19.52s8,19.52,15.44,19.52c8.48,0,15.36-6.88,15.36-19.52Z"/>
    <path class="cls-2" d="M658.86,1001.94h-3.12v-7.68h3.12v7.68ZM658.86,1052.27h-3.12v-43.04h3.12v43.04Z"/>
    <path class="cls-2" d="M685.34,1011.39c-5.44,0-12.32,2.4-12.32,8.08,0,4.8,3.68,7.2,9.12,8.32l6.32,1.2c7.6,1.52,14.64,4.16,14.64,11.84,0,8.24-7.76,12.48-16.8,12.48-9.76,0-16.08-5.12-17.52-13.6h3.28c1.44,6.64,6.24,10.72,14.64,10.72,5.92,0,13.12-2.56,13.12-9.12,0-5.84-5.04-8-11.76-9.28l-6.64-1.28c-6.88-1.36-11.6-4.88-11.6-11.12,0-6.72,7.36-11.12,15.92-11.12s14.96,4.4,16.32,11.84h-3.2c-1.6-6.48-6.88-8.96-13.52-8.96Z"/>
    <path class="cls-2" d="M748.06,1030.91c0,15.2-8.64,22.4-19.28,22.4s-19.2-7.2-19.2-22.4,8.64-22.4,19.2-22.4,19.28,7.28,19.28,22.4ZM744.7,1030.91c0-13.04-6.72-19.52-15.92-19.52s-15.92,6.48-15.92,19.52,6.72,19.52,15.92,19.52,15.92-6.4,15.92-19.52Z"/>
    <path class="cls-2" d="M792.14,994.26v58h-3.12v-9.2c-2.64,6.32-8.32,10.24-15.52,10.24-10.16,0-18.24-8.08-18.24-22.4s8.08-22.4,18.24-22.4c7.2,0,12.88,3.92,15.52,10.24v-24.48h3.12ZM758.54,1030.91c0,12.64,6.88,19.52,15.36,19.52,7.44,0,15.44-5.44,15.44-19.52s-8-19.52-15.44-19.52c-8.48,0-15.36,6.88-15.36,19.52Z"/>
    <path class="cls-2" d="M822.06,1008.51c11.92,0,19.36,9.28,18.96,22.56h-35.44c-.08,12.96,7.76,19.36,16.88,19.36,7.6,0,12.96-3.68,14.72-10.8h3.2c-1.84,8.64-8.56,13.68-18.08,13.68-12.4,0-20-9.12-20-22.48s7.92-22.32,19.76-22.32ZM837.66,1028.26c-.08-8.8-5.84-16.96-15.68-16.96-9.28,0-15.6,6.4-16.32,16.96h32Z"/>
    <path class="cls-2" d="M877.41,1004.82h-12.4v-2.32c10.16,0,11.68-1.36,13.2-8.24h2.32v58h-3.12v-47.44Z"/>
    <path class="cls-2" d="M208.59,1215.22c0,22.4-13.04,29.04-31.52,29.04h-13.52v-58h13.52c18.48,0,31.52,6.64,31.52,28.96ZM166.83,1189.22v52h9.92c14.08,0,28.32-3.36,28.32-26s-14.24-26-28.32-26h-9.92Z"/>
    <path class="cls-2" d="M221.63,1193.94h-3.12v-7.68h3.12v7.68ZM221.63,1244.27h-3.12v-43.04h3.12v43.04Z"/>
    <path class="cls-2" d="M250.34,1204.26c-10.08,0-12.56,8.24-12.56,20.24v19.76h-3.04v-43.04h2.88v9.28c1.68-5.36,6.16-9.52,13.12-9.52h1.12v3.28h-1.52Z"/>
    <path class="cls-2" d="M275.54,1200.51c11.92,0,19.36,9.28,18.96,22.56h-35.44c-.08,12.96,7.76,19.36,16.88,19.36,7.6,0,12.96-3.68,14.72-10.8h3.2c-1.84,8.64-8.56,13.68-18.08,13.68-12.4,0-20-9.12-20-22.48s7.92-22.32,19.76-22.32ZM291.14,1220.26c-.08-8.8-5.84-16.96-15.68-16.96-9.28,0-15.6,6.4-16.32,16.96h32Z"/>
    <path class="cls-2" d="M335.94,1214.99c-1.6-7.2-7.2-11.6-14.72-11.6-9.36,0-15.84,7.28-15.84,19.52,0,13.44,7.28,19.52,15.76,19.52s13.6-4.88,14.96-11.52h3.28c-1.76,8.72-8.64,14.4-18.32,14.4-12.24,0-18.96-9.12-18.96-22.32s7.04-22.48,19.36-22.48c9.6,0,16.16,6.32,17.68,14.48h-3.2Z"/>
    <path class="cls-2" d="M353.94,1191.06v10.16h8.96v2.72h-8.96v29.44c0,6.72.24,8,6.96,8h2v2.88h-3.04c-7.44,0-8.96-1.6-8.96-9.76v-30.56h-7.6v-2.72h7.6v-10.16h3.04Z"/>
    <path class="cls-2" d="M388.58,1200.51c11.92,0,19.36,9.28,18.96,22.56h-35.44c-.08,12.96,7.76,19.36,16.88,19.36,7.6,0,12.96-3.68,14.72-10.8h3.2c-1.84,8.64-8.56,13.68-18.08,13.68-12.4,0-20-9.12-20-22.48s7.92-22.32,19.76-22.32ZM404.18,1220.26c-.08-8.8-5.84-16.96-15.68-16.96-9.28,0-15.6,6.4-16.32,16.96h32Z"/>
    <path class="cls-2" d="M452.02,1186.26v58h-3.12v-9.2c-2.64,6.32-8.32,10.24-15.52,10.24-10.16,0-18.24-8.08-18.24-22.4s8.08-22.4,18.24-22.4c7.2,0,12.88,3.92,15.52,10.24v-24.48h3.12ZM418.42,1222.91c0,12.64,6.88,19.52,15.36,19.52,7.44,0,15.44-5.44,15.44-19.52s-8-19.52-15.44-19.52c-8.48,0-15.36,6.88-15.36,19.52Z"/>
    <path class="cls-2" d="M487.22,1210.75c2.64-6.32,8.32-10.24,15.52-10.24,10.16,0,18.24,8.16,18.24,22.4s-8.08,22.4-18.24,22.4c-7.2,0-12.88-3.92-15.52-10.24v9.2h-3.12v-58h3.12v24.48ZM517.7,1222.91c0-12.64-6.88-19.52-15.36-19.52-7.44,0-15.44,5.52-15.44,19.52s8,19.52,15.44,19.52c8.48,0,15.36-6.88,15.36-19.52Z"/>
    <path class="cls-2" d="M528.26,1255.47h2.48c4.88,0,6-.32,8.8-7.36l1.52-3.92-17.04-42.96h3.52l15.04,38.8,14.8-38.8h3.52l-18.48,47.28c-3.2,8.08-4.64,9.76-11.76,9.76h-2.4v-2.8Z"/>
    <path class="cls-2" d="M615.62,1186.26v37.76c0,16.16-8,21.28-17.28,21.28s-16.96-4.8-17.2-20.32h3.28c0,14.64,7.84,17.2,13.92,17.2s14-2.64,14-17.28v-38.64h3.28Z"/>
    <path class="cls-2" d="M664.5,1222.91c0,15.2-8.64,22.4-19.28,22.4s-19.2-7.2-19.2-22.4,8.64-22.4,19.2-22.4,19.28,7.28,19.28,22.4ZM661.14,1222.91c0-13.04-6.72-19.52-15.92-19.52s-15.92,6.48-15.92,19.52,6.72,19.52,15.92,19.52,15.92-6.4,15.92-19.52Z"/>
    <path class="cls-2" d="M691.46,1200.51c11.92,0,19.36,9.28,18.96,22.56h-35.44c-.08,12.96,7.76,19.36,16.88,19.36,7.6,0,12.96-3.68,14.72-10.8h3.2c-1.84,8.64-8.56,13.68-18.08,13.68-12.4,0-20-9.12-20-22.48s7.92-22.32,19.76-22.32ZM707.06,1220.26c-.08-8.8-5.84-16.96-15.68-16.96-9.28,0-15.6,6.4-16.32,16.96h32Z"/>
    <path class="cls-2" d="M803.62,1186.26h3.6l-17.52,58h-3.44l-14.96-52.72-14.88,52.72h-3.44l-17.6-58h3.6l15.76,53.28,14.72-53.28h3.68l14.96,53.28,15.52-53.28Z"/>
    <path class="cls-2" d="M830.98,1204.26c-10.08,0-12.56,8.24-12.56,20.24v19.76h-3.04v-43.04h2.88v9.28c1.68-5.36,6.16-9.52,13.12-9.52h1.12v3.28h-1.52Z"/>
    <path class="cls-2" d="M842.5,1193.94h-3.12v-7.68h3.12v7.68ZM842.5,1244.27h-3.12v-43.04h3.12v43.04Z"/>
    <path class="cls-2" d="M870.89,1243.55c-10.16,0-18.24-8.08-18.24-21.52s8.08-21.52,18.24-21.52c7.2,0,12.88,3.92,15.52,10.16v-9.44h3.2v40.88c0,13.28-8.32,17.2-17.84,17.2s-16.16-4.88-16.96-12.64h3.28c.64,5.12,5.12,9.84,13.68,9.84,7.12,0,14.64-2.56,14.64-13.44v-9.68c-2.64,6.32-8.32,10.16-15.52,10.16ZM855.93,1222.03c0,11.84,6.88,18.72,15.36,18.72,7.44,0,15.44-5.52,15.44-18.72s-8-18.64-15.44-18.64c-8.48,0-15.36,6.88-15.36,18.64Z"/>
    <path class="cls-2" d="M920.97,1200.51c10.24,0,14.4,6.08,14.4,16.16v27.6h-3.12v-26.56c0-8.24-2.4-14.32-11.92-14.32s-14.56,7.84-14.56,19.76v21.12h-3.12v-58h3.12v24.88c1.76-5.04,6.16-10.64,15.2-10.64Z"/>
    <path class="cls-2" d="M952.49,1191.06v10.16h8.96v2.72h-8.96v29.44c0,6.72.24,8,6.96,8h2v2.88h-3.04c-7.44,0-8.96-1.6-8.96-9.76v-30.56h-7.6v-2.72h7.6v-10.16h3.04Z"/>
    <path class="cls-2" d="M342.03,1474.26h3.6l-17.52,58h-3.44l-14.96-52.72-14.88,52.72h-3.44l-17.6-58h3.6l15.76,53.28,14.72-53.28h3.68l14.96,53.28,15.52-53.28Z"/>
    <path class="cls-2" d="M363.3,1533.31c-7.6,0-14.4-4.24-14.4-11.44,0-10.16,10.24-12.88,30.88-15.36v-2.48c0-11.2-6.4-12.96-13.04-12.96-8.56,0-12.64,4.88-13.2,10.64h-3.36c.8-7.76,7.04-13.52,16.64-13.52s16.08,3.6,16.08,15.84c0,4.16-.08,9.84-.08,13.44,0,5.36.16,9.92.48,14.8h-3.04l-.32-8.32c-2.72,6.24-8.64,9.36-16.64,9.36ZM352.26,1521.71c0,5.44,5.12,8.72,11.76,8.72,7.92,0,15.92-4.16,15.92-16.72v-4.32c-20.72,2.4-27.68,5.04-27.68,12.32Z"/>
    <path class="cls-2" d="M400.1,1479.06v10.16h8.96v2.72h-8.96v29.44c0,6.72.24,8,6.96,8h2v2.88h-3.04c-7.44,0-8.96-1.6-8.96-9.76v-30.56h-7.6v-2.72h7.6v-10.16h3.04Z"/>
    <path class="cls-2" d="M448.82,1502.99c-1.6-7.2-7.2-11.6-14.72-11.6-9.36,0-15.84,7.28-15.84,19.52,0,13.44,7.28,19.52,15.76,19.52s13.6-4.88,14.96-11.52h3.28c-1.76,8.72-8.64,14.4-18.32,14.4-12.24,0-18.96-9.12-18.96-22.32s7.04-22.48,19.36-22.48c9.6,0,16.16,6.32,17.68,14.48h-3.2Z"/>
    <path class="cls-2" d="M479.94,1488.51c10.24,0,14.4,6.08,14.4,16.16v27.6h-3.12v-26.56c0-8.24-2.4-14.32-11.92-14.32s-14.56,7.84-14.56,19.76v21.12h-3.12v-58h3.12v24.88c1.76-5.04,6.16-10.64,15.2-10.64Z"/>
    <path class="cls-2" d="M560.74,1510.91c0,15.2-8.64,22.4-19.28,22.4s-19.2-7.2-19.2-22.4,8.64-22.4,19.2-22.4,19.28,7.28,19.28,22.4ZM557.38,1510.91c0-13.04-6.72-19.52-15.92-19.52s-15.92,6.48-15.92,19.52,6.72,19.52,15.92,19.52,15.92-6.4,15.92-19.52Z"/>
    <path class="cls-2" d="M589.22,1488.51c10.24,0,14.4,6.08,14.4,16.16v27.6h-3.12v-26.56c0-8.24-2.4-14.32-11.92-14.32s-14.56,7.84-14.56,19.76v21.12h-3.12v-43.04h3.12v9.92c1.76-5.04,6.16-10.64,15.2-10.64Z"/>
    <path class="cls-2" d="M638.1,1478.35v53.92h-3.28v-58h4.4l36.32,53.92v-53.92h3.28v58h-4.4l-36.32-53.92Z"/>
    <path class="cls-2" d="M709.06,1488.51c11.92,0,19.36,9.28,18.96,22.56h-35.44c-.08,12.96,7.76,19.36,16.88,19.36,7.6,0,12.96-3.68,14.72-10.8h3.2c-1.84,8.64-8.56,13.68-18.08,13.68-12.4,0-20-9.12-20-22.48s7.92-22.32,19.76-22.32ZM724.66,1508.26c-.08-8.8-5.84-16.96-15.68-16.96-9.28,0-15.6,6.4-16.32,16.96h32Z"/>
    <path class="cls-2" d="M743.38,1479.06v10.16h8.96v2.72h-8.96v29.44c0,6.72.24,8,6.96,8h2v2.88h-3.04c-7.44,0-8.96-1.6-8.96-9.76v-30.56h-7.6v-2.72h7.6v-10.16h3.04Z"/>
    <path class="cls-2" d="M772.42,1474.26h2.64v2.8h-1.52c-6.64,0-7.36,1.04-7.36,7.2v4.96h8.88v2.72h-8.88v40.32h-3.12v-40.32h-6.32v-2.72h6.32v-5.6c0-6.96,1.6-9.36,9.36-9.36Z"/>
    <path class="cls-2" d="M783.06,1532.27v-58h3.12v58h-3.12Z"/>
    <path class="cls-2" d="M802.42,1481.94h-3.12v-7.68h3.12v7.68ZM802.42,1532.27h-3.12v-43.04h3.12v43.04Z"/>
    <path class="cls-2" d="M847.46,1532.27h-3.84l-14.72-19.68-14.64,19.68h-3.68l16.48-22.16-15.52-20.88h3.76l13.68,18.4,13.68-18.4h3.68l-15.52,20.8,16.64,22.24Z"/>
  </g>
</svg>