<?xml version="1.0" encoding="UTF-8"?>
<svg id="Layer_1" data-name="Layer 1" xmlns="http://www.w3.org/2000/svg" xmlns:xlink="http://www.w3.org/1999/xlink" viewBox="0 0 1125 2436">
  <defs>
    <style>
      .cls-1 {
        fill: url(#linear-gradient);
      }

      .cls-1, .cls-2 {
        stroke-width: 0px;
      }

      .cls-2 {
        fill: #dc4a64;
      }
    </style>
    <linearGradient id="linear-gradient" x1="1129.57" y1="661.76" x2="-11.14" y2="1775.66" gradientUnits="userSpaceOnUse">
      <stop offset="0" stop-color="#ffccc1"/>
      <stop offset="1" stop-color="#dd9181"/>
    </linearGradient>
  </defs>
  <rect class="cls-1" y="-4" width="1125" height="2439"/>
  <g>
    <path class="cls-2" d="M453.1,741.02h-1.98v-6.12h1.26c26.46,0,38.34-11.16,38.34-28.44,0-15.84-14.04-26.64-33.3-26.64s-33.66,10.08-36.9,29.88h-7.38c3.6-22.5,19.8-36.18,44.82-36.18,22.86,0,40.32,12.06,40.32,32.4,0,17.46-11.7,28.62-26.1,31.68,16.56,2.52,29.34,12.78,29.34,33.48,0,24.84-21.06,37.62-45.18,37.62-25.56,0-42.3-15.12-45.72-37.8h7.38c4.32,21.6,19.08,31.32,38.34,31.32,21.06,0,37.62-11.16,37.62-30.78,0-21.6-16.38-30.42-40.86-30.42Z"/>
    <path class="cls-2" d="M524.92,787.64h7.02v18.72h-7.02v-18.72Z"/>
    <path class="cls-2" d="M569.55,799.52h80.46v6.84h-90v-7.02c51.12-38.16,78.12-64.8,78.12-91.26,0-19.08-14.58-28.26-31.5-28.26s-34.74,8.28-36,35.64h-7.38c1.44-28.44,19.08-41.94,43.38-41.94s39.06,12.24,39.06,34.02c0,28.44-27,55.98-76.14,91.98Z"/>
    <path class="cls-2" d="M678.02,774.17c-6.55,0-11.74,3.02-14.04,7.78l-2.59-.36,3.6-27.43h28.95v2.81h-26.5l-2.88,20.67c2.45-3.17,7.42-6.05,14.11-6.05,10.01,0,17.42,6.84,17.42,18s-8.35,17.71-18.22,17.71-16.92-5.83-18.29-15.12h2.95c1.51,8.71,7.63,12.53,15.34,12.53,8.35,0,15.19-5.54,15.19-15.12s-6.55-15.41-15.05-15.41Z"/>
    <path class="cls-2" d="M711.57,763.66h-11.16v-2.09c9.14,0,10.51-1.22,11.88-7.42h2.09v52.2h-2.81v-42.7Z"/>
  </g>
  <g>
    <path class="cls-2" d="M365.73,1292.62l33.32-56.98h6.58l-37.1,63.14v38.36h-5.74v-38.5l-36.26-63h6.44l32.76,56.98Z"/>
    <path class="cls-2" d="M406.61,1286.32c0-30.8,17.5-52.5,46.2-52.5s46.34,21,46.34,52.5-18.06,52.64-46.34,52.64-46.2-21.84-46.2-52.64ZM492.99,1286.32c0-30.1-17.22-47.04-40.18-47.04s-40.04,16.94-40.04,47.04,17.22,47.18,40.04,47.18,40.18-17.08,40.18-47.18Z"/>
    <path class="cls-2" d="M515.53,1235.64h5.74v61.32c0,24.5,8.96,36.54,33.04,36.54s33.04-12.04,33.04-36.54v-61.32h5.74v60.34c0,30.52-11.48,42.98-38.78,42.98s-38.78-12.46-38.78-42.98v-60.34Z"/>
    <path class="cls-2" d="M622.49,1250.2c0,12.18-.56,20.3-10.22,21.42v-5.46c4.2-1.26,4.76-4.06,4.76-15.82v-14.7h5.46v14.56Z"/>
    <path class="cls-2" d="M680.31,1329.44l35-93.8h6.16l-38.36,101.5h-6.02l-38.36-101.5h6.3l35.28,93.8Z"/>
    <path class="cls-2" d="M798.47,1235.64v5.46h-57.82v40.74h54.32v5.32h-54.32v44.52h57.82v5.46h-63.56v-101.5h63.56Z"/>
    <path class="cls-2" d="M435.8,1403.64c18.76,0,33.32,5.46,33.32,25.06,0,11.2-3.64,18.9-15.54,23.1,12.6,2.66,19.88,9.94,19.88,24.92,0,20.3-14.28,28.42-34.02,28.42h-39.76v-101.5h36.12ZM437.9,1449.84c15.26,0,25.2-5.46,25.2-20.72s-10.64-20.3-26.46-20.3h-31.22v41.02h32.48ZM439.3,1499.82c18.76,0,28-8.26,28-22.96,0-15.54-9.38-21.84-28.84-21.84h-33.04v44.8h33.88Z"/>
    <path class="cls-2" d="M555.64,1403.64v5.46h-57.82v40.74h54.32v5.32h-54.32v44.52h57.82v5.46h-63.56v-101.5h63.56Z"/>
    <path class="cls-2" d="M636.28,1403.64v5.46h-57.82v40.74h54.32v5.32h-54.32v44.52h57.82v5.46h-63.56v-101.5h63.56Z"/>
    <path class="cls-2" d="M659.1,1410.78v94.36h-5.74v-101.5h7.7l63.56,94.36v-94.36h5.74v101.5h-7.7l-63.56-94.36Z"/>
    <path class="cls-2" d="M396.67,1626.24h-24.36v46.9h-5.74v-101.5h30.24c23.24,0,39.9,4.2,39.9,27.02,0,17.08-9.38,24.08-23.94,26.46l25.48,48.02h-6.44l-24.92-47.18c-3.22.28-6.58.28-10.22.28ZM372.31,1621.06h24.22c19.18,0,34.02-2.52,34.02-22.12s-14.84-22.12-34.02-22.12h-24.22v44.24Z"/>
    <path class="cls-2" d="M490.75,1571.64l39.34,101.5h-6.16l-10.64-27.58h-51.24l-10.5,27.58h-6.02l39.2-101.5h6.02ZM511.19,1640.1l-23.52-61.6-23.52,61.6h47.04Z"/>
    <path class="cls-2" d="M521.41,1577.1v-5.46h76.72v5.46h-35.56v96.04h-5.74v-96.04h-35.42Z"/>
    <path class="cls-2" d="M673.73,1571.64v5.46h-57.82v40.74h54.32v5.32h-54.32v44.52h57.82v5.46h-63.56v-101.5h63.56Z"/>
    <path class="cls-2" d="M769.63,1622.32c0,39.2-22.82,50.82-55.16,50.82h-23.66v-101.5h23.66c32.34,0,55.16,11.62,55.16,50.68ZM696.55,1576.82v91h17.36c24.64,0,49.56-5.88,49.56-45.5s-24.92-45.5-49.56-45.5h-17.36Z"/>
  </g>
  <g>
    <path class="cls-2" d="M401.5,2217.34v-2.34h32.88v2.34h-15.24v41.16h-2.46v-41.16h-15.18Z"/>
    <path class="cls-2" d="M450.04,2215l16.86,43.5h-2.64l-4.56-11.82h-21.96l-4.5,11.82h-2.58l16.8-43.5h2.58ZM458.8,2244.34l-10.08-26.4-10.08,26.4h20.16Z"/>
    <path class="cls-2" d="M503.02,2227.54c0,9.96-7.2,12.42-17.52,12.42h-10.38v18.54h-2.46v-43.5h12.84c10.32,0,17.52,2.58,17.52,12.54ZM475.12,2237.74h10.62c8.16,0,14.7-1.56,14.7-10.2s-6.54-10.32-14.7-10.32h-10.62v20.52Z"/>
    <path class="cls-2" d="M517.66,2217.34v-2.34h32.88v2.34h-15.24v41.16h-2.46v-41.16h-15.18Z"/>
    <path class="cls-2" d="M551.26,2236.72c0-13.2,7.5-22.5,19.8-22.5s19.86,9,19.86,22.5-7.74,22.56-19.86,22.56-19.8-9.36-19.8-22.56ZM588.28,2236.72c0-12.9-7.38-20.16-17.22-20.16s-17.16,7.26-17.16,20.16,7.38,20.22,17.16,20.22,17.22-7.32,17.22-20.22Z"/>
    <path class="cls-2" d="M641.92,2225.98h-2.58c-1.56-6.36-6.72-9.42-13.74-9.42-5.7,0-12.18,2.22-12.18,8.16,0,5.1,4.26,7.74,9.72,9l5.34,1.2c6.36,1.5,14.34,4.02,14.34,12.06s-7.8,12.3-16.08,12.3c-9.36,0-15.78-4.68-17.28-13.74h2.58c1.74,8.16,7.38,11.4,14.58,11.4,5.52,0,13.62-2.04,13.62-9.6,0-5.94-5.58-8.52-12.18-10.02l-5.7-1.26c-5.58-1.32-11.52-4.26-11.52-11.16,0-7.56,7.98-10.68,14.94-10.68,8.4,0,14.58,4.02,16.14,11.76Z"/>
    <path class="cls-2" d="M677.31,2215v2.34h-24.78v17.46h23.28v2.28h-23.28v19.08h24.78v2.34h-27.24v-43.5h27.24Z"/>
    <path class="cls-2" d="M711.87,2215v2.34h-24.78v17.46h23.28v2.28h-23.28v19.08h24.78v2.34h-27.24v-43.5h27.24Z"/>
  </g>
</svg>